<?xml version="1.0" encoding="UTF-8" standalone="no"?>
<svg xmlns:rdf="http://www.w3.org/1999/02/22-rdf-syntax-ns#" xmlns="http://www.w3.org/2000/svg" version="1.1" xmlns:cc="http://creativecommons.org/ns#" xmlns:dc="http://purl.org/dc/elements/1.1/" viewBox="0 0 60 60">
	<path stroke-width="3" fill="#d32f2f" d="m54 30a24 24 0 0 0 -24 -24 24 24 0 0 0 -24 24 24 24 0 0 0 24 24 24 24 0 0 0 24 -24m6 0a30 30 0 0 1 -30 30 30 30 0 0 1 -30 -30 30 30 0 0 1 30 -30 30 30 0 0 1 30 30m-19.5-12c2.4 0 4.5 2.1 4.5 4.5s-2.1 4.5-4.5 4.5-4.5-2.1-4.5-4.5 2.1-4.5 4.5-4.5m-16.5 4.5c0 2.4-2.1 4.5-4.5 4.5s-4.5-2.1-4.5-4.5 2.1-4.5 4.5-4.5 4.5 2.1 4.5 4.5m6 13.5c5.25 0 9.87 2.16 12.57 5.43l-4.26 4.26c-1.35-2.19-4.56-3.69-8.31-3.69s-6.96 1.5-8.31 3.69l-4.26-4.26c2.7-3.27 7.32-5.43 12.57-5.43z"/>
</svg>
