<?xml version="1.0" encoding="UTF-8" standalone="no"?>
<svg xmlns:rdf="http://www.w3.org/1999/02/22-rdf-syntax-ns#" xmlns="http://www.w3.org/2000/svg" xmlns:osb="http://www.openswatchbook.org/uri/2009/osb" height="940.07" viewBox="0 0 940.02313 940.07001" width="940.02" version="1.1" xmlns:cc="http://creativecommons.org/ns#" xmlns:xlink="http://www.w3.org/1999/xlink" xmlns:dc="http://purl.org/dc/elements/1.1/">
 <defs>
  <linearGradient id="d" y2="101.63" gradientUnits="userSpaceOnUse" x2="421.45" gradientTransform="translate(299.16 361.44)" y1="101.63" x1="-95.114">
   <stop style="stop-color:#e5e5e5" offset="0"/>
   <stop style="stop-color:#fff" offset="1"/>
  </linearGradient>
  <linearGradient id="c" y2="323.32" gradientUnits="userSpaceOnUse" x2="1734.3" gradientTransform="translate(-1303.4 -172.9)" y1="914.46" x1="1877.6">
   <stop style="stop-color:#7c1315" offset="0"/>
   <stop style="stop-color:#e81c24" offset="1"/>
  </linearGradient>
  <linearGradient id="a" y2="766.4" gradientUnits="userSpaceOnUse" x2="509.28" gradientTransform="translate(-45.908 -45.858)" y1="753.15" x1="509.28">
   <stop style="stop-color:#fff" offset="0"/>
   <stop style="stop-color:#e7e7e7" offset="1"/>
  </linearGradient>
  <linearGradient id="b" y2="714.42" gradientUnits="userSpaceOnUse" x2="482.48" gradientTransform="matrix(.38073 0 0 .38073 278.33 433.36)" y1="781.36" x1="482.48">
   <stop style="stop-color:#e7e7e7" offset="0"/>
   <stop style="stop-color:#fff" offset="1"/>
  </linearGradient>
 </defs>
 <rect style="fill:url(#c)" ry="0" height="940.07" width="940.02" y="0" x="0"/>
 <path style="fill:#f00" d="m204.18 720.89v-58.293l9.9909-1.0016c48.016-4.8132 70.977-15.186 101.76-45.967 35.902-35.902 59.944-80.902 99.753-186.71 26.342-70.014 48.178-112.52 82.389-160.38 29.86-41.771 77.179-75.621 130.16-93.112 26.107-8.6181 61.62-14.938 83.941-14.938h8.5671v116.69l-9.9909 0.8723c-26.478 2.3117-47.938 8.8797-68.658 21.013-27.562 16.14-61.414 57.572-80.451 98.465-6.6059 14.19-10.25 13.097 43.65 13.097h47.364v118.38l-72.656 0.384-72.656 0.3839-7.9908 17.662c-20.485 45.279-44.381 87.919-67.793 120.97-44.989 63.51-105.05 98.039-188.9 108.6-9.3619 1.1794-21.85 2.1497-27.752 2.1562l-10.731 0.012v-58.293z"/>
 <path style="fill:#800000" d="m204.22 708.83v-58.293l9.9909-1.0016c48.016-4.8132 70.977-15.186 101.76-45.967 35.902-35.902 59.944-80.902 99.753-186.71 26.342-70.014 48.178-112.52 82.389-160.38 29.859-41.771 77.179-75.62 130.16-93.112 26.107-8.6182 61.62-14.938 83.941-14.938h8.567v116.69l-9.9909 0.8723c-26.478 2.3117-47.938 8.8797-68.658 21.013-27.562 16.14-61.414 57.572-80.451 98.465-6.606 14.19-10.25 13.097 43.65 13.097h47.364v118.38l-72.656 0.384-72.656 0.3839-7.9908 17.662c-20.485 45.279-44.381 87.919-67.793 120.97-44.989 63.509-105.05 98.039-188.9 108.6-9.3618 1.1794-21.85 2.1497-27.752 2.1562l-10.731 0.012v-58.293z"/>
 <text style="font-size:32px;font-weight:bold;letter-spacing:0px;line-height:125%;word-spacing:0px;font-family:Verdana;fill:url(#a)" xml:space="preserve" y="721.3075" x="449.66156"><tspan x="449.66156" style="fill:url(#a)" y="721.3075">R</tspan></text>
 <circle r="20.287" style="stroke:url(#b);stroke-width:6.0197;fill:none" cx="461.9" cy="709.63"/>
 <path style="fill:url(#d)" d="m204.05 714.12v-58.293l9.9909-1.0015c48.016-4.8132 70.977-15.186 101.76-45.967 35.902-35.902 59.944-80.902 99.753-186.71 26.342-70.014 48.178-112.52 82.389-160.38 29.859-41.771 77.179-75.62 130.16-93.112 26.107-8.6182 61.62-14.938 83.941-14.938h8.567v116.69l-9.9909 0.87227c-26.478 2.3117-47.938 8.8798-68.658 21.013-27.562 16.14-61.414 57.572-80.451 98.465-6.606 14.19-10.25 13.097 43.65 13.097h47.364v118.38l-72.656 0.38399-72.656 0.38398-7.9908 17.662c-20.485 45.279-44.381 87.919-67.793 120.97-44.989 63.509-105.05 98.039-188.9 108.6-9.3618 1.1794-21.85 2.1497-27.752 2.1562l-10.731 0.0118v-58.293z"/>
</svg>
