<?xml version="1.0" encoding="UTF-8"?>
<svg xmlns="http://www.w3.org/2000/svg" viewBox="0 0 240 240">
	<rect width="100%" height="100%" fill="#cadbfe"/>
	<rect height="200" width="200" y="20" x="20" fill="#000f34"/>
	<path fill="#cadbfe" d="m112.88 63.46v0.014c-30.657 0-50.767 22.744-50.767 56.695 0 39.56 22.745 56.37 48.457 56.37 7.09 0 13.93-0.66 18.21-2.47 0.83-0.33 1.16-0.83 1.16-1.81v-13.53c0-1.16-0.5-1.16-1.16-0.83-4.78 1.65-9.14 2.14-15.74 2.14-14.501 0-32.138-9.22-32.138-40.38 0-25.213 12.857-39.883 32.138-39.883 6.92 0 12.79 1.153 16.74 3.131 0.5 0.165 1.16 0.165 1.16-1.154v-14.174c0-0.989-0.17-1.482-0.99-1.812-3.13-1.484-9-2.307-17.07-2.307zm57.35 0.178c-9.88 0-17.14 3.791-21.26 12.197-2.31 4.45-3.3 9.695-3.3 15.793v5.107h-9.16c-0.66 0-0.83 0.166-0.83 0.99v13.59c0 0.824 0 1.154 0.66 1.154h9.33v61.53c0 0.66 0.33 1.15 1.15 1.15h15.68c0.99 0 1.15-0.45 1.15-1.11v-61.57h13.25c0.82-0.16 0.99-0.33 0.99-1.154v-13.756c0-0.659-0.32-0.824-1.15-0.824h-13.09v-5.078c0-7.912 2.8-12.031 8.57-12.031 1.32 0 3.19 0.162 4.51 0.492 0.83 0.165 1.16-0.164 1.16-0.988v-13.186c0-0.824-0.17-1.152-0.99-1.482-1.65-0.659-3.7-0.824-6.67-0.824z"/>
</svg>