<?xml version="1.0" encoding="UTF-8" standalone="no"?>
<svg xmlns:rdf="http://www.w3.org/1999/02/22-rdf-syntax-ns#" style="enable-background:new 0 0 240 234" xmlns="http://www.w3.org/2000/svg" xml:space="preserve" viewBox="0 0 240 234" version="1.1" y="0px" x="0px" xmlns:cc="http://creativecommons.org/ns#" xmlns:dc="http://purl.org/dc/elements/1.1/">
<rect fill-rule="evenodd" height="214" width="220" clip-rule="evenodd" y="10" x="10" fill="#000f34"/><path d="m0 0v234h240v-234zm10 10h220v214h-220zm99.879 41.645c-30.656 0-50.766 22.744-50.766 56.697 0 39.556 22.745 56.369 48.457 56.369 7.088 0 13.928-0.65966 18.213-2.4727 0.824-0.33 1.1543-0.8235 1.1543-1.8125v-13.53c0-1.154-0.4953-1.1542-1.1543-0.82422-4.779 1.649-9.1472 2.1426-15.74 2.1426-14.504 0-32.141-9.2299-32.141-40.381 0-25.217 12.857-39.885 32.141-39.885 6.922 0 12.782 1.1529 16.738 3.1309 0.495 0.165 1.1543 0.1647 1.1543-1.1543v-14.175c0-0.989-0.16428-1.4825-0.98828-1.8125-3.132-1.483-8.9924-2.3066-17.068-2.3066zm57.355 0.16406c-9.889 0-17.148 3.7913-21.268 12.197-2.307 4.45-3.2949 9.695-3.2949 15.793v5.1074h-9.166c-0.659 0-0.82422 0.16623-0.82422 0.99023v13.59c0 0.824-0.005 1.1543 0.6543 1.1543h9.334v61.527c0 0.66 0.3303 1.1543 1.1543 1.1543h15.672c0.989 0 1.1543-0.45038 1.1543-1.1094v-61.572h13.246c0.824-0.16499 0.99024-0.33029 0.99024-1.1543v-13.756c0-0.659-0.32053-0.82422-1.1445-0.82422h-13.092v-5.0781c0-7.912 2.8033-12.031 8.5723-12.031 1.319 0 3.1908 0.16219 4.5098 0.49219 0.824 0.165 1.1543-0.16428 1.1543-0.98828v-13.186c0-0.824-0.16624-1.1524-0.99024-1.4824-1.648-0.659-3.6951-0.82422-6.6621-0.82422z" fill-rule="evenodd" clip-rule="evenodd" fill="#cadbfe"/>
</svg>
