<?xml version="1.0" encoding="UTF-8" standalone="no"?>
<svg xmlns:rdf="http://www.w3.org/1999/02/22-rdf-syntax-ns#" xmlns="http://www.w3.org/2000/svg" xml:space="preserve" height="379.53" width="358.27" version="1.1" xmlns:cc="http://creativecommons.org/ns#" xmlns:dc="http://purl.org/dc/elements/1.1/" viewBox="0 0 358.27332 379.52933"><g transform="matrix(1.3333 0 0 -1.3333 -201.44 679.17)"><g transform="scale(.1)"><path style="fill:#b3b3b3" d="m2850 5093.8-1339.2-471.3 211.62-1754.6 1129-620.54 1134.8 628.95 211.55 1754.6z"/><path style="fill:#af2b2d" d="m4064.2 4529.4-1217.3 415.1v-2549l1020.2 564.62z"/><path style="fill:#df2e31" d="m1661 4521.9 181.4-1569.2 1004.5-557.2v2549.1z"/><path style="fill:#f2f2f2" d="m3129 3676.7-279.96 584.64-246.47-584.64zm106.74-245.83h-742.11l-166.02-415.26-308.82-5.71 828.04 1842.1 856.9-1842.1h-286.23z"/><path style="fill:#b3b3b3" d="m2846.9 4852 2.21-590.62 279.67-585.09h-281.3l-0.63-245 388.9-0.38 181.77-421.04 295.49-5.48z"/></g></g></svg>
