<?xml version="1.0" encoding="UTF-8" standalone="no"?>
<svg xmlns:rdf="http://www.w3.org/1999/02/22-rdf-syntax-ns#" xmlns="http://www.w3.org/2000/svg" enable-background="new 0 0 166.7 171.014" xml:space="preserve" height="162.73" viewBox="0 0 162.705 162.73284" width="162.7" version="1.1" y="0px" x="0px" xmlns:cc="http://creativecommons.org/ns#" xmlns:dc="http://purl.org/dc/elements/1.1/"><defs><linearGradient id="b" y2="85.271" gradientUnits="userSpaceOnUse" y1="85.271" gradientTransform="matrix(1 0 0 -1 -1.998 166.65)" x2="164.2" x1="2.4978">
		<stop stop-color="#fff" stop-opacity="0" offset=".1166"/>
		<stop stop-color="#C0D1D3" stop-opacity=".153" offset=".2517"/>
		<stop stop-color="#91B3B7" stop-opacity=".306" offset=".3869"/>
		<stop stop-color="#6D9FA3" stop-opacity=".4572" offset=".5205"/>
		<stop stop-color="#4D9195" stop-opacity=".6044" offset=".6505"/>
		<stop stop-color="#30888B" stop-opacity=".7463" offset=".7759"/>
		<stop stop-color="#148386" stop-opacity=".8808" offset=".8947"/>
		<stop stop-color="#008184" offset="1"/>
	</linearGradient><linearGradient id="a" y2="85.271" gradientUnits="userSpaceOnUse" y1="85.271" gradientTransform="matrix(1 0 0 -1 -1.998 166.65)" x2="164.7" x1="1.9978">
		<stop stop-color="#fff" stop-opacity="0" offset="0"/>
		<stop stop-color="#C0D1D3" stop-opacity=".153" offset=".153"/>
		<stop stop-color="#91B3B7" stop-opacity=".306" offset=".306"/>
		<stop stop-color="#6D9FA3" stop-opacity=".4572" offset=".4572"/>
		<stop stop-color="#4D9195" stop-opacity=".6044" offset=".6044"/>
		<stop stop-color="#30888B" stop-opacity=".7463" offset=".7463"/>
		<stop stop-color="#148386" stop-opacity=".8808" offset=".8808"/>
		<stop stop-color="#008184" offset="1"/>
	</linearGradient></defs>
<path d="m162.2 81.312c0 44.655-36.201 80.854-80.846 80.854-44.66 0-80.859-36.199-80.859-80.854 0-44.645 36.199-80.846 80.859-80.846 44.647 0 80.846 36.201 80.846 80.846z" stroke="#81c9cb" stroke-miterlimit="10" stroke-width=".93170" fill="#00979d"/><path opacity=".5" d="m162.2 81.379c0 44.655-36.201 80.854-80.846 80.854-44.66 0-80.859-36.201-80.859-80.854 0-44.645 36.199-80.846 80.859-80.846 44.647 0.002 80.846 36.201 80.846 80.846z" stroke="url(#a)" stroke-miterlimit="10" enable-background="new    " fill="url(#b)"/><path fill="#fff" d="m50.49 52.395c-7.994 0-15.5 2.9652-21.137 8.3652-5.704 5.454-8.8477 12.749-8.8477 20.549 0 7.79 3.1438 15.097 8.8398 20.541 5.642 5.4 13.143 8.373 21.133 8.373 1.531 0 3.0872-0.10813 4.6152-0.32813 12.846-1.832 21.439-11.072 26.268-18.168 4.814 7.096 13.407 16.326 26.258 18.16 1.534 0.229 3.0922 0.33789 4.6152 0.33789 7.99 0 15.484-2.975 21.131-8.375 5.701-5.444 8.8301-12.751 8.8301-20.541 0-7.8-3.1369-15.095-8.8379-20.549-5.637-5.392-13.143-8.3652-21.133-8.3652-1.523 0-3.0744 0.10812-4.6074 0.32812-12.851 1.835-21.443 11.064-26.258 18.16-4.829-7.096-13.422-16.328-26.268-18.16-1.528-0.219-3.0786-0.32812-4.6016-0.32812zm61.734 10.244c10.881 0 19.729 8.3719 19.729 18.67s-8.8497 18.672-19.721 18.672c-1.039 0-2.1051-0.08252-3.1641-0.22852-12.095-1.733-19.498-13.66-22.007-18.44 2.509-4.79 9.9126-16.718 22.018-18.447 1.049-0.153 2.1153-0.22656 3.1543-0.22656zm-61.734 0.002c1.04 0 2.1092 0.07342 3.1562 0.23242 12.103 1.723 19.512 13.661 22.016 18.441-2.511 4.787-9.9126 16.708-22.016 18.441-1.059 0.146-2.1259 0.22656-3.1699 0.22656-10.876 0-19.723-8.3739-19.723-18.67 0-10.298 8.8503-18.672 19.736-18.672zm57.912 9.7422v6.1016h-6.0918v5.8008h6.0918v6.1016h5.8184v-6.1016h6.0938v-5.8008h-6.0938v-6.1016zm-66.17 6.1016v5.8008h17.998v-5.8008z"/>
</svg>
