<?xml version="1.0" encoding="UTF-8" standalone="no"?>
<svg xmlns="http://www.w3.org/2000/svg" version="1.1" xmlns:cc="http://creativecommons.org/ns#" xmlns:dc="http://purl.org/dc/elements/1.1/" height="489.69" width="721.83" xmlns:rdf="http://www.w3.org/1999/02/22-rdf-syntax-ns#" preserveAspectRatio="xMinYMin meet" viewBox="0 0 721.82886 489.6868" viewport="0 0 720 490">
 <g style="stroke:#00979c;stroke-width:60;fill:none" transform="translate(1.5445)">
  <path d="m174 30a145.54 140 0 0 0 0 280c190 10 170-280 370-280a145.54 140 0 0 1 0 280c-190 10-170-280-370-280"/>
 </g>
 <g font-size="167" style="font-size:167px;font-family:sans-serif;text-anchor:middle;stroke:#00979c;stroke-width:20;fill:#00979c" transform="translate(1.5445 10)">
  <g>
   <path d="m528.07 194.67v-32.78h-32.54v-13.699h32.536v-32.536h13.862v32.536h32.536v13.699h-32.536v32.78z"/>
  </g>
  <text y="218" x="181" dy="0">
   <ndash/>
  </text>
 </g>
 <g font-size="40" style="font-size:40px;font-family:Arial;stroke:#00979c;text-anchor:middle;fill:#00979c" transform="translate(1.5445)">
  <g>
   <path d="m681.55 29.285v-13.555h-5.1562v-2.3633h13.008v2.3633h-5.1953v13.555zm9.6289 0v-15.918h3.9062l4.0234 12.715 3.8867-12.715h3.8281v15.918h-2.4219v-13.359l-4.1016 13.359h-2.4023l-4.2774-13.555v13.555z"/>
  </g>
 </g>
 <g font-size="152" style="font-size:152px;stroke-width:2;font-family:Consolas;letter-spacing:.1em;stroke:#00979c;font-weight:bold;fill:#00979c" text-anchor="left" transform="translate(1.5445)" font-weight="bold" letter-spacing=".1em">
  <g style="font-size:182.28px;stroke-width:2.3984" transform="scale(1.0172 .98313)">
   <path style="font-size:182.28px;stroke-width:2.3984" d="m83.276 494.85-6.409-22.97h-40.586l-6.586 22.97h-21.717l34.444-116.33h30.618l34.445 116.33zm-26.434-94.968-15.309 54.115h30.44z"/>
   <path style="font-size:182.28px;stroke-width:2.3984" d="m178.15 494.85-16.377-37.382c-1.5428-3.5601-3.6937-6.2451-6.4528-8.0549-2.7592-1.8097-6.0078-2.7146-9.746-2.7146h-4.1832v48.152h-21.89v-116.33h33.911c6.4083 0.00012 12.223 0.54898 17.445 1.6466 5.2215 1.0978 9.6718 2.9224 13.351 5.4738 3.6788 2.5516 6.5121 5.8744 8.4999 9.9685 1.9877 4.0943 2.9816 9.1082 2.9816 15.042-0.00009 4.2723-0.62312 8.0698-1.8691 11.393-1.2461 3.3229-2.9966 6.1859-5.2513 8.589-2.2549 2.4032-4.9398 4.3464-8.0549 5.8298-3.1152 1.4835-6.5122 2.5219-10.191 3.1152 2.8481 0.59342 5.4589 2.2103 7.8324 4.8508 2.3734 2.6405 4.7468 6.4529 7.1204 11.437l18.602 38.984zm-5.4293-82.062c-0.00006-5.6962-1.8098-9.7904-5.4293-12.283-3.6196-2.492-9.0488-3.7381-16.288-3.7382h-9.6125v32.843h8.9005c3.3821 0.00006 6.4528-0.35596 9.212-1.0681 2.7591-0.71197 5.1177-1.78 7.0759-3.2042 1.958-1.424 3.4711-3.1893 4.5392-5.2958 1.068-2.1064 1.602-4.5243 1.6021-7.2539z"/>
   <path style="font-size:182.28px;stroke-width:2.3984" d="m303.92 435.21c-0.0001 9.0192-1.1126 17.208-3.3377 24.565-2.2252 7.3577-5.6964 13.633-10.414 18.824-4.7173 5.1919-10.755 9.1972-18.112 12.016-7.3578 2.8185-16.169 4.2277-26.434 4.2277h-29.55v-116.32h34.445c8.9004 0.00012 16.688 1.1127 23.364 3.3377 6.6753 2.2252 12.238 5.6519 16.688 10.28 4.4501 4.6283 7.7878 10.503 10.013 17.623 2.225 7.1204 3.3376 15.606 3.3377 25.455zm-23.497 1.4241c-0.00007-6.2896-0.50443-11.897-1.5131-16.822-1.0088-4.9248-2.7147-9.0932-5.1178-12.505-2.4032-3.4118-5.6222-6.0077-9.657-7.7879-4.0349-1.78-9.0488-2.67-15.042-2.6701h-11.126v79.659h9.6125c10.74 0.00002 18.899-3.2042 24.476-9.6125 5.5776-6.4083 8.3664-16.495 8.3664-30.262z"/>
   <path style="font-size:182.28px;stroke-width:2.3984" d="m401.29 452.03c-0.00009 7.4171-0.99398 13.929-2.9817 19.537-1.9878 5.6073-4.836 10.28-8.5444 14.018-3.7086 3.7382-8.233 6.5567-13.573 8.4554-5.3403 1.8988-11.333 2.8481-17.979 2.8481-7.4764 0-13.885-0.94938-19.225-2.8481-5.3403-1.8988-9.6719-4.6282-12.995-8.1884-3.3229-3.5602-5.726-7.8917-7.2094-12.995-1.4834-5.1029-2.2251-10.829-2.2251-17.178v-77.167h21.895v75.832c-0.00003 3.9162 0.34116 7.3874 1.0236 10.414 0.68234 3.0262 1.8691 5.5925 3.5602 7.6989 1.691 2.1065 3.8123 3.6937 6.3638 4.7618 2.5514 1.0681 5.7556 1.6021 9.6125 1.6021 3.6195 0.00001 6.6753-0.45984 9.1675-1.3796 2.4921-0.9197 4.5688-2.4031 6.2303-4.4502 1.6614-2.0471 2.9074-4.6727 3.7382-7.8769 0.83064-3.2041 1.246-7.0907 1.2461-11.66v-74.93h21.895z"/>
   <path style="font-size:182.28px;stroke-width:2.3984" d="m422.56 396.41v-17.89h73.518v17.89h-25.633v80.371h25.633v18.068h-73.518v-18.068h25.633v-80.371z"/>
   <path style="font-size:182.28px;stroke-width:2.3984" d="m575.47 494.85-31.152-69.424-6.4083-14.953v84.377h-19.94v-116.34h26.879l31.775 69.869 5.6073 13.618v-83.49h19.937v116.33z"/>
   <path style="font-size:182.28px;stroke-width:2.3984" d="m706.93 436.19c-0.0001 10.562-1.2313 19.67-3.6937 27.324-2.4626 7.6544-5.8447 13.944-10.147 18.869-4.302 4.9249-9.3456 8.5741-15.131 10.948-5.7854 2.3735-11.971 3.5602-18.557 3.5602-15.309 0-26.82-5.0881-34.534-15.264-7.7138-10.176-11.571-24.966-11.571-44.369-0.00001-10.562 1.2312-19.67 3.6937-27.324 2.4624-7.6543 5.8446-13.944 10.147-18.869 4.3019-4.9248 9.3455-8.574 15.131-10.948 5.7853-2.3733 11.971-3.5601 18.557-3.5602 15.309 0.00012 26.82 5.0734 34.534 15.22 7.7136 10.147 11.57 24.951 11.571 44.413zm-23.141 1.068c-0.00007-13.766-1.8395-24.031-5.5183-30.796-3.6789-6.7643-9.7312-10.146-18.157-10.147-4.2129 0.0001-7.8028 0.87531-10.77 2.6256-2.9668 1.7505-5.4145 4.3168-7.3429 7.6989-1.9285 3.3823-3.3377 7.5506-4.2277 12.505-0.89007 4.9547-1.3351 10.636-1.3351 17.044-0.00002 13.766 1.8542 24.031 5.5628 30.796 3.7085 6.7644 9.746 10.147 18.112 10.147 4.2128 0.00002 7.8175-0.87519 10.814-2.6256 2.9964-1.7504 5.444-4.3167 7.3429-7.6989 1.8987-3.3822 3.2931-7.5505 4.1832-12.505 0.88997-4.9546 1.335-10.636 1.3351-17.044z"/>
  </g>
 </g>
 <g font-size="167" style="font-size:167px;font-family:sans-serif;text-anchor:middle;stroke:#00979c;stroke-width:20;fill:#00979c" transform="translate(-364.25 .52773)">
  <g style="font-size:197.22px;stroke-width:23.619" transform="scale(1.5646 .63914)">
   <path style="font-size:197.22px;stroke-width:23.619" d="m321.42 266.31v-17.43h53.253v17.43z"/>
  </g>
 </g>
</svg>
