<?xml version="1.0" encoding="UTF-8" standalone="no"?>
<svg xmlns:rdf="http://www.w3.org/1999/02/22-rdf-syntax-ns#" xmlns="http://www.w3.org/2000/svg" height="489.71" viewBox="0 0 721.82825 489.70578" width="721.83" version="1.1" xmlns:cc="http://creativecommons.org/ns#" xmlns:dc="http://purl.org/dc/elements/1.1/" preserveAspectRatio="xMinYMin meet" viewport="0 0 720 490">
	<g stroke="#00979c">
		<path d="m175.54 30a145.54 140 0 0 0 0 280c190 10 170-280 370-280a145.54 140 0 0 1 0 280c-190 10-170-280-370-280" stroke-width="60" fill="none"/>
		<path d="m529.61 125.65v32.537h-32.535v13.699h32.539v32.779h13.857v-32.779h32.537v-13.7h-32.55v-32.54zm-390.97 33.943v11.141h83.318v-11.13z" stroke-width="20" fill="#00979c"/>
		<path d="m673.73 370.2c-6.6993 0.0001-12.99 1.1667-18.875 3.5-5.885 2.334-11.017 5.9219-15.393 10.764-4.3764 4.8419-7.8155 11.026-10.32 18.551-2.5049 7.5249-3.7578 16.479-3.7578 26.863 0 19.076 3.923 33.615 11.77 43.619 7.8467 10.004 19.557 15.008 35.129 15.008 6.6993 0 12.99-1.1665 18.875-3.5 5.8849-2.3339 11.017-5.9218 15.393-10.764 4.3763-4.8419 7.8153-11.025 10.32-18.551 2.5048-7.5249 3.7577-16.479 3.7578-26.863-0.001-19.134-3.9232-33.688-11.77-43.664-7.8467-9.9754-19.557-14.963-35.129-14.963zm-79.945 1.918v82.08l-5.7031-13.387-32.322-68.691h-27.342v114.38h20.283v-82.953l6.5195 14.701 31.687 68.252 27.156-0.0117v-114.37zm-270.24 0.004v75.865c0 6.2419 0.75474 11.872 2.2637 16.889 1.5089 5.0172 3.9539 9.2752 7.334 12.775 3.3803 3.5001 7.7866 6.184 13.219 8.0508 5.4318 1.8667 11.95 2.7988 19.555 2.7988 6.7603 0 12.857-0.93206 18.289-2.7988 5.4318-1.8667 10.034-4.6373 13.807-8.3125 3.7722-3.6749 6.6694-8.2685 8.6914-13.781 2.0219-5.5134 3.0331-11.917 3.0332-19.209l-0.002-72.266h-22.271v73.666c-0.0001 4.4922-0.42264 8.3128-1.2676 11.463-0.8451 3.1501-2.1128 5.7316-3.8027 7.7441-1.6901 2.0126-3.801 3.4708-6.3359 4.375-2.5351 0.90424-5.6444 1.3574-9.3262 1.3574-3.9232 0-7.182-0.52609-9.7773-1.5762-2.5954-1.0501-4.7526-2.6107-6.4726-4.6816-1.7202-2.0709-2.929-4.5932-3.623-7.5684-0.69419-2.9756-1.041-6.3881-1.041-10.238v-74.553zm-278.85 0.008-35.035 114.37h22.09l6.6992-22.582h41.285l6.5195 22.582h24.625l-35.037-114.37zm78.406 0v114.37h22.266v-47.34h4.2559c3.8025 0 7.1074 0.8888 9.914 2.668 2.8066 1.7793 4.9932 4.4199 6.5625 7.9199l16.66 36.75h26.17l-18.922-38.326c-2.4144-4.9-4.828-8.6482-7.2422-11.244-2.4143-2.596-5.0716-4.1842-7.9687-4.7676 3.7421-0.58329 7.1984-1.604 10.367-3.0625 3.1687-1.4584 5.8997-3.3698 8.1934-5.7324 2.2935-2.3626 4.0743-5.1765 5.3418-8.4433 1.2674-3.2671 1.9003-7.0009 1.9004-11.201 0-5.8337-1.0113-10.764-3.0332-14.789-2.022-4.025-4.9024-7.2903-8.6445-9.7988-3.7425-2.5084-8.2707-4.3035-13.582-5.3828-5.3118-1.0791-11.226-1.619-17.744-1.6191zm308.27 0v17.588h26.074v79.015h-26.07v17.764h74.783v-17.76h-26.07v-79.015h26.074v-17.588zm-210.04 0.002v114.36h30.059c10.442 0 19.404-1.3853 26.889-4.1562 7.4835-2.7712 13.625-6.7101 18.424-11.814 4.7988-5.1034 8.3283-11.272 10.592-18.506 2.2627-7.2307 3.3957-15.279 3.3965-24.143-0.0001-9.6828-1.1332-18.025-3.3965-25.025-2.2635-6.9999-5.6589-12.776-10.186-17.326-4.5265-4.55-10.184-7.9178-16.975-10.105-6.7908-2.1875-14.712-3.2831-23.766-3.2832zm451.68 17.492c8.5707 0.00098 14.727 3.3264 18.469 9.9765 3.7421 6.6509 5.6132 16.744 5.6133 30.277-0.0001 6.2999-0.45409 11.885-1.3594 16.756-0.9054 4.8709-2.3225 8.9698-4.2539 12.295-1.9316 3.3251-4.4228 5.8475-7.4707 7.5683-3.048 1.7209-6.7147 2.582-11 2.582-8.5099 0-14.652-3.3263-18.424-9.9765-3.7724-6.6509-5.6582-16.744-5.6582-30.277 0-6.2999 0.45399-11.885 1.3594-16.756 0.9053-4.8708 2.3372-8.9697 4.2988-12.295 1.9616-3.325 4.4529-5.8474 7.4707-7.5684 3.0182-1.7208 6.6697-2.5819 10.955-2.582zm-527.65 0.44531h9.7773c7.3637 0.0001 12.886 1.2258 16.568 3.6758 3.6818 2.4506 5.5234 6.4741 5.5234 12.074-0.0001 2.6836-0.54254 5.0619-1.6289 7.1328-1.0865 2.071-2.6275 3.8051-4.6191 5.2051-1.9919 1.4002-4.3907 2.4504-7.1972 3.1504-2.8067 0.70012-5.9289 1.0508-9.3691 1.0508h-9.0547zm98.238 0.0801h11.316c6.0963 0.00009 11.196 0.87501 15.301 2.625 4.1042 1.7502 7.3797 4.302 9.8242 7.6562 2.4444 3.3542 4.1789 7.4532 5.2051 12.295 1.0259 4.8414 1.5389 10.356 1.5391 16.539-0.00028 13.534-2.8385 23.45-8.5117 29.75-5.6729 6.3002-13.972 9.4512-24.896 9.4512h-9.7773zm-184.24 2.9824 15.391 53.201h-30.965z" stroke-width="2.3984" fill="#00979c"/>
	</g>
</svg>
