<?xml version="1.0" encoding="UTF-8" standalone="no"?>
<svg xmlns:rdf="http://www.w3.org/1999/02/22-rdf-syntax-ns#" xmlns="http://www.w3.org/2000/svg" height="125.05" viewBox="0 0 313.90158 125.04901" width="313.9" version="1.1" xmlns:cc="http://creativecommons.org/ns#" xmlns:xlink="http://www.w3.org/1999/xlink" xmlns:dc="http://purl.org/dc/elements/1.1/">
 <defs>
  <linearGradient id="l" gradientUnits="userSpaceOnUse" gradientTransform="matrix(0 149.73 -149.73 0 1075 1836.3)">
   <stop style="stop-color:#0994dc" offset="0"/>
   <stop style="stop-color:#66cef5" offset=".35001"/>
   <stop style="stop-color:#127bca" offset=".84616"/>
   <stop style="stop-color:#127bca" offset="1"/>
  </linearGradient>
  <linearGradient id="k" gradientUnits="userSpaceOnUse" gradientTransform="matrix(0 153.55 -153.55 0 1080.7 1832.5)">
   <stop style="stop-color:#0e76bc" offset="0"/>
   <stop style="stop-color:#36aee8" offset="0.36"/>
   <stop style="stop-color:#00adef" offset=".84616"/>
   <stop style="stop-color:#00adef" offset="1"/>
  </linearGradient>
  <linearGradient id="j" gradientUnits="userSpaceOnUse" gradientTransform="matrix(0 159.43 -159.43 0 1103.5 1817)">
   <stop style="stop-color:#166ab8" offset="0"/>
   <stop style="stop-color:#36aee8" offset=".39999"/>
   <stop style="stop-color:#0798dd" offset=".84616"/>
   <stop style="stop-color:#0798dd" offset="1"/>
  </linearGradient>
  <linearGradient id="i" gradientUnits="userSpaceOnUse" gradientTransform="matrix(0 169.53 -169.53 0 1091 1817.8)">
   <stop style="stop-color:#124379" offset="0"/>
   <stop style="stop-color:#1487cb" offset="0.39"/>
   <stop style="stop-color:#165197" offset=".78023"/>
   <stop style="stop-color:#165197" offset="1"/>
  </linearGradient>
  <linearGradient id="h" gradientUnits="userSpaceOnUse" gradientTransform="matrix(0 -121.87 121.87 0 987.06 1952.8)">
   <stop style="stop-color:#318ed5" offset="0"/>
   <stop style="stop-color:#38a7e4" offset="1"/>
  </linearGradient>
  <linearGradient id="g" gradientUnits="userSpaceOnUse" gradientTransform="matrix(0 -100.1 100.1 0 1001.1 1959.3)">
   <stop style="stop-color:#1959a6" offset="0"/>
   <stop style="stop-color:#05a1e6" offset=".5"/>
   <stop style="stop-color:#7ec5ea" offset=".91759"/>
   <stop style="stop-color:#7ec5ea" offset="1"/>
  </linearGradient>
  <linearGradient id="f" gradientUnits="userSpaceOnUse" gradientTransform="matrix(-19.138 -108.54 108.54 -19.138 1004.9 1952.9)">
   <stop style="stop-color:#165096" offset="0"/>
   <stop style="stop-color:#0d82ca" offset="1"/>
  </linearGradient>
  <linearGradient id="e" gradientUnits="userSpaceOnUse" gradientTransform="matrix(0 -56.721 56.721 0 1182.5 1891.5)">
   <stop style="stop-color:#05a1e6" offset="0"/>
   <stop style="stop-color:#0495d6" offset=".87363"/>
   <stop style="stop-color:#0495d6" offset="1"/>
  </linearGradient>
  <linearGradient id="d" gradientUnits="userSpaceOnUse" gradientTransform="matrix(0 123.74 -123.74 0 1188.5 1834.1)">
   <stop style="stop-color:#168cd4" offset="0"/>
   <stop style="stop-color:#1c87cc" offset=".5"/>
   <stop style="stop-color:#154b8d" offset="1"/>
  </linearGradient>
  <linearGradient id="c" gradientUnits="userSpaceOnUse" gradientTransform="matrix(4.4594 2.0216 2.0216 -4.4594 2003 84.154)">
   <stop style="stop-color:#7accec" offset="0"/>
   <stop style="stop-color:#3fb7ed" offset="1"/>
  </linearGradient>
  <linearGradient id="b" gradientUnits="userSpaceOnUse" gradientTransform="matrix(5.6463 -2.3419 -2.3419 -5.6463 1999.7 86.966)">
   <stop style="stop-color:#97d6ee" offset="0"/>
   <stop style="stop-color:#55c1ea" offset=".70329"/>
   <stop style="stop-color:#55c1ea" offset="1"/>
  </linearGradient>
  <linearGradient id="a" gradientUnits="userSpaceOnUse" gradientTransform="matrix(0 -118.46 118.46 0 994.73 1953.2)">
   <stop style="stop-color:#05a1e6" offset="0"/>
   <stop style="stop-color:#05a1e6;stop-opacity:.54902" offset="1"/>
  </linearGradient>
  <linearGradient id="n" y2="2076" gradientUnits="userSpaceOnUse" x2="959.67" gradientTransform="matrix(4.0385 0 0 4.0385 -2848.9 -6485.7)" y1="2076" x1="937.66">
   <stop style="stop-color:#05a1e6;stop-opacity:.24706" offset="0"/>
   <stop style="stop-color:#05a1e6" offset="1"/>
  </linearGradient>
  <linearGradient id="m" y2="2069" gradientUnits="userSpaceOnUse" x2="964.66" gradientTransform="matrix(4.0385 0 0 4.0385 -2848.9 -6485.7)" y1="2069" x1="958.72">
   <stop style="stop-color:#33bdf2;stop-opacity:.69804" offset="0"/>
   <stop style="stop-color:#1dacd8" offset="1"/>
  </linearGradient>
  <linearGradient id="r" gradientUnits="userSpaceOnUse" gradientTransform="matrix(0 -122.18 122.18 0 1111.6 1952.9)">
   <stop style="stop-color:#1c63b7" offset="0"/>
   <stop style="stop-color:#33bdf2" offset=".5"/>
   <stop style="stop-color:#33bdf2;stop-opacity:.41961" offset="1"/>
  </linearGradient>
  <linearGradient id="q" gradientUnits="userSpaceOnUse" gradientTransform="matrix(0 121.03 -121.03 0 1171.8 1841)">
   <stop style="stop-color:#1da7e7" offset="0"/>
   <stop style="stop-color:#37abe7;stop-opacity:0" offset="1"/>
  </linearGradient>
  <linearGradient id="p" gradientUnits="userSpaceOnUse" gradientTransform="matrix(-23.063 130.79 -130.79 -23.063 1209.2 1829.5)">
   <stop style="stop-color:#38a7e4;stop-opacity:.32941" offset="0"/>
   <stop style="stop-color:#0e88d3" offset=".96153"/>
   <stop style="stop-color:#0e88d3" offset="1"/>
  </linearGradient>
  <linearGradient id="o" gradientUnits="userSpaceOnUse" gradientTransform="matrix(0 -119.02 119.02 0 1202.9 1949.8)">
   <stop style="stop-color:#136ab4" offset="0"/>
   <stop style="stop-color:#59caf5;stop-opacity:.54902" offset="0.6"/>
   <stop style="stop-color:#59caf5;stop-opacity:.23529" offset="1"/>
  </linearGradient>
 </defs>
 <g transform="translate(-937.82 -1834.5)">
  <path style="fill:url(#l)" d="m1046.8 1860c11.313 34.595 15.599 96.308 48.679 96.308 2.519 0 5.0633-0.2464 7.6177-0.7322-30.072-7.0117-33.636-68.054-51.986-99.666-1.4388 1.3076-2.8674 2.6706-4.3111 4.0894"/>
  <path style="fill:url(#k)" d="m1051.2 1855.9c18.35 31.612 21.914 92.654 51.986 99.666 2.3625-0.4341 4.7301-1.0904 7.1027-1.9183-26.992-13.226-34.454-72.502-55.292-101.04-1.2621 1.0504-2.5291 2.1509-3.7962 3.2914"/>
  <path style="fill:#14559a" d="m1077.6 1837.1c-2.514 0-5.0635 0.2463-7.6227 0.7322-6.6939 1.262-13.494 4.1443-20.349 8.5059 1.8727 1.8476 3.6545 3.9626 5.3305 6.2698 6.9716-5.7852 13.898-10.061 20.799-12.63 2.5895-0.9591 5.1693-1.6808 7.7588-2.1553-1.8678-0.475-3.8366-0.7221-5.9164-0.7221"/>
  <path style="fill:url(#r)" d="m1131.3 1941.5c2.7613-2.1957 5.5277-4.6241 8.2991-7.2741-11.495-34.434-15.609-97.031-48.922-97.031-2.3827 0-4.7856 0.2221-7.1835 0.6663 30.344 7.5472 34.232 73.567 47.806 103.64"/>
  <path style="fill:#3092c4" d="m1083.5 1837.8c-1.8678-0.4745-3.8365-0.7216-5.9164-0.7216l13.1 0.048c-2.3828 0-4.7857 0.2221-7.1836 0.6716"/>
  <path style="fill:#1969bc" d="m1130.7 1948.8c-1.3024-1.2418-2.539-2.6048-3.7558-4.0587-5.6035 3.9678-11.187 6.9765-16.734 8.9352 1.9736 0.9644 4.0433 1.6813 6.2395 2.1255 1.701 0.3473 3.463 0.525 5.3155 0.525 6.2245 0 11.146-0.737 15.336-2.7462-2.3068-1.2471-4.4221-2.8625-6.401-4.7808"/>
  <path style="fill:url(#j)" d="m1075.8 1840c27.179 14.216 29.542 78.59 51.229 104.73 1.4539-1.0246 2.8926-2.1101 4.3313-3.2563-13.574-30.072-17.456-96.096-47.796-103.64-2.5897 0.4846-5.1744 1.2019-7.7641 2.1659"/>
  <path style="fill:url(#i)" d="m1055 1852.6c20.839 28.537 28.3 87.813 55.292 101.04 5.5479-1.9587 11.131-4.9674 16.735-8.9352-21.687-26.139-24.049-90.513-51.229-104.73-6.9008 2.5644-13.827 6.84-20.798 12.625"/>
  <path style="fill:url(#m)" d="m1033.5 1859.2c-3.2662 7.3857-6.603 17.093-10.636 29.764 8.0215-11.303 16.018-21.041 23.969-28.931-1.0954-3.3673-2.2716-6.4718-3.5387-9.2385-3.251 2.4889-6.5273 5.2908-9.7934 8.4053"/>
  <path style="fill:#2b74b1" d="m1046.2 1848.7c-0.9592 0.6865-1.9232 1.3884-2.8924 2.1303 1.2669 2.7664 2.438 5.8712 3.5337 9.2381 1.4434-1.4135 2.877-2.7814 4.3107-4.089-1.5395-2.6453-3.1751-5.0886-4.952-7.2794"/>
  <path style="fill:#125a9e" d="m1049.6 1846.4c-1.1409 0.7221-2.2765 1.4841-3.4226 2.2817 1.7769 2.1909 3.4125 4.6342 4.9573 7.2847 1.2672-1.1461 2.5341-2.2515 3.7962-3.2966-1.676-2.3068-3.4578-4.4222-5.3309-6.2698"/>
  <path style="fill:url(#o)" d="m1235 1834.5c-15.372 59.28-47.478 106.89-74.395 118.9h-0.051c-0.4896 0.2221-0.9743 0.4241-1.4538 0.6207-0.066 0.04-0.126 0.045-0.1769 0.069-0.1414 0.057-0.2726 0.101-0.414 0.1575-0.066 0.04-0.126 0.053-0.1865 0.077-0.227 0.081-0.4493 0.1495-0.6714 0.2383-0.096 0.04-0.1866 0.065-0.2779 0.097-0.101 0.04-0.2173 0.077-0.3332 0.1091-0.1009 0.04-0.2067 0.069-0.3231 0.113-0.096 0.04-0.197 0.057-0.2875 0.097-0.1971 0.057-0.3784 0.105-0.5755 0.1736-0.081 0-0.1563 0.044-0.2423 0.065-0.1212 0.04-0.2577 0.069-0.3889 0.105-0.091 0.04-0.1664 0.053-0.2625 0.073-0.1365 0.04-0.288 0.077-0.4241 0.1091-0.1817 0.04-0.3432 0.077-0.5149 0.1131 1.2166 0.4494 2.4837 0.6764 3.8518 0.6764 25.523 0 51.258-45.741 93.84-121.81h-16.719z"/>
  <path style="fill:url(#n)" d="m1017.3 1839.5c0.016 0 0.036-0.04 0.046-0.04 0.02 0 0.051 0 0.061-0.04h0.032c0.1413-0.048 0.2726-0.105 0.4139-0.1575 0.036 0 0.055 0 0.081-0.04 0.036 0 0.071-0.04 0.1062-0.045 0.1515-0.048 0.3029-0.105 0.4443-0.1575h0.024c0.3384-0.1009 0.6512-0.2261 0.9793-0.3432 0.046 0 0.091-0.04 0.1462-0.04 0.1365-0.044 0.2779-0.093 0.419-0.1252 0.066-0.04 0.1313-0.04 0.1918-0.061 0.1462-0.044 0.288-0.093 0.4241-0.1252 0.061 0 0.1163-0.04 0.1615-0.044 0.4695-0.1292 0.9339-0.2504 1.4034-0.3635 0.066 0 0.1212-0.04 0.1918-0.044 0.1361-0.04 0.2626-0.061 0.4089-0.081 0.061-0.04 0.1313-0.04 0.202-0.061 0.1361-0.04 0.2673-0.044 0.4139-0.077h0.096c0.2827-0.057 0.5705-0.105 0.8532-0.1575h0.1716c0.1361-0.04 0.2573-0.044 0.3938-0.069 0.075 0 0.1514-0.04 0.2221-0.04 0.126 0 0.2524-0.04 0.3784-0.057 0.066 0 0.1312 0 0.2072-0.04 0.2976-0.04 0.6057-0.056 0.9187-0.081-0.8834-0.085-1.7921-0.1414-2.7159-0.1414-28.744 0-68.347 53.334-86.187 122.4h3.4378c5.7094-10.182 10.838-19.814 15.528-28.855 12.494-48.921 37.942-82.285 60.547-91.124"/>
  <path style="fill:#0d82ca" d="m1033.5 1859.2c3.2663-3.1145 6.5424-5.9164 9.7934-8.4049-0.7419-1.6255-1.5092-3.1299-2.3323-4.5082-2.6299 3.1904-5.0328 7.4006-7.4611 12.913"/>
  <path style="fill:#0d82ca" d="m1035.9 1839.9c1.8779 1.575 3.5587 3.7408 5.0986 6.3356 0.4846-0.5957 0.9745-1.1461 1.4842-1.661-2.1352-1.9939-4.4424-3.6295-6.9463-4.8612 0.101 0.056 0.2019 0.101 0.3069 0.1454 0 0 0.04 0.04 0.057 0.04"/>
  <path style="fill:url(#h)" d="m956.79 1930.7c26.21-50.507 38.628-82.472 60.547-91.124-22.601 8.8447-48.053 42.208-60.547 91.124"/>
  <path style="fill:#127bca" d="m1042.5 1844.6c-0.5096 0.5202-0.9942 1.0654-1.4841 1.6611 0.823 1.3779 1.59 2.8774 2.3375 4.5078 0.9692-0.7419 1.9332-1.4438 2.8924-2.1303-1.1861-1.464-2.4381-2.8218-3.7458-4.0386"/>
  <path style="fill:url(#a)" d="m968.69 1959.3c-0.16154 0.04-0.32308 0.04-0.47453 0.057h-0.0909c-0.1365 0-0.27785 0.04-0.40385 0.04h-0.0658c-0.32793 0.04-0.65121 0.04-0.9642 0.065h-0.10096c26.528-0.7423 38.654-14.024 44.671-33.288 4.5736-14.604 8.3295-26.907 11.621-37.23-11.111 15.639-22.272 34.282-33.494 55.166-5.4116 10.066-13.64 14.271-20.697 15.17"/>
  <path style="fill:url(#g)" d="m968.69 1959.3c7.0573-0.899 15.286-5.099 20.697-15.17 11.222-20.879 22.388-39.527 33.489-55.166 4.0385-12.676 7.3703-22.378 10.642-29.764-22.126 21.061-44.338 56.08-64.828 100.09"/>
  <path style="fill:#05a1e6" d="m956.79 1930.7c-4.6895 9.0414-9.8184 18.673-15.528 28.855h10.001c1.3226-10.112 3.2005-19.754 5.5275-28.85"/>
  <path style="fill:url(#f)" d="m1025.8 1837.4c-0.081 0-0.1414 0.04-0.212 0.04-0.1212 0.04-0.2476 0.04-0.3736 0.053-0.075 0-0.1462 0-0.2221 0.04-0.1365 0.04-0.2625 0.044-0.3938 0.069-0.061 0-0.1211 0-0.1716 0.04-0.288 0.048-0.5705 0.101-0.8532 0.1494h-0.096c-0.1462 0.04-0.2778 0.061-0.4139 0.081-0.071 0.04-0.1414 0.04-0.2072 0.056-0.1361 0.04-0.2726 0.057-0.4038 0.081-0.071 0.04-0.126 0.04-0.1919 0.044-0.4694 0.1131-0.9339 0.2343-1.4034 0.3635-0.05 0-0.1009 0.04-0.1615 0.048-0.1413 0.04-0.2778 0.081-0.424 0.1252-0.061 0.04-0.1313 0.04-0.1919 0.056-0.1413 0.04-0.2827 0.081-0.419 0.1252-0.055 0-0.1009 0.04-0.1514 0.04-0.3231 0.1211-0.6411 0.2423-0.9743 0.3433-0.1413 0.044-0.2928 0.1009-0.4442 0.1534-0.061 0.04-0.1163 0.049-0.1866 0.077-0.1414 0.044-0.2827 0.101-0.414 0.1535-0.05 0.04-0.1009 0.044-0.1361 0.065-21.919 8.6525-34.337 40.617-60.547 91.124-2.3272 9.0968-4.2102 18.739-5.5277 28.85h1.4034c3.9527 0 5.0683-0.04 9.6167-0.04h3.5741 0.83294c0.31298-0.04 0.63607-0.04 0.9642-0.065h0.0606c0.1365 0 0.2726-0.04 0.40385-0.04h0.0957c0.14619 0 0.31298-0.04 0.47452-0.057 20.49-44.01 42.702-79.029 64.828-100.09 2.4332-5.5125 4.8311-9.7227 7.4562-12.908-1.5347-2.5947-3.2157-4.7654-5.0936-6.3408 0 0-0.051 0-0.055-0.04-0.1062-0.044-0.2067-0.097-0.3129-0.1494-0.1063-0.057-0.1971-0.101-0.3078-0.1575-0.096-0.04-0.2071-0.093-0.3029-0.1454-0.1312-0.04-0.2374-0.097-0.3533-0.1495-0.096-0.04-0.1818-0.081-0.2779-0.1211-0.1971-0.077-0.3937-0.1575-0.5805-0.2423-0.086-0.04-0.1664-0.061-0.2476-0.093-0.1361-0.049-0.2928-0.1131-0.4341-0.1737-0.071-0.04-0.1515-0.048-0.2322-0.077-0.2068-0.069-0.4089-0.1413-0.6008-0.206h-0.05c-0.2323-0.077-0.4594-0.1332-0.6967-0.1979-0.055-0.04-0.101-0.04-0.1563-0.048-0.2072-0.057-0.3889-0.1131-0.5856-0.1656-0.05 0-0.096-0.04-0.1361-0.04-0.4745-0.1252-0.9642-0.2261-1.4589-0.319-0.051 0-0.1009-0.04-0.1514-0.04-0.212-0.04-0.419-0.077-0.631-0.101-0.051-0.04-0.081-0.04-0.126-0.04-0.2524-0.04-0.4998-0.069-0.7472-0.097h-0.1312c-0.2019-0.04-0.3885-0.044-0.5755-0.065-0.3182 0.04-0.6209 0.057-0.9188 0.085"/>
  <path style="fill:url(#e)" d="m1175 1867.3c-5.0431 16.154-9.1271 29.481-12.681 40.446 13.837-19.042 27.467-42.995 40.446-70.638-15.14 4.7549-23.217 15.639-27.765 30.193"/>
  <path style="fill:url(#p)" d="m1162.7 1952.4c-0.7067 0.3594-1.4134 0.7015-2.1101 1.0096 26.917-12.004 59.023-59.619 74.395-118.9h-3.1149c-35.317 63.086-46.675 105.32-69.17 117.89"/>
  <path style="fill:#079ae1" d="m1145.2 1947.1c5.8558-7.1481 10.626-19.299 17.139-39.325-7.512 10.318-15.074 19.188-22.641 26.422 0 0.04 0 0.04-0.04 0.065 1.651 4.9472 3.463 9.3136 5.5279 12.837"/>
  <path style="fill:#1969bc" d="m1145.2 1947.1c-1.9942 2.4333-4.104 4.2861-6.4516 5.6592-0.5149 0.2989-1.0346 0.5804-1.5649 0.838 2.4789 1.3376 5.1843 2.2313 8.2131 2.5895 0.4439 0.044 0.8833 0.085 1.3429 0.1171h0.081c0.206 0 0.4241 0 0.6462 0.04h0.089 0.6615 0.712 0.2222 0.5048c0.081 0 0.1655 0 0.2463-0.04 0.1575 0 0.3231 0 0.4846-0.04h0.057 0.1817c0.1656 0 0.3473-0.04 0.525-0.057h0.04c0.053 0 0.109-0.04 0.1615-0.04 0.1858-0.04 0.3797-0.057 0.5606-0.085h0.1656c0.2059-0.04 0.4188-0.065 0.6308-0.105h0.04 0.061c0.4241-0.081 0.838-0.1615 1.2568-0.2665-3.4731-1.2722-6.3808-4.2708-8.8847-8.5415"/>
  <path style="fill:#1e5cb3" d="m1095.5 1956.3c2.5192 0 5.0635-0.2463 7.6178-0.737 2.3626-0.4289 4.73-1.0856 7.1026-1.9135 1.974 0.9644 4.0437 1.6813 6.2346 2.1255 1.7011 0.3473 3.4679 0.525 5.3208 0.525z"/>
  <path style="fill:#1e5cb3" d="m1121.8 1956.3c6.2193 0 11.146-0.737 15.331-2.7462 2.4785 1.3376 5.1843 2.2313 8.2131 2.5899 0.4443 0.044 0.8837 0.085 1.3429 0.1171h0.081c0.206 0 0.4241 0 0.6462 0.04h0.093 0.6615-26.387z"/>
  <path style="fill:#1d60b5" d="m1148.2 1956.3h0.7169 0.2221 0.5c0.085 0 0.1655 0 0.2463-0.04 0.1575 0 0.3231 0 0.4899-0.04h0.053 0.1858c0.1655 0 0.3473-0.04 0.5201-0.056h0.044c0.053 0 0.105-0.04 0.1575-0.04 0.1858-0.04 0.3797-0.056 0.5602-0.085 0.061 0 0.109 0 0.1736-0.04 0.206-0.04 0.4192-0.061 0.6313-0.1009h0.04 0.061c0.4241-0.081 0.838-0.1616 1.2568-0.2666 1.2164 0.4491 2.4837 0.6765 3.8515 0.6765l-9.7025 0.04z"/>
  <path style="fill:#175fab" d="m1139.6 1934.2v-0.04c-2.7713 2.6501-5.5377 5.0785-8.2992 7.2742-1.4438 1.1461-2.8823 2.2313-4.3361 3.2563 1.2164 1.4538 2.4534 2.8168 3.7558 4.0587 1.9789 1.9179 4.0938 3.5337 6.401 4.7804 0.525-0.2585 1.05-0.5404 1.5597-0.838 2.3524-1.3731 4.4626-3.2256 6.4568-5.6588-2.0649-3.5236-3.877-7.8905-5.5279-12.838"/>
  <path style="fill:url(#d)" d="m1222 1834.5h-13.095-1.3025-1.2317-0.048c-0.8481 0.04-1.6707 0.069-2.4837 0.1212-0.3836 0.8231-0.7774 1.6461-1.1562 2.474-12.979 27.643-26.609 51.597-40.446 70.638-6.5071 20.026-11.283 32.177-17.138 39.325 2.5039 4.2707 5.4167 7.2741 8.8797 8.5463 0.101-0.04 0.1817-0.04 0.2726-0.061h0.056c0.061 0 0.126-0.04 0.1919-0.04 0.1413-0.04 0.2928-0.065 0.4341-0.109 0.091-0.04 0.1664-0.044 0.2577-0.073 0.1312-0.04 0.2673-0.069 0.3885-0.101 0.081-0.04 0.1615-0.053 0.2423-0.069 0.2019-0.065 0.3836-0.1131 0.5755-0.1737 0.091-0.04 0.187-0.073 0.2879-0.097 0.1111-0.04 0.2221-0.069 0.3231-0.1171 0.1163-0.04 0.2322-0.061 0.3332-0.105 0.091-0.04 0.1866-0.065 0.2726-0.101 0.2269-0.081 0.4493-0.1494 0.6764-0.2383 0.061 0 0.1212-0.056 0.187-0.069 0.1361-0.057 0.2775-0.101 0.414-0.1616 0.05-0.04 0.111-0.044 0.1764-0.065 0.4746-0.1979 0.9642-0.3998 1.4539-0.6207h0.051c0.6966-0.3069 1.4034-0.6514 2.1051-1.0096 22.5-12.57 33.858-54.803 69.175-117.89h-9.8641z"/>
  <path style="fill:#7dcbec" d="m1026.7 1837.3c0.056 0 0.1062 0 0.1615 0.04 0.1361 0 0.2726 0 0.4089 0.044h0.1365c0.2472 0.04 0.4947 0.061 0.7471 0.097 0.046 0 0.086 0 0.126 0.04 0.2068 0.04 0.419 0.073 0.631 0.105 0.046 0 0.1063 0.04 0.1567 0.04 0.4847 0.097 0.9794 0.1979 1.4539 0.3231 0.045 0 0.091 0.04 0.1313 0.04 0.2019 0.048 0.3836 0.109 0.5855 0.1655 0.061 0 0.1058 0.04 0.1616 0.049 0.2374 0.061 0.4594 0.1212 0.6916 0.1979 0.01 0 0.024 0 0.051 0.04 0.1966 0.06 0.3986 0.1373 0.6057 0.2059 0.081 0.04 0.1563 0.057 0.2322 0.077 0.1414 0.061 0.2981 0.1211 0.4342 0.1777 0.081 0 0.1615 0.056 0.2471 0.085 0.1866 0.085 0.3837 0.1615 0.5755 0.2423 0.101 0.04 0.1866 0.085 0.2827 0.1211 0.1111 0.057 0.227 0.1091 0.3482 0.1495 0.1009 0.048 0.212 0.1009 0.3077 0.1453 0.1062 0.057 0.2068 0.101 0.3081 0.1575 2.5039 1.2318 4.8109 2.8726 6.9463 4.8616 0.7875-0.8279 1.6103-1.5702 2.4635-2.2365-4.6696-3.3116-9.96-5.1996-16.063-5.1996-0.7068 0-1.4135 0.04-2.1303 0.093"/>
  <path style="fill:#5ec5ed" d="m1042.5 1844.6c1.3075 1.2164 2.5594 2.5746 3.7457 4.0386 1.1459-0.7976 2.2818-1.565 3.4227-2.2818-1.4943-1.4943-3.0693-2.8371-4.71-3.9933-0.8531 0.6615-1.6709 1.4086-2.4584 2.2365"/>
  <g transform="matrix(5.0481 0 0 -5.0481 -9064.3 2270.6)">
   <path style="fill:url(#b)" d="m1998.9 85.842c0.142 0.012 0.282 0.017 0.422 0.017 1.209 0 2.257-0.374 3.182-1.029 0.976 0.77 2.156 1.039 3.795 1.039h-7.937c0.183 0 0.362-0.011 0.538-0.027"/>
  </g>
  <g transform="matrix(5.0481 0 0 -5.0481 -9064.3 2270.6)">
   <path style="fill:url(#c)" d="m2006.3 85.869c-1.639 0-2.819-0.269-3.795-1.039 0.324-0.229 0.636-0.495 0.932-0.791 1.359 0.864 2.705 1.436 4.032 1.686 0.506 0.095 1.011 0.144 1.509 0.144z"/>
  </g>
  <path style="fill:url(#q)" d="m1162.3 1907.8c3.5589-10.975 7.6327-24.296 12.686-40.456 4.5535-14.559 12.615-25.443 27.755-30.193 0.3999-0.813 0.7775-1.651 1.1664-2.474-24.681 1.4793-36.216 14.034-42.021 32.626-10.152 32.46-16.3 53.5-22.222 66.908 7.5621-7.229 15.124-16.104 22.636-26.412"/>
 </g>
</svg>
