<?xml version="1.0" encoding="UTF-8"?>
<svg xmlns="http://www.w3.org/2000/svg" viewBox="0 0 70 70">
	<defs>
		<linearGradient id="a" gradientUnits="userSpaceOnUse" x1="22.254" y1="15.137" x2="45.654" y2="15.137">
			<stop offset="0" stop-color="#ED358C"/>
			<stop offset=".155" stop-color="#E9388C"/>
			<stop offset=".297" stop-color="#DE418C"/>
			<stop offset=".433" stop-color="#CC508C"/>
			<stop offset=".566" stop-color="#B2658D"/>
			<stop offset=".697" stop-color="#90808D"/>
			<stop offset=".826" stop-color="#67A18E"/>
			<stop offset=".951" stop-color="#37C78F"/>
			<stop offset="1" stop-color="#22D88F"/>
		</linearGradient>
		<linearGradient id="b" gradientUnits="userSpaceOnUse" x1="17.8" y1="8.982" x2="7.505" y2="78.065">
			<stop offset=".091" stop-color="#22D88F"/>
			<stop offset=".903" stop-color="#029DE0"/>
		</linearGradient>
		<linearGradient id="c" gradientUnits="userSpaceOnUse" x1="63.836" y1="6.492" x2="-6.583" y2="80.865">
			<stop offset=".091" stop-color="#22D88F"/>
			<stop offset=".903" stop-color="#029DE0"/>
		</linearGradient>
		<linearGradient id="d" gradientUnits="userSpaceOnUse" x1="40.114" y1="49.366" x2="66.875" y2="53.171">
			<stop offset=".091" stop-color="#22D88F"/>
			<stop offset=".903" stop-color="#029DE0"/>
		</linearGradient>
	</defs>
	<path fill="url(#a)" d="M26.9 28.4l-4.6 1.9L26.4 0l16.2 8.8"/>
	<path fill="url(#b)" d="M24.3 42l2.4-42L6.5 12.7 0 51.5"/>
	<path fill="url(#c)" d="M68.6 21l-9-18.3-17 6.1-12.5 13.9L0 51.5 22.7 68l28.5-25.7"/>
	<path fill="url(#d)" d="M29.4 29.9l-3.9 24 16 12.3L59 70l11-25"/>
	<path fill="#000" d="M13.4 13.4h43.2v43.2H13.4z"/>
	<path fill="#FFF" d="M17.5 48.5h16.2v2.7H17.5zM17.2 28.1c0-5.1 3.8-9.3 9.3-9.3 3.4 0 5.4 1.1 7.1 2.8l-2.5 2.9c-1.4-1.3-2.8-2-4.6-2-3 0-5.2 2.5-5.2 5.6V28c0 3.1 2.1 5.6 5.2 5.6 2 0 3.3-.8 4.7-2.1l2.5 2.5c-1.8 2-3.9 3.2-7.3 3.2-5.3.1-9.2-4-9.2-9.1M36.4 19.1h3.9v14.6h7.8V37H36.4V19.1z"/>
</svg>