<?xml version="1.0" encoding="UTF-8"?>
<svg xmlns="http://www.w3.org/2000/svg" width="415.85" height="110.53" viewBox="0 0 415.84906 110.52674">
	<path fill="#231f20" d="m370.79 15.092v69.609c0 7.977 2.39 14.275 7.24 18.899 4.84 4.62 10.75 6.93 17.78 6.93 7.02 0 13.69-2.9 20.04-8.7l-7.63-14.273c-2.62 3.446-5.86 5.168-9.67 5.168-1.99 0-3.77-0.797-5.22-2.383-1.45-1.582-2.28-3.78-2.28-6.59v-32.188h10.45l11.14-16.21h-21.59v-20.262h-20.26zm-231.02 0.002v94.556h31.89c18.13 0 31.61-4.33 40.44-12.935 8.83-8.607 13.25-20.317 13.25-35.09 0-14.77-4.53-26.136-13.59-34.426-9.06-8.292-22.07-12.106-39.01-12.105h-32.98zm20.26 17.56h12.18c10.78 0 18.77 2.651 23.99 7.68 5.2 5.029 7.81 12.353 7.81 21.682 0 9.336-2.61 16.463-7.81 21.357-5.22 4.892-12.67 7.367-22.36 7.367h-13.81v-58.086zm110.71 2.434c-12.32 0-23.3 3.489-32.9 10.467l9.09 13.185c2.72-2.085 6.02-3.826 9.96-5.232 3.94-1.402 7.62-2.104 11.15-2.104 8.25 0 12.25 3.897 12.25 11.688v0.631h-14.98c-9.43 0-16.86 1.746-22.3 5.461-5.44 3.717-8.16 9.199-8.16 16.673 0 7.477 2.61 13.459 7.86 17.943 5.26 4.49 11.74 6.73 19.48 6.73 7.75 0 14.04-3.31 19.45-9.92v9.04h18.91v-46.834c0-9.605-2.63-16.628-8.24-21.066-5.63-4.441-12.69-6.662-21.57-6.662zm87.89 0.004c-4.05 0.092-8.69 1.178-12.64 3.263-3.93 2.084-7.62 4.623-10.32 7.612v-9.262h-20.26v72.945h20.26v-31.879c0-7.066 1.78-12.749 4.76-17.054 2.99-4.304 7.8-6.451 13.87-6.451v0.002h4.33v-19.176zm-91.01 43.49h12.67v2.998c0 3.714-1.33 6.715-4.09 8.936-2.77 2.218-5.91 3.363-9.53 3.363-3.63 0-6.42-0.635-8.37-2.039-1.94-1.406-2.91-3.287-2.91-5.914 0-5.075 4.07-7.344 12.23-7.344z"/>
	<path fill="#00c4b3" d="m58.432 0.0058594c-1.141-0.047918-2.157 0.24741-2.883 0.92578l-32.973 21.83 51.067-0.012 2.533 0.094c1.139 0.032 2.404 0.242 3.722 0.576l-2.781-7.873-12.697-12.61c-1.836-1.8164-4.087-2.8513-5.988-2.9311zm-35.856 22.756l0.028 51.234 0.085 2.391c0.032 1.132 0.25 2.401 0.592 3.717l56.155 19.804 14.033-6.219 0.011-0.019-63.814-63.816-7.09-7.092z"/>
	<path fill="#22d3c5" d="m23.282 80.104h0.005c-0.005-0.021-0.013-0.045-0.024-0.071 0.011 0.026 0.011 0.05 0.019 0.071zm70.198 13.566m-0.01 0.02-14.034 6.218-56.148-19.804c1.071 4.118 3.448 8.749 6 11.276l18.321 18.221 40.757 0.052 5.116-15.982z"/>
	<path fill="#0075c9" d="m73.643 22.75l-50.875 0.012h-0.192l0.115 0.115-21.755 32.857c-1.8124 1.937-0.91069 5.931 2.0093 8.873l12.604 12.705 7.922 2.792c-0.343-1.315-0.558-2.585-0.59-3.717l-0.088-2.391-0.025-51.043 70.72 70.717h0.006l6.229-14.051-19.825-56.199c-1.317-0.334-2.583-0.544-3.722-0.576l-2.533-0.094z"/>
	<path fill="#00a8e1" d="m79.832 23.409c0.023 0.008 0.047 0.013 0.066 0.019v-0.006c-0.023-0.005-0.043-0.005-0.066-0.013zm11.334 6.028c-2.578-2.596-7.142-4.954-11.268-6.01l19.824 56.193-6.229 14.05h-0.006l15.218-4.862 0.032-41.723z"/>
</svg>