<?xml version="1.0" encoding="UTF-8" standalone="no"?>
<svg xmlns:rdf="http://www.w3.org/1999/02/22-rdf-syntax-ns#" xmlns="http://www.w3.org/2000/svg" enable-background="new 0 0 612 792" xml:space="preserve" height="102.21" viewBox="0 0 109.2 102.206" width="109.2" version="1.1" y="0px" x="0px" xmlns:cc="http://creativecommons.org/ns#" xmlns:dc="http://purl.org/dc/elements/1.1/"><path fill="#2c2255" d="m30.054 65.21h-16.744c2.217 7.605 6.331 14.421 12.354 20.445 9.602 9.603 21.148 14.398 34.65 14.398 2.699 0 5.314-0.201 7.854-0.584 10.17-1.535 19.074-6.133 26.703-13.814 6.062-6.022 10.205-12.84 12.439-20.445h-16.731z"/><g fill="#2c2255" transform="translate(-71.07 -327.73)"><path d="m91.891 370.19h-8.747c-0.32 1.922-0.538 3.884-0.637 5.896h97.757c-0.1-2.012-0.318-3.974-0.641-5.896"/><path d="m82.507 381.56c0.099 2.013 0.316 3.975 0.637 5.896h96.481c0.322-1.921 0.542-3.883 0.642-5.896"/></g><path fill="#2c2255" d="m107.31 36.992c-2.232-7.626-6.376-14.474-12.441-20.54-7.609-7.609-16.488-12.174-26.625-13.71-2.564-0.389-5.205-0.593-7.932-0.593-13.502 0-25.049 4.769-34.65 14.303-6.025 6.066-10.141 12.914-12.357 20.54"/><g transform="translate(-71.07 -327.73)"><path fill="#f7941e" d="m79.6 378.83c0-25.824 19.395-47.281 44.626-51.055-0.626-0.023-1.255-0.048-1.887-0.048-28.314 0-51.269 22.88-51.269 51.103 0 28.224 22.954 51.103 51.269 51.103 0.634 0 1.263-0.024 1.891-0.047-25.235-3.78-44.63-25.24-44.63-51.06z"/></g><g transform="translate(-71.07 -327.73)"><linearGradient id="c" y2="432.21" gradientUnits="userSpaceOnUse" x2="131.39" gradientTransform="matrix(1,0,0,-1,0,793)" y1="358.58" x1="131.39"><stop stop-color="#473788" offset=".3033"/><stop stop-color="#2C2255" offset=".872"/></linearGradient><path fill="url(#c)" d="m164.65 376.09c-0.164-2.021-0.504-3.992-1.012-5.896h-64.51c-0.508 1.903-0.849 3.874-1.013 5.896z"/><linearGradient id="b" y2="432.21" gradientUnits="userSpaceOnUse" x2="131.39" gradientTransform="matrix(1,0,0,-1,0,793)" y1="358.58" x1="131.39"><stop stop-color="#473788" offset=".3033"/><stop stop-color="#2C2255" offset=".872"/></linearGradient><path fill="url(#b)" d="m164.65 381.56h-66.531c0.164 2.021 0.503 3.992 1.012 5.896h64.511c0.508-1.904 0.847-3.875 1.011-5.896z"/><linearGradient id="a" y2="432.21" gradientUnits="userSpaceOnUse" x2="131.39" gradientTransform="matrix(1,0,0,-1,0,793)" y1="358.58" x1="131.39"><stop stop-color="#473788" offset=".3033"/><stop stop-color="#2C2255" offset=".8631"/></linearGradient><path fill="url(#a)" d="m131.39 412.22c13.397 0 24.945-7.893 30.263-19.281h-60.526c5.318 11.388 16.866 19.281 30.263 19.281z"/></g><g fill="#fff" transform="translate(-71.07 -327.73)"><path d="m93.188 381.56h87.01c0.046-0.871 0.072-1.748 0.072-2.631 0-0.955-0.035-1.902-0.089-2.845h-97.673c-0.054 0.942-0.089 1.89-0.089 2.845 0 0.883 0.026 1.76 0.072 2.631z"/><path d="m100.93 364.72h-16.554c-0.544 1.783-0.895 3.612-1.232 5.476h96.17c-0.338-1.863-0.773-3.692-1.316-5.476"/><path d="m173.03 387.46h-89.883c0.328 1.863 0.701 3.691 1.236 5.476h93.939c0.534-1.784 0.965-3.612 1.294-5.476z"/></g></svg>
