<?xml version="1.0" encoding="UTF-8" standalone="no"?>
<svg xmlns:rdf="http://www.w3.org/1999/02/22-rdf-syntax-ns#" xmlns="http://www.w3.org/2000/svg" xml:space="preserve" height="510.94" viewBox="0 0 511.13226 510.94391" width="511.13" version="1.1" xmlns:cc="http://creativecommons.org/ns#" xmlns:xlink="http://www.w3.org/1999/xlink" xmlns:dc="http://purl.org/dc/elements/1.1/"><defs><radialGradient id="a" gradientUnits="userSpaceOnUse" cy="-60.088" cx="29.005" gradientTransform="matrix(-1.6781 .81796 -.85979 -1.7639 150.75 -63.746)" r="255.57"><stop stop-color="#6a6963" offset="0"/><stop stop-color="#3a3a38" offset=".62778"/><stop stop-color="#191917" offset="1"/></radialGradient></defs>
<rect height="510.94" width="511.13" y="0" x="0" fill="url(#a)"/>
<path d="m259.72 196.81h41.597c1.9454 0.0399 3.4704 0.83666 4.375 2.75l24.758 53.725h4.5l25.992-54.1c0.78011-1.5923 2.2199-2.4559 4.375-2.375h35.755c1.4015 0 3.3207 1.6888 2.1999 3.6999l-44.25 76.452 48.062 80.353c1.4973 2.5032 1.5867 4.6217-1.5749 4.6217h-43.569c-1.7979 0.11963-2.9726-0.74005-3.7509-2.2227l-26.794-53.84-5.4062 0.0156-25.674 54.075c-0.96877 1.9806-2.6131 1.9345-4.2298 1.9714h-38.138c-1.4265 0-2.1816-1.2084-1.4264-2.4186l46.667-77.561-46.042-82.572c-0.80508-1.4439-0.59273-2.5724 2.5749-2.5749 0.47348 0 0 0.00002 0 0.00002zm-145.84-66.94c-0.17831 0-0.36333 0.0283-0.53125 0.0625-0.51202 0.10424-0.92983 0.36064-1.2812 0.71875-0.10958 0.11167-0.22468 0.21354-0.3125 0.34375-0.005 0.007 0.005 0.0245 0 0.0312-0.0861 0.13052-0.18852 0.26042-0.25 0.40625-0.004 0.008 0.004 0.023 0 0.0312-0.12302 0.30119-0.1875 0.62228-0.1875 0.96875-0.00012 0.0104 0 0.0208 0 0.0312v226.88c0 1.4265 1.136 2.5625 2.5625 2.5625h37.594c1.4265 0 2.5625-1.136 2.5625-2.5625v-92.594h76.531c1.4265 0 2.5938-1.136 2.5938-2.5625v-30.812c0-1.4265-1.1673-2.5625-2.5938-2.5625h-76.531v-65.688h85.719c1.4265 0 2.7561-1.1805 2.5625-2.5938l-4.125-30.062c-0.1936-1.4133-1.136-2.5625-2.5625-2.5625h-83.875c-0.0916-0.01-0.18692-0.0312-0.28125-0.0312h-37.594z" fill="#fff"/></svg>
