<?xml version="1.0" encoding="UTF-8"?>
<svg xmlns="http://www.w3.org/2000/svg" viewBox="0 0 360 424">
	<path fill="#fba919" d="M97.453 20.535c-17.242-.13-34.3 4.584-34.3 4.584l14.89 9.407c1.575-.05 4.33-.03 8.883.123 18.688.62 21.564 19.105 21.564 19.105l24.623-3.39c-16.997 7.73-26.71 17.12-26.71 17.12s-13.93-4.916-26.224 0c-12.295 4.92-14.745 0-12.288 13.935 0 0 5.736 22.127 6.554 29.504.82 7.375-14.752 23.765-14.752 31.96S62.97 165.83 81 173.208c18.033 7.376 20.49 26.225 20.49 37.7 0 11.474-6.555 33.6-6.555 33.6s-4.096 54.907 18.03 64.74c22.124 9.834 17.21 9.833 22.124 9.833 4.915 0 40.974 14.757 62.28 9.02 21.308-5.738 27.04-12.294 27.04-12.294s21.31 1.638 27.866-17.213c6.56-18.847 10.654-58.184 8.195-76.215-2.458-18.032-5.735-41.793 9.015-49.99 14.755-8.196 30.324-18.028 27.865-26.225-2.46-8.196-15.568-19.67-15.568-19.67s-3.278-20.486-.82-25.404c2.456-4.918 17.21-17.215 9.013-26.228-8.19-9.014-22.947-9.014-22.947-9.014l-18.848 1.637s-10.143-9.098-26.47-16.754l21.964 3.025s2.876-18.484 21.56-19.105c4.56-.152 7.313-.175 8.888-.124l14.893-9.408s-17.06-4.713-34.3-4.584c-17.245.128-28.065 11.584-31.884 17.312-3.815 5.726-11.452 6.998-11.452 6.998l-4.926-.023c-9.607-2.95-20.436-4.833-32.027-4.378-9.69.38-18.53 2.047-26.414 4.37l-7.226.032s-7.633-1.272-11.453-6.998c-3.82-5.728-14.635-17.184-31.878-17.312z"/>
	<path fill="#e78724" d="M83.207 30.8c-4.659-.04-7.945.6-7.945.6 10.976 2.386 9.066 8.113 11.93 20.522 2.864 12.41 12.19 16.734 12.19 16.734l19.308-15.302s-3.335-7.162-14.793-16.23C97.454 32.025 89.2 30.85 83.21 30.8zm185.75 0c-5.99.05-14.245 1.224-20.69 6.325-11.452 9.067-14.794 16.23-14.794 16.23l19.305 15.3s9.333-4.324 12.197-16.734c2.862-12.407.954-18.133 11.93-20.52 0 0-3.288-.64-7.947-.6zm-134.78 19.274c-12.645 6.424-29.967 15.37-29.967 15.37l6.816 3.41c-.65 1.055-.964 1.683-.964 1.683l6.998 3.183s17.084 12.374 27.55 20.33c-3.49-10.746-13.733-27.627-13.733-27.627s-2.904-7.757 3.3-16.35zm83.8 0c6.206 8.592 3.298 16.35 3.298 16.35s-10.244 16.88-13.73 27.627c10.467-7.955 27.55-20.33 27.55-20.33l7-3.183s-.315-.627-.966-1.68l6.815-3.413s-17.326-8.945-29.967-15.37zM77.648 96.707s.478 24.34-2.384 29.115c-.773 1.286-1.51 2.32-2.242 3.28-.36-3.034-1.614-4.636-1.614-4.636s-16.838 12.57-12.547 25.932c2.636 8.202 7.06 14.14 31.353 25.525 6.088 11.308 6.46 27.31 5.515 40.07-.588 4.244-3.093 22.2-4.503 29.44 4.378.878 8.064-1.702 13.365.478 1.27-3.5 5.725-17.66 7.156-30.544 1.715-15.432 1.092-38.004 1.092-38.004s-2.042 7.887-4.444 13.074c-.41-10.915-1.923-24.567-13.73-28.883 0 0-16.198-5.576-22.59-12.688 2.57-2.086 6.82-7.246 8.44-19.227 2.385-17.66-2.866-32.934-2.866-32.934zm196.87 0s-5.25 15.274-2.864 32.934c1.617 11.976 5.866 17.138 8.435 19.226-6.39 7.112-22.588 12.69-22.588 12.69-11.81 4.315-13.322 17.97-13.73 28.888-2.4-5.187-4.443-13.08-4.443-13.08s-.63 22.572 1.086 38.004c1.435 12.885 5.888 27.043 7.16 30.545 5.302-2.18 8.984.4 13.36-.477-1.407-7.227-3.9-25.105-4.497-29.398-.948-12.768-.583-28.793 5.512-40.113 24.293-11.385 28.717-17.323 31.354-25.525 4.295-13.362-12.547-25.932-12.547-25.932s-1.253 1.6-1.614 4.633c-.728-.957-1.466-1.992-2.237-3.276-2.865-4.774-2.385-29.115-2.385-29.115zm-119.73 9.763s8.313 14.572 21.288 14.572l.012-1.846.01 1.846c12.976 0 21.287-14.572 21.287-14.572-6.348 4.562-14.814 4.74-21.297 4.74-6.49 0-14.95-.178-21.3-4.74zm-49.374 1.94c-12.626.255-18.658 4.746-18.658 4.746s27.18 1.152 35.014 11.44c2.853 3.748 5.965 6.813 9.147 9.3 2.66 1.093 4.674 2.016 5.58 2.56 1.062.637 2.336 1.716 3.622 3.07 9.925 4.557 18.814 4.163 20.91 1.57-3.933.197-8.26-1.752-12.892-6.132-2.894-2.74-5.24-7.204-7.588-10.537-7.397-10.5-19.587-15.08-29.32-15.84-2.075-.163-4.013-.212-5.817-.176zm34.705 31.116c-3.026-1.39-6.146-3.24-9.2-5.63-11.342-4.657-34.513-12.397-34.513-6.985 0 6.683 1.91 30.548 20.523 37.228 7.11 2.553 12.96 2.385 17.484 1.207-1.126 11.27-5.483 15.852-5.483 15.852s11.09-3.5 14-10.533c2.68-6.47 7.572-18.676 7.572-18.676l-3.807-.53c-.798-4.474-3.72-8.92-6.578-11.93zm106.64-31.115c-1.804-.035-3.742.015-5.816.177-9.737.76-21.923 5.34-29.32 15.84-2.347 3.333-4.693 7.797-7.586 10.537-4.63 4.38-8.96 6.33-12.893 6.133 2.097 2.593 10.99 2.987 20.918-1.574 1.286-1.353 2.558-2.43 3.618-3.067.905-.543 2.915-1.464 5.568-2.554 3.184-2.49 6.297-5.555 9.153-9.305 7.834-10.29 35.015-11.44 35.015-11.44s-6.03-4.492-18.656-4.745zm-25.512 25.49c-3.05 2.386-6.165 4.235-9.186 5.622-2.86 3.012-5.786 7.46-6.586 11.935l-3.806.53s4.892 12.207 7.568 18.677c2.91 7.034 14 10.533 14 10.533s-4.356-4.58-5.482-15.852c4.524 1.178 10.378 1.346 17.492-1.207 18.615-6.682 20.523-30.545 20.523-37.227 0-5.414-23.188 2.333-34.524 6.99zm-78.467 69.536s-16.23 24.814-28.134 42.424c-1.842 2.724 11.904 2.914 11.904 2.914zm66.616 0l16.225 45.338s13.75-.19 11.91-2.914c-11.91-17.61-28.134-42.424-28.134-42.424zm-47.328 75.012l-33.645.422s3.575 21.854 17.893 21.854c12.167 0 15.752-18.46 15.752-22.275zm28.04 0c0 3.815 3.584 22.275 15.75 22.275 14.313 0 17.894-21.854 17.894-21.854zm-65.944 13.754l6.074 14.79c2.292 6.39 26.707 26.242 45.803 26.308v.004l.05-.002.047.002v-.004c19.092-.065 43.51-19.918 45.8-26.307l6.07-14.79s-13.142 19.69-51.917 19.728c-38.783-.035-51.926-19.728-51.926-19.728z"/>
	<path fill="#fff" d="M226.39 261.02c.57-3.273.624-6.377-.066-9.427 2.758-2.07 7.696-2.84 11.404-4.04 3.032-1.92 18.552 1.966 29.81-11.657 14.103-17.06 11.13-27.244 11.13-27.244 3.62 4.018 7.122 2.487 12.638 21.22 5.52 18.74-2.595 31.802-17.712 44.916-7.14 6.195-17.238 8.747-25.922 9.724 2.91-2.92-4.97-3.213-10.396-5.245.434-4.384-.295-8.64-3.563-12.067-1.967-2.066-4.507-3.3-7.136-4.285-.148-.34-.275-.654-.41-.98.086-.298.168-.6.223-.915zm-21.37-114.08s8.91 8.91 22.59 6.044c13.684-2.862 21.957-8.908 22.594-19.41.635-10.5-2.863-14.635-2.863-14.635s-15.274 4.775-22.592 11.14-12.726 16.543-19.728 16.86zm-79.24 114.07c-.565-3.273-.624-6.377.067-9.427-2.754-2.07-7.696-2.84-11.404-4.04-3.032-1.92-18.548 1.966-29.805-11.657-14.104-17.06-11.136-27.244-11.136-27.244-3.616 4.018-7.12 2.487-12.633 21.22-5.52 18.74 2.59 31.802 17.707 44.916 7.142 6.195 17.238 8.747 25.922 9.724-2.91-2.92 4.968-3.213 10.398-5.245-.433-4.384.292-8.64 3.56-12.067 1.972-2.066 4.508-3.3 7.14-4.285.146-.34.27-.654.41-.98-.087-.298-.172-.6-.227-.915zm21.375-114.07s-8.91 8.91-22.593 6.044c-13.683-2.862-21.957-8.908-22.593-19.41-.637-10.5 2.865-14.635 2.865-14.635s15.27 4.775 22.593 11.14c7.318 6.36 12.726 16.543 19.727 16.86z"/>
	<path fill="#463014" d="M135.96 322.37c-36.238-2.79-48.988-37.03-48.988-44.16l9.464.004-4.732-.004h4.732c.047 3.083 9.678 32.375 40.25 34.726zm80.246 0l-.726-9.435c30.565-2.35 40.196-31.643 40.246-34.726h9.464c.004 7.13-12.75 41.375-48.984 44.16z"/>
	<path fill="#c9c9c9" d="M237.34 279.15c.318-.92.55-1.858.784-2.802.255-1.03 1.505-3.952-.038-.617.396-.853.655-1.733.846-2.62 24.482-.03 45.78-16.84 41.662-52.18 3.205-4.254 7.696 8.58 7.696 8.58s12.257 35.59-19.397 49.382c-10.547 4.6-19.867 7.897-22.067 6.566-4.585.93-8.72-2.263-10.267-4.363.288-.645.56-1.29.78-1.945zm-21.546-135.39s7.73 3.53 16.364.655c11.31-3.77 12.062-15.53 12.062-15.53s6.932 20.355-12.514 24.273c-15.594 3.142-24.82-5.896-24.82-5.896zm-100.98 135.39c-.314-.92-.55-1.858-.784-2.802-.25-1.03-1.5-3.952.04-.617-.396-.853-.655-1.733-.846-2.62-24.482-.03-45.78-16.84-41.666-52.18-3.205-4.254-7.693 8.58-7.693 8.58S51.61 265.1 83.263 278.893c10.547 4.6 19.868 7.897 22.067 6.566 4.58.93 8.716-2.263 10.267-4.363-.29-.645-.556-1.29-.783-1.945zm21.547-135.39s-7.726 3.53-16.363.655c-11.306-3.77-12.06-15.53-12.06-15.53s-6.935 20.355 12.51 24.273c15.598 3.142 24.822-5.896 24.822-5.896z"/>
	<path fill="#463014" d="M39.65 352.05c-5.934 0-11.395.888-16.23 2.64-4.85 1.76-9.048 4.264-12.478 7.442-3.443 3.184-6.125 7.025-7.973 11.418C1.124 377.927.19 382.786.19 388.003c0 5.127.978 9.95 2.908 14.332 1.93 4.38 4.633 8.215 8.03 11.408 3.39 3.19 7.455 5.726 12.09 7.533 4.623 1.802 9.715 2.72 15.14 2.72 2.98 0 5.804-.14 8.397-.425 2.603-.28 5.1-.733 7.424-1.34 2.322-.603 4.543-1.386 6.606-2.334 2.062-.943 4.07-2.088 5.967-3.395.347-.235.55-.627.55-1.046v-28.666c0-.7-.567-1.27-1.27-1.27H40.347c-.703 0-1.273.57-1.273 1.27v11.47c0 .705.57 1.273 1.273 1.273h9.243v8.143c-1.283.456-2.64.836-4.052 1.13-1.688.353-3.668.532-5.887.532-2.865 0-5.54-.482-7.942-1.43-2.383-.937-4.468-2.32-6.194-4.105-1.738-1.792-3.124-4.026-4.113-6.648-1-2.64-1.507-5.718-1.507-9.15 0-3.1.46-5.943 1.363-8.448.897-2.485 2.188-4.64 3.827-6.396 1.633-1.752 3.646-3.13 5.978-4.096 2.346-.975 5.037-1.463 8-1.463 1.633 0 3.118.07 4.413.22 1.287.146 2.523.39 3.672.707 1.155.326 2.3.747 3.404 1.257 1.158.537 6.55 3.61 7.802 4.313.856.48 1.383.51 1.955-.3l7.268-10.612c.37-.52.29-1.246-.192-1.674-1.514-1.352-3.25-2.62-5.154-3.776-1.907-1.15-4.042-2.16-6.35-2.996-2.29-.83-4.823-1.493-7.53-1.97-2.71-.478-5.636-.718-8.7-.718zm108.51.748c-.702 0-1.27.57-1.27 1.27v40.223c0 4.315.75 8.335 2.227 11.948 1.484 3.636 3.655 6.814 6.455 9.443 2.79 2.623 6.226 4.69 10.205 6.142 3.954 1.44 8.47 2.17 13.43 2.17 4.924 0 9.424-.73 13.383-2.17 3.98-1.452 7.407-3.52 10.2-6.14 2.8-2.632 4.982-5.805 6.482-9.437 1.495-3.62 2.252-7.643 2.252-11.953v-40.225c0-.7-.567-1.267-1.27-1.267h-16.762c-.704 0-1.27.567-1.27 1.27v40.224c0 2.24-.306 4.257-.902 5.998-.585 1.698-1.434 3.15-2.525 4.32-1.09 1.16-2.443 2.066-4.03 2.692-3.223 1.272-7.893 1.272-11.118 0-1.582-.626-2.936-1.536-4.024-2.71-1.094-1.185-1.944-2.647-2.53-4.353-.593-1.73-.9-3.75-.9-5.995v-40.178c0-.7-.567-1.27-1.27-1.27zm-66.95.002c-.703 0-1.27.568-1.27 1.27v67.912c0 .698.567 1.27 1.27 1.27h16.763c.702 0 1.27-.57 1.27-1.27v-23.857h2.996c1.335 0 2.05.23 2.41.418.5.263.957.734 1.364 1.396l12.004 19.724c1.463 2.384 3.864 3.588 7.13 3.588h15.18c.016.002.032 0 .04 0 .705 0 1.273-.57 1.273-1.27 0-.365-.153-.694-.4-.925l-15.23-23.39c-.792-1.225-1.744-2.282-2.827-3.145-.343-.273-.69-.53-1.05-.775 1.48-.683 2.85-1.48 4.08-2.373 1.9-1.376 3.527-2.963 4.837-4.723 1.32-1.77 2.326-3.72 2.994-5.8.667-2.078 1.002-4.303 1.002-6.633 0-3.05-.57-5.917-1.69-8.523-1.142-2.644-2.985-4.962-5.474-6.89-2.455-1.894-5.64-3.386-9.467-4.438-3.78-1.033-8.39-1.555-13.7-1.555zm193.21 0c-.702 0-1.27.568-1.27 1.27v35.938c0 1.075.03 2.216.093 3.427l-31.79-37.78c-.513-.58-.966-1.043-1.365-1.385-.466-.396-.96-.704-1.463-.92-.503-.218-1.067-.365-1.687-.443-.536-.068-1.205-.1-1.993-.1h-8.83c-.698 0-1.267.566-1.267 1.268v67.912c0 .698.568 1.27 1.267 1.27h14.78c.702 0 1.275-.57 1.275-1.27v-36.4c0-.904-.027-1.854-.082-2.87l31.553 37.472c.957 1.146 1.988 1.96 3.07 2.413 1.044.434 2.313.654 3.763.654h8.728c.7 0 1.27-.57 1.27-1.27v-67.91c0-.706-.567-1.275-1.267-1.275zm26.68 0c-.702 0-1.274.568-1.274 1.27v12.49c0 .7.572 1.273 1.273 1.273h19.06v54.148c0 .7.572 1.27 1.274 1.27h16.758c.702 0 1.274-.57 1.274-1.27v-54.147h19.06c.7 0 1.272-.573 1.272-1.273v-12.49c.003-.702-.57-1.27-1.27-1.27zM99.24 367.13h5.476c4.01 0 6.968.753 8.794 2.234 1.77 1.438 2.63 3.4 2.63 6.004.002 1.34-.208 2.6-.62 3.743-.397 1.11-1.022 2.05-1.902 2.883-.894.834-2.062 1.502-3.482 1.98-1.463.498-3.287.75-5.42.75H99.24zM190.57 0c-19.27 6.807-24.15 17.197-25.594 26.62-4.957-3.547-4.406-15.086-4.68-18.044-4.926.588-19.08 14.32-18.445 31.62-1.296.352-2.577.73-3.848 1.126-4.126-5.608-16.27-20.54-32.285-25.705-5.275-1.704-10.577-2.565-15.752-2.565-18.984 0-30.192 11.316-30.29 11.432L54.358 30.7l8.022 1.573c.13.027 13.478 2.82 19 11.54.917 1.45 1.162 4.32 1.417 7.363.156 1.81-.23 3.57-.594 5.277-.275 1.268-.54 2.552-.598 3.846-5.01.182-9.314 1.167-12.79 2.946-4.712 2.41-7.903 6.258-9.23 11.12-3.25 11.922 7.335 25.196 7.696 25.62 1.235 2.203 1.758 18.206-1.093 24.61-.392.885-1.467 1.753-2.828 2.85-.427.346-.904.704-1.41 1.087-4.02 3.036-10.103 7.624-10.103 18.197 0 14.467 14.662 22.31 26.445 28.617 1.933 1.04 3.777 2.023 5.445 2.984 1.76 1.018 7.97 7.448 7.973 17.062 0 4.505-.42 25.94-2.422 40.805-7.558-6.48-14.526-16.907-16.09-28.605 0 0-19.124 14.758-13.504 46.346 5.102 28.69 28.49 38.676 55.635 40.78 9.095 21.202 23.53 40.238 60.706 40.27v.003c.016 0 .03-.003.047-.003.015 0 .03.004.047.004v-.003c37.17-.032 51.606-19.065 60.703-40.268 27.143-2.104 50.532-12.09 55.64-40.782 5.62-31.588-13.507-46.346-13.507-46.346-1.564 11.696-8.53 22.122-16.086 28.602-2.003-14.864-2.424-36.297-2.42-40.8 0-9.615 6.21-16.045 7.97-17.062 1.664-.96 3.51-1.944 5.446-2.984 11.78-6.307 26.44-14.15 26.44-28.617 0-10.572-6.08-15.16-10.103-18.196-.51-.383-.982-.74-1.408-1.086-1.364-1.098-2.438-1.966-2.83-2.85-2.847-6.405-2.326-22.408-1.092-24.61.36-.425 10.947-13.7 7.697-25.62-1.328-4.863-4.518-8.71-9.232-11.12-3.478-1.78-7.777-2.765-12.787-2.948-.058-1.293-.318-2.574-.593-3.84-.37-1.705-.75-3.47-.6-5.28.26-3.043.5-5.91 1.417-7.36 5.527-8.723 18.873-11.515 19.006-11.542l8.02-1.572-5.315-6.217c-.096-.115-11.306-11.43-30.29-11.43-5.18 0-10.48.858-15.755 2.562-16.017 5.164-28.16 20.097-32.283 25.705-2.06-.64-4.152-1.23-6.28-1.76-2.737-10.338 5.858-25.172 5.858-25.172s-8.865-1.973-22.023 9.97c-1.7-4.242-5.28-13.41-1.15-24.357zM90.13 22.86c3.977 0 7.866.602 11.56 1.794 11.723 3.782 20.696 15.19 24.683 21.04-1.044.466-2.08.942-3.104 1.44-1.655.807-3.183 1.627-4.618 2.452-1.718-3.564-5.442-8.964-13.51-14.633C99.71 31.14 93.207 29.12 86.33 29.12c-2.387 0-4.43.243-6.008.516-2.148-1.432-4.328-2.588-6.343-3.496 3.107-1.318 8.948-3.28 16.15-3.28zm171.92.003c7.204 0 13.045 1.964 16.154 3.28-2.013.908-4.19 2.065-6.336 3.495-1.58-.274-3.628-.517-6.02-.517-6.878 0-13.382 2.02-18.81 5.833-8.07 5.673-11.794 11.074-13.512 14.637-1.436-.825-2.966-1.646-4.622-2.453-1.02-.498-2.055-.973-3.097-1.438 3.985-5.853 12.958-17.26 24.686-21.042 3.694-1.192 7.577-1.795 11.557-1.795zm2.17 13.73c-.526.674-1.027 1.376-1.494 2.113-2.167 3.422-2.522 7.607-2.864 11.652-.356 4.208-.698 8.203-2.87 11.11-2.725.514-5.282 1.13-7.51 1.747-1.476-2.05-3.67-4.588-6.86-7.3.87-2.98 3.464-10.456 8.858-14.745 3.59-2.86 7.88-4.387 12.74-4.578zm-176.25.002c4.86.192 9.145 1.718 12.734 4.576 5.387 4.285 7.983 11.754 8.855 14.74-3.192 2.713-5.387 5.252-6.864 7.304-2.226-.616-4.78-1.23-7.504-1.742-2.173-2.91-2.517-6.906-2.87-11.117-.345-4.043-.695-8.23-2.862-11.652-.467-.736-.966-1.435-1.49-2.108zm88.117 10.164c18.24.005 34.598 3.472 48.627 10.315 9.37 4.57 12.816 7.99 14.11 9.87-22.265 9.896-34.624 30.2-34.757 30.42l-2.274 3.804 3.637-2.53c.018-.01.112-.085.274-.21 5.683-4.475 25.495-19.48 41.914-24.684 4.59-1.455 13.502-3.898 21.527-3.898 4.092 0 7.408.638 9.867 1.897 2.322 1.19 3.75 2.87 4.37 5.136 1.62 5.937-4.017 14.77-6.12 17.397-.31.386-.59.862-.848 1.403-.22-3.027-.327-6.21-.22-9.4-2.624 5.726-4.26 20.612-3.336 28.16 2.352 19.16 10.29 29.007 10.29 29.007-.512-1.022-1.15-5.05-1.755-9.758.48.41.96.803 1.425 1.18l.32.26c2.986 2.407 5.81 4.675 5.81 11.933 0 9.277-10.05 14.71-19.77 19.963-1.875 1.01-3.733 2.015-5.51 3.037-5.674 3.27-11.792 10.942-12.475 22.37-.576 9.586.582 32.64 2.248 49.63-8.145 3.155-17.476 4.19-25.968 4.433-1.328-2.702-2.576-5.58-3.604-8.595-.437-1.28-12.81-33.407-17.262-40.726 3.583 25.602 11.478 48.257 15.38 58.63-2.26-.308-4.792-.487-7.66-.487l-38.19-.024h-.093c-11.005.008-38.193.024-38.193.024-2.87 0-5.4.18-7.662.488 3.904-10.374 11.8-33.03 15.383-58.63-4.454 7.318-16.827 39.446-17.263 40.726-1.028 3.017-2.276 5.894-3.603 8.596-8.49-.243-17.82-1.277-25.965-4.43 1.664-16.99 2.816-40.046 2.245-49.632-.684-11.43-6.802-19.1-12.477-22.37-1.777-1.023-3.636-2.027-5.506-3.038-9.72-5.252-19.77-10.686-19.77-19.963 0-7.257 2.82-9.526 5.806-11.932l.323-.26c.464-.376.943-.766 1.42-1.177-.607 4.705-1.24 8.732-1.753 9.754 0 0 7.94-9.847 10.293-29.008.924-7.548-.718-22.434-3.344-28.16.108 3.188 0 6.368-.22 9.394-.256-.538-.533-1.013-.84-1.397-2.104-2.627-7.738-11.46-6.118-17.396.617-2.265 2.042-3.946 4.365-5.136 2.458-1.26 5.78-1.896 9.868-1.896 8.03 0 16.937 2.443 21.532 3.898 16.42 5.204 36.23 20.21 41.91 24.684.163.125.258.2.275.21l3.635 2.53-2.274-3.806c-.13-.22-12.493-20.526-34.762-30.42 1.294-1.882 4.735-5.3 14.104-9.87 14.03-6.842 30.394-10.31 48.633-10.315zm-17.86 64.38s9.477 11.567 17.817 11.656v.008c.015 0 .03-.004.047-.004.016 0 .03.004.048.004v-.008c8.338-.09 17.82-11.656 17.82-11.656-6.51 3.94-12.32 5.305-17.865 5.426-5.546-.12-11.357-1.487-17.867-5.426zm-59.792.92c-.69-.016-1.39-.015-2.092.002-3.216.076-6.558.494-10.014 1.332 2.835.623 5.81 1.555 8.843 2.703-.022.01-.042.014-.065.023-2.68 1.18-4.18 4.505-4.554 7.744-.75 6.56 3.418 12.523 3.418 12.523.425-4.877 1.448-8.342 2.635-10.82.267 6.706 2.04 15.348 8.347 22.326 4.506 4.988 23.278 15.262 35.885 3.977.66 1.604 1.357 3.49 1.945 5.56 1.904 6.71-1.74 16.52-1.74 16.52s9.85-11.16 9.087-21.278c7.07-.31 14.018-5.505 13.822-12.766 0 0-12.333 6.808-23.23-5.725-5.393-6.2-20.863-21.643-42.29-22.12zm155.31 0c-21.427.477-36.9 15.92-42.293 22.12-10.897 12.534-23.227 5.725-23.227 5.725-.197 7.262 6.75 12.458 13.82 12.766-.764 10.12 9.088 21.278 9.088 21.278s-3.646-9.807-1.742-16.52c.588-2.066 1.286-3.95 1.946-5.554 12.604 11.282 31.375 1.008 35.88-3.98 6.31-6.98 8.083-15.625 8.35-22.33 1.188 2.477 2.214 5.944 2.64 10.823 0 0 4.164-5.964 3.41-12.523-.368-3.24-1.868-6.564-4.548-7.744-.022-.01-.042-.014-.064-.023 3.032-1.148 6.01-2.08 8.846-2.703-3.456-.838-6.798-1.257-10.014-1.332-.704-.017-1.4-.018-2.092-.002zm-144.64 10.62c12.774 7.183 24.502 16.795 29.385 24.226h-.002l.002.004c-3.663 2.153-14.08 6.92-24.832-1.07-6.805-5.06-6.494-17.225-4.553-23.16zm133.96.005c1.944 5.935 2.25 18.096-4.557 23.156-10.755 7.993-21.172 3.217-24.83 1.065 4.885-7.43 16.614-17.04 29.387-24.22zm-172.32 103.41c7.14 22.53 30.894 28.948 48.684 29.723-1.814 2.822-3.485 5.12-4.693 6.697-.28.274-.58.55-.83.818-4.724 5.1-5.62 12.118-2.683 20.84-14.76-.237-30.188-6.53-38.027-19.432-7.944-13.067-5.716-35.376-2.45-38.645zm210.67 0c3.265 3.27 5.494 25.578-2.445 38.646-7.844 12.9-23.272 19.195-38.03 19.433 2.937-8.722 2.04-15.74-2.68-20.84-.254-.273-.558-.555-.845-.834-1.207-1.58-2.874-3.87-4.68-6.685 17.79-.775 41.543-7.19 48.68-29.72zm-105.33 37.643c11.33.004 20.906.012 28.527.02l10.33.003c9.894 0 14.233 2.573 16.123 4.73 2.763 3.157 2.945 8.23.557 15.092-4.317 12.366-15.92 42.298-55.54 42.35-39.624-.052-51.22-29.983-55.538-42.35-2.39-6.86-2.208-11.938.558-15.092 1.89-2.156 6.23-4.73 16.12-4.73l10.333-.003c7.623-.007 17.194-.015 28.53-.02zm-25.195 10.074c-4.37 0-9.482 0-12.518.004l-2.55.004c-3.58 0-5.342 1.024-6.192 1.88-1.233 1.252-1.424 2.99-.575 5.163 2.277 5.81 7.44 10.555 8.967 11.87 1.995 1.728 4.874 2.75 7.694 2.75 2.89 0 5.453-1.04 7.214-2.923 4.918-5.258 7.822-10.914 8.524-12.652.403-.992.866-2.875-.576-4.357-1.123-1.147-3.077-1.738-5.8-1.738zm46.203 0c-2.724 0-4.673.59-5.797 1.738-1.442 1.482-.984 3.368-.582 4.358.703 1.738 3.612 7.395 8.53 12.652 1.76 1.884 4.32 2.923 7.212 2.923 2.82 0 5.692-1.023 7.692-2.75 1.527-1.315 6.69-6.06 8.968-11.87.85-2.176.656-3.914-.578-5.163-.85-.858-2.61-1.88-6.19-1.88l-2.548-.005c-3.038-.003-8.147-.004-12.516-.004z"/>
</svg>