<?xml version="1.0" encoding="UTF-8" standalone="no"?>
<svg xmlns:rdf="http://www.w3.org/1999/02/22-rdf-syntax-ns#" xmlns="http://www.w3.org/2000/svg" height="419.85" width="297.45" version="1.1" xmlns:cc="http://creativecommons.org/ns#" xmlns:dc="http://purl.org/dc/elements/1.1/" viewBox="0 0 297.45001 419.85101">
	<title>Slice 1</title>
	<description>Created with Sketch (http://www.bohemiancoding.com/sketch)</description>
	<g fill="none" transform="translate(-.313 -.135)">
		<path fill="#e44f26" d="m27.383 386.27-27.07-303.62h297.45l-27.098 303.57-121.81 33.769z"/>
		<path fill="#f1662a" d="m149.04 394.18 98.427-27.288 23.158-259.42h-121.59z"/>
		<path fill="#ebebeb" d="m149.04 220.08h-49.277l-3.404-38.132h52.679v-37.239h-93.375l0.892 9.991 9.152 102.62h83.331z"/>
		<path fill="#ebebeb" d="m149.04 316.79-0.163 0.046-41.472-11.199-2.652-29.698h-37.389l5.217 58.467 76.278 21.176 0.172-0.048z"/>
		<g fill="#010101">
			<path d="m27.988 0.135h18.924v18.696h17.311v-18.696h18.925v56.618h-18.924v-18.958h-17.31v18.958h-18.926z"/>
			<path d="m108.03 18.91h-16.658v-18.775h52.252v18.775h-16.66v37.843h-18.93v-37.843z"/>
			<path d="m151.92 0.135h19.733l12.137 19.894 12.127-19.894h19.739v56.618h-18.84v-28.063l-13.021 20.13h-0.325l-13.03-20.13v28.063h-18.51v-56.618z"/>
			<path d="m225.07 0.135h18.93v37.903h26.612v18.714h-45.54v-56.617z"/>
		</g>
		<path fill="#fff" d="m148.91 220.08v37.236h45.854l-4.322 48.294-41.532 11.21v38.742l76.34-21.158 0.559-6.29 8.751-98.035 0.908-9.999h-10.034z"/>
		<path fill="#fff" d="m148.91 144.71v37.239h89.947l0.747-8.37 1.696-18.878 0.891-9.991z"/>
	</g>
</svg>
