<?xml version="1.0" encoding="UTF-8" standalone="no"?>
<svg xmlns:rdf="http://www.w3.org/1999/02/22-rdf-syntax-ns#" xmlns="http://www.w3.org/2000/svg" version="1.1" xmlns:cc="http://creativecommons.org/ns#" xmlns:dc="http://purl.org/dc/elements/1.1/" viewBox="0 0 630 630">
	<rect height="630" width="630" y="0" x="0" fill="#f7df1e"/>
	<path d="m165.65 526.47 48.212-29.178c9.3 16.5 17.76 30.45 38.06 30.45 19.454 0 31.719-7.6098 31.719-37.21v-201.3h59.204v202.14c0 61.32-35.944 89.231-88.385 89.231-47.361 0-74.852-24.529-88.808-54.13"/>
	<path d="m375 520.13 48.206-27.911c12.69 20.724 29.182 35.948 58.361 35.948 24.531 0 40.174-12.265 40.174-29.181 0-20.299-16.069-27.489-43.135-39.326l-14.798-6.3475c-42.715-18.181-71.05-41.018-71.05-89.228 0-44.404 33.831-78.238 86.695-78.238 37.638 0 64.702 13.111 84.154 47.366l-46.096 29.601c-10.15-18.182-21.142-25.371-38.058-25.371-17.339 0-28.335 10.995-28.335 25.371 0 17.762 10.996 24.952 36.368 35.949l14.8 6.3425c50.325 21.569 78.66 43.558 78.66 93.034 0 53.288-41.866 82.465-98.11 82.465-54.976 0-90.5-26.218-107.84-60.474"/>
</svg>
