<?xml version="1.0" encoding="UTF-8" standalone="no"?>
<svg xmlns:rdf="http://www.w3.org/1999/02/22-rdf-syntax-ns#" xmlns="http://www.w3.org/2000/svg" xml:space="preserve" height="68.763" width="92.022" version="1.1" xmlns:cc="http://creativecommons.org/ns#" xmlns:dc="http://purl.org/dc/elements/1.1/" viewBox="0 0 92.023322 68.762599"><g transform="matrix(1.25 0 0 -1.25 -168.69 473.44)"><g transform="scale(.1)"><path fill="#3381a8" d="m1977.3 3787.5h-528.81c-11.37 0-22.6-9-25.09-20.1l-73.41-328.93c-2.48-11.1 4.73-20.1 16.11-20.1h528.8c11.38 0 22.61 9 25.09 20.1l73.42 328.93c2.47 11.1-4.74 20.1-16.11 20.1"/><path fill="#55c4f2" d="m2069.1 3698.5h-385.39c-11.38 0-22.62-9.01-25.1-20.11l-65.15-291.02c-2.49-11.11 4.72-20.11 16.09-20.11h385.39c11.38 0 22.62 9 25.1 20.11l65.16 291.02c2.48 11.1-4.73 20.11-16.1 20.11"/><path fill="#86d8f0" d="m1683.7 3698.5c-11.38 0-22.61-9.01-25.1-20.11l-58.22-260.04h294.52c11.37 0 22.61 9 25.09 20.1l58.04 260.05h-294.3"/><path fill="#5fc032" d="m1728.1 3597.9h-175.39c-11.38 0-22.66-9-25.19-20.09l-73.21-320.34c-2.54-11.1 4.63-20.08 16.01-20.08h175.39c11.37 0 22.65 8.98 25.19 20.08l73.22 320.34c2.52 11.09-4.64 20.09-16.02 20.09"/><path fill="#7ecd48" d="m1728.1 3597.9h-175.39c-11.38 0-22.66-9-25.19-20.09l-36.43-159.4h216.59l36.44 159.4c2.52 11.09-4.64 20.09-16.02 20.09"/><path fill="#acd91a" d="m1728.1 3597.9h-87.59l-47.13-210.47c-2.48-11.11 4.73-20.11 16.1-20.11h86.53l48.11 210.49c2.52 11.09-4.64 20.09-16.02 20.09"/><path fill="#fff" d="m1728.1 3597.9h-87.6l-40.18-179.49h107.36l36.44 159.4c2.52 11.09-4.64 20.09-16.02 20.09"/></g></g></svg>
