<?xml version="1.0" encoding="UTF-8" standalone="no"?>
<svg xmlns:rdf="http://www.w3.org/1999/02/22-rdf-syntax-ns#" xmlns="http://www.w3.org/2000/svg" xml:space="preserve" height="98.116" viewBox="0 0 111.68212 98.116445" width="111.68" version="1.1" xmlns:cc="http://creativecommons.org/ns#" xmlns:dc="http://purl.org/dc/elements/1.1/"><g transform="matrix(1.25 0 0 -1.25 -2289.1 507.38)"><g transform="scale(1,-1)" fill-rule="evenodd"><path d="m1831.3-396.09v29.436c0 21.675 17.778 39.245 39.709 39.245h9.9277c21.932 0 39.709-17.57 39.709-39.245v-29.436c0-5.4199-4.4443-9.8125-9.9277-9.8125h-69.49c-5.4834 0-9.9278 4.3926-9.9278 9.8125" fill="#fea620"/><path d="m1846.2-371.56c0 16.256 13.334 29.436 29.783 29.436 16.447 0 29.781-13.18 29.781-29.436h-14.893c0 8.127-6.666 14.718-14.889 14.718-8.2247 0-14.891-6.5908-14.891-14.718v-14.719h-14.892v14.719z" fill="#fff"/><path d="m1894.6-394.37l-3.4746 14.228 14.394 3.6777 3.7236-14.227s-14.643-3.6787-14.643-3.6787z" fill="#fff"/></g></g></svg>
