<?xml version="1.0" encoding="UTF-8" standalone="no"?>
<svg xmlns:rdf="http://www.w3.org/1999/02/22-rdf-syntax-ns#" xmlns="http://www.w3.org/2000/svg" height="198" viewBox="0 0 217.33954 198" width="217.34" version="1.1" xmlns:cc="http://creativecommons.org/ns#" xmlns:dc="http://purl.org/dc/elements/1.1/">
	<g transform="translate(-141.33 -1)">
		<g>
			<title>Layer 1</title>
			<path d="m141.33 1h20.26v134.46h80.121v16.577h-100.38zm155.64 39.6c13.814-1.8419 28.549 0.92093 39.6 10.13 11.972 8.2884 18.419 23.023 19.34 36.837 1.8419 16.577 0 33.153-9.2093 46.967-8.2884 11.051-21.181 18.419-35.916 19.34-13.814 1.8419-29.47-0.92093-41.442-10.13-11.051-9.2093-16.577-23.023-18.419-36.837-1.8419-14.735 0-31.312 9.2093-44.205 7.3675-12.893 22.102-21.181 36.837-22.102z"/>
			<path fill="#fff" d="m299.73 56.256c9.2093-0.92093 19.34 1.8419 26.707 8.2884 6.4465 7.3674 10.13 16.577 11.051 25.786 0.92093 10.13 0 21.181-4.6046 30.391-4.6046 9.2093-12.893 15.656-23.023 17.498-9.2093 1.8419-19.34-0.92093-25.786-6.4465-7.3674-5.5256-11.972-13.814-13.814-22.102-1.8419-11.972-0.9209-23.944 3.6837-34.995 4.6046-10.13 14.735-17.498 25.786-18.419z"/>
			<path fill="#3492ff" d="m141.33 175.98h217.34v23.02h-217.34z"/>
		</g>
	</g>
</svg>
