<?xml version="1.0" encoding="UTF-8" standalone="no"?>
<svg xmlns:rdf="http://www.w3.org/1999/02/22-rdf-syntax-ns#" xmlns="http://www.w3.org/2000/svg" height="106.58" viewBox="0 0 82.974091 106.58332" width="82.974" version="1.1" xmlns:cc="http://creativecommons.org/ns#" xmlns:xlink="http://www.w3.org/1999/xlink" xmlns:dc="http://purl.org/dc/elements/1.1/">
	<title>Mercurial</title>
	<defs>
		<g id="a">
			<path d="m85.685 67.399c14.785-24.584-3.123-64.455-35.867-60.404-29.585 3.657-30.061 34.797-3.988 42.194 22.563 6.408 4.661 20.72 5.184 30.25 0.526 9.529 19.616 12.986 34.671-12.04"/>
			<circle cy="70.617" cx="31.579" r="12.838"/>
			<circle cy="43.476" cx="16.913" r="8.4"/>
		</g>
	</defs>
	<use xlink:href="#a" transform="translate(-8.513 -5.7117)" height="100%" width="100%" y="0" x="0" fill="#1b1b1b"/>
	<use xlink:href="#a" transform="translate(-7.954 -6.7087)" height="100%" width="100%" y="0" x="0" fill="#bfbfbf"/>
	<path d="m46.854 76.493c-0.896-1.454 0.474-3.068 1.883-2.945 2.242 0.196 7.123-0.027 10.975-2.21 9.622-5.455 24.431-31.702 16.983-48.257-3.334-7.41-4.958-9.532-8.392-13.157-0.7-0.739-0.298-0.699 0.176-0.449 1.857 0.974 5.12 4.749 8.467 10.893 5.655 10.38 5.362 22.72 3.259 30.461-1.465 5.385-6.512 17.568-13.902 22.835-7.406 5.279-16.073 8.307-19.449 2.829m-6.705-34.063c-5.041-1.496-11.54-3.58-15.299-8.497-2.772-3.626-4.178-7.582-4.538-9.826-0.127-0.801-0.236-1.468-0.005-1.653 0.106-0.085 2.069 4.351 5.003 8.069 2.933 3.719 7.033 5.894 10.449 6.684 3.038 0.702 9.331 2.246 11.46 4.059 2.189 1.865 2.372 5.893 1.635 6.348-0.743 0.457-2.249-3.268-8.705-5.184m-24.165 30.831c9.983 9.25 25.009-3.456 18.393-14.68-0.743-1.26-1.708-2.219-1.391-1.254 2.115 6.454 0.161 11.559-3.485 14.189-3.575 2.58-8.488 3.011-12.422 0.972-1.155-0.599-1.634 0.274-1.095 0.773m-11.646-30.108c0.052 0.594 0.864 1.356 2.141 1.706 1.097 0.301 3.925 1.069 7.558-1.224 3.632-2.292 4.051-8.425 2.4-10.229-0.511-0.914-1.176-1.579-0.647-0.121 1.336 3.682-1.26 7.126-3.499 8.721-2.237 1.595-5.076 0.84-6.235 0.487-1.158-0.354-1.77 0.047-1.718 0.66"/>
	<path fill="#fff" d="m50.544 77.203c-0.097 1.154 1.228 1.38 3.012 1.113 2.287-0.343 4.221-0.6 6.853-1.919 3.567-1.788 7.177-4.345 9.82-7.795 7.889-10.292 10.682-22.469 10.252-24.22-0.144 1.446-2.048 9.04-6.403 15.885-5.594 8.794-9.65 13.477-19.004 15.748-2.604 0.632-4.402-0.331-4.53 1.188m-20.747-40.02c1.065 0.904 3.248 2.108 7.543 3.517 5.188 1.701 7.714 3.176 8.772 3.882 1.121 0.751 1.831 2.426 1.901 0.938 0.074-1.489-0.844-2.769-2.892-3.449-1.386-0.46-3.717-1.555-5.952-1.996-1.436-0.284-3.772-0.846-5.775-1.46-1.098-0.337-2.217-0.928-3.597-1.432m-5.98 37.978c1.271-0.267 8.664-2.182 10.4-8.262 0.541-1.896 0.638-1.515 0.485-0.488-0.78 5.243-5.735 9.11-9.952 9.254-0.856 0.088-1.979-0.285-0.933-0.504m-14.791-31.184c0.333-0.3 2.019-0.177 3.541-0.996 1.521-0.818 3.328-2.611 3.651-5.16 0.19-1.497 0.247-1.121 0.323-0.306-0.236 4.237-4.133 6.578-6.361 6.887-0.602 0.083-1.66 0.032-1.154-0.425"/>
	<path fill="#999" d="m75.683 44.719c6.295-18.145-6.878-45.548-33.529-42.251-24.08 2.977-24.469 28.322-3.247 34.344 24.039 3.639 9.564 21.773 7.511 30.918-1.841 8.197 19.426 9.546 29.265-23.011m-60.216 25.934c1.507 0.026 2.419 0.238 3.946 1.309 3.018 1.254 8.566 0.46 11.127-2.913 2.562-3.372 2.646-8.019 1.67-10.827-2.387-6.871-12.531-6.75-17.062-1.045-4.902 6.371-1.189 13.451 0.319 13.476m-13.465-31.844c0.3 0.947 1.068 2.328 2.69 2.558 2.165 0.307 2.608 1.286 5.165 0.778s4.495-2.603 5.27-4.921c0.888-3.207-0.441-4.862-2.442-6.341-2.001-1.478-6.402-1.319-9.029 1.075-1.867 1.701-2.386 4.547-1.654 6.851"/>
	<path fill="#f3f3f3" d="m59.211 58.892c-6.512-0.805-15.883 13.898-7.047 12.176 8.835-1.721-8.836 1.722 0 0 4.247-0.63 7.766-2.13 10.915-5.725 4.107-4.687 10.242-14.81 12.017-21.351 1.494-5.515 0.743-14.06-0.798-6.032-1.58 8.24-8.574 21.738-15.087 20.932m-33.954 12.251c1.677-0.439 6.812-2.528 5.847-9.994-0.488-3.781-2.55 4.693-6.37 5.961-5.786 1.92-5.136 5.515 0.523 4.033m-14.752-30.213c1.965-0.514 4.563-3.191 3.273-5.235-1.591-2.518-6.025-0.363-6.175 2.441-0.15 2.805 0.82 3.339 2.902 2.794"/>
	<path fill="#010101" d="m0.039 92.598c1.402-0.618 2.892-0.927 4.323-0.927 1.373 0 2.249 0.337 2.745 1.039 1.051-0.702 2.483-1.039 3.593-1.039 3.33 0 3.446 1.348 3.446 5.308v8.762c0 0.393 0.059 0.393-1.606 0.393v-9.324c0-2.864-0.059-3.735-1.956-3.735-0.847 0-1.724 0.196-2.658 0.814v11.852c0 0.393 0.059 0.393-1.607 0.393v-9.324c0-2.752 0-3.763-1.986-3.763-0.847 0-1.694 0.168-2.687 0.646v12.048c0 0.393 0.058 0.393-1.606 0.393v-13.532m21.957-0.927c-2.482 0-5.227 0.702-5.227 8.201 0 5.785 2.014 6.683 4.79 6.683 2.131 0 3.971-0.702 3.971-1.039 0-0.421-0.058-1.067-0.204-1.433-0.906 0.618-2.191 0.955-3.622 0.955-1.957 0-3.271-0.561-3.301-4.914 1.286 0 4.558-0.028 6.981-0.506 0.205-0.927 0.292-2.275 0.292-3.454 0-2.808-1.139-4.493-3.68-4.493m-0.146 1.404c1.753 0 2.22 1.151 2.249 3.398 0 0.589-0.029 1.291-0.117 1.965-1.636 0.394-4.411 0.394-5.579 0.394 0.205-5.111 1.957-5.757 3.447-5.757m6.368-0.168c1.372-0.899 2.628-1.236 3.913-1.236 1.431 0 2.103 0.393 2.103 0.871 0 0.281-0.088 0.758-0.234 1.039-0.409-0.225-0.875-0.421-1.636-0.421-0.934 0-1.81 0.252-2.511 0.87v11.711c0 0.394 0.029 0.394-1.635 0.394v-13.223m14.745-0.309c0-0.366-1.226-0.927-2.453-0.927-2.367 0-5.258 0.814-5.258 7.751 0 6.571 1.753 7.161 4.819 7.161 1.518 0 2.892-0.814 2.892-1.263 0-0.253-0.058-0.647-0.205-0.984-0.614 0.449-1.548 0.871-2.541 0.871-2.102 0-3.329-0.589-3.329-5.701 0-5.645 2.015-6.431 3.767-6.431 0.993 0 1.548 0.281 2.103 0.646 0.147-0.337 0.205-0.814 0.205-1.123m11.188 13.059c-1.286 0.646-2.979 0.899-4.439 0.899-3.739 0-4.294-1.572-4.294-5.308v-8.79c0-0.365-0.029-0.365 1.636-0.365v9.324c0 2.809 0.409 3.764 2.599 3.764 0.847 0 2.015-0.169 2.892-0.674v-12.051c0-0.365-0.059-0.365 1.606-0.365v13.563m3.331-12.75c1.372-0.899 2.628-1.236 3.913-1.236 1.431 0 2.103 0.393 2.103 0.871 0 0.281-0.088 0.758-0.234 1.039-0.409-0.225-0.876-0.421-1.636-0.421-0.934 0-1.81 0.252-2.511 0.87v11.711c0 0.394 0.029 0.394-1.635 0.394v-13.223m9.766-0.815c-1.286 0-1.665 0-1.665 0.759v13.283c1.636 0 1.665 0 1.665-0.393v-13.648m-1.723-4.942c0 0.927 0.292 1.263 0.875 1.291 0.672 0 0.994-0.477 0.994-1.32 0.029-0.87-0.205-1.263-0.877-1.263-0.642 0-0.963 0.477-0.992 1.292m4.494 5.757c0-0.309 0.058-0.478 0.175-0.562 0.555-0.309 2.688-0.674 5.112-0.674 1.84 0 3.008 0.871 3.008 3.398v1.825c0 4.999-0.146 8.734-0.146 8.734-0.672 0.365-1.928 0.927-3.973 0.927-2.103 0.028-4.205-0.168-4.205-4.325 0-3.959 2.161-4.577 4.322-4.577 0.818 0 1.782 0.084 2.425 0.337v-2.612c0-1.825-0.934-2.219-2.045-2.219-1.489 0-3.562 0.281-4.468 0.702-0.176-0.308-0.205-0.786-0.205-0.954m6.717 6.235c-0.555-0.197-1.343-0.281-1.898-0.281-1.665 0-3.184 0.337-3.184 3.426 0 2.892 1.256 2.921 2.745 2.921 0.935 0 1.87-0.253 2.191-0.59 0 0 0.146-3.37 0.146-5.476m6.198 6.599c0 0.393 0.029 0.393-1.607 0.393v-19.879c0-0.759 0.321-0.759 1.607-0.759v20.249"/>
</svg>
