<?xml version="1.0" encoding="UTF-8" standalone="no"?>
<svg xmlns:rdf="http://www.w3.org/1999/02/22-rdf-syntax-ns#" xmlns="http://www.w3.org/2000/svg" xml:space="preserve" height="143.21" viewBox="0 0 502.66022 143.21" width="502.66" version="1.1" xmlns:cc="http://creativecommons.org/ns#" xmlns:dc="http://purl.org/dc/elements/1.1/"><defs><linearGradient id="c" gradientUnits="userSpaceOnUse" gradientTransform="matrix(34.439 -11.619 -10.482 -30.907 7.7762 57.6)"><stop stop-color="#929669" offset="0"/><stop stop-color="#929669" offset=".23077"/><stop stop-color="#fdfcf1" offset="1"/></linearGradient><linearGradient id="b" gradientUnits="userSpaceOnUse" gradientTransform="matrix(24.117 -93.621 -100.73 -16.15 20.393 113.58)"><stop stop-color="#45aa3a" offset="0"/><stop stop-color="#3d9439" offset="1"/></linearGradient><linearGradient id="a" gradientUnits="userSpaceOnUse" gradientTransform="matrix(42.21 9.5904 13.19 -39.411 -2.5083 59.586)"><stop stop-color="#41a83b" offset="0"/><stop stop-color="#5ebc44" offset="1"/></linearGradient></defs><g transform="matrix(1.25 0 0 -1.25 .00022984 143.21)"><path d="m27.594 2.8672-2.9961 0.99179s0.3821 15.164-5.0867 16.226c-3.6062 4.1785 0.5551 178.49 13.656 0.5972 0 0-4.484-2.2515-5.3328-6.075-0.848-3.826-0.24-11.74-0.24-11.74" fill="url(#c)"/><path d="m29.21 17.51s26.034 17.147 19.935 52.758c-5.8738 25.872-19.742 34.377-21.232 37.624-1.6406 2.298-3.293 6.371-3.293 6.371l1.1074-72.086s-2.2906-22.011 3.4825-24.666" fill="url(#b)"/><path d="m23.074 16.552s-24.421 16.66-23.016 46.054c1.4057 29.396 18.654 43.854 22.014 46.474 2.1719 2.315 2.2617 3.207 2.4297 5.491 1.5222-3.27 1.2691-48.842 1.4304-54.169 0.6258-20.735-1.1484-39.933-2.8574-43.847" fill="url(#a)"/><path d="m301.74 71.207c-0.411-0.4868-1.6791-2.6816-1.5141-3.1687 2.056-0.2438 3.5362-0.48825 4.6062-0.73125 2.14-0.4883 3.2077-1.1368 3.4547-3.6547 0.164-3.0059 0.0828-12.511 0.0828-17.384 0-6.8242 0.0809-12.836-0.16407-17.872-0.166-2.6813-0.5195-3.4418-2.0125-4.0563-0.888-0.3656-1.4052-0.43829-3.3172-0.65469-0.579-0.066-1.5139-2.5989-1.1859-3.25h0.0969c7.074-0.0801 15.547-0.24374 20.483-0.24374 9.294 0 15.793 2.1125 20.812 5.8484 5.017 3.5746 10.033 9.9113 10.033 20.878 0 7.7168-2.7959 14.052-8.0609 18.602-4.359 3.7363-10.447 5.6875-17.686 5.6875-8.636 0-11.842-0.24375-16.448-0.24375-2.469 0-7.7817 0.24375-9.1797 0.24375zm58.303 0c-0.411-0.325-1.6786-2.7625-1.2656-3.1687 1.645-0.2438 3.7014-0.48825 4.9344-0.73125 1.563-0.4062 2.3848-1.1375 2.4688-3.4125 0.081-2.9242 0-8.8536 0-17.627 0-6.418 0.00038-15.436-0.16562-17.953-0.247-2.9246-0.48169-3.5609-2.4547-4.0484-1.399-0.4063-2.4142-0.50046-3.7312-0.58126-0.492-0.4055-1.5973-3.0051-1.0203-3.25 5.512 0.0824 15.43-0.325 19.131-0.325 4.855 0 9.6262 0.5699 13.492 2.275 6.334 2.7621 10.692 7.1485 10.692 14.134 0 7.1485-5.3458 10.886-11.433 12.428-0.247 0.0813-0.247 0.2438 0 0.325 4.277 1.7872 7.5656 5.5247 7.5656 10.155 0 9.4231-8.7186 11.697-15.052 11.697-5.1 0-9.3756-0.16094-14.641-0.16094-5.592 0-7.7819 0.24375-8.5219 0.24375zm-38.759-3.6562c5.347 0 10.033-0.89299 13.653-3.1672 6.415-3.8992 9.5422-10.561 9.5422-18.766 0-8.5293-2.6334-13.89-6.4984-17.384-3.783-3.4102-7.6489-4.1438-11.597-4.1438-3.045 0-6.4996 0.5688-8.2266 1.95-1.07 0.7313-1.5613 2.4382-1.6453 3.4125-0.164 1.1382-0.16406 10.561-0.16406 17.303 0 6.5797 0.00006 17.709 0.16406 19.17 0 0.3258 0.49362 0.975 0.74062 1.1375 0.905 0.4058 2.4682 0.4875 4.0313 0.4875zm56.577-0.1625c7.319 0 12.255-2.6812 12.255-9.7484 0-3.0867-1.2336-5.9292-3.8656-7.2281-0.986-0.4875-2.7974-0.89531-5.9234-0.89531-2.221 0-4.8513 0.08196-5.9203 0.16406-0.166 0-0.41093 0.24375-0.41093 0.40625 0 5.2797 0.0815 12.916 0.16249 15.839 0 0.4062 0.41263 1.2187 0.74063 1.3 1.07 0.1633 2.4685 0.1625 2.9625 0.1625zm-1.1531-21.425c0.90488-0.000088 1.7695-0.02187 1.975-0.02187 9.625 0 14.888-4.0609 14.888-11.209 0-7.473-5.0178-10.642-10.694-10.642-2.057 0-5.0158 0.16362-6.3328 0.89531-1.233 0.5683-2.2209 2.5171-2.3859 3.8984-0.247 3.2484-0.16249 11.453-0.16249 16.572 0 0.1625 0.24518 0.32429 0.49218 0.40469 0.37 0.08165 1.3154 0.10321 2.2203 0.10313z" fill="#c0bdba"/><path d="m197.59 54.201c-3.207 0-7.4859-2.1926-11.022-5.1984-0.083-0.0813-0.62607-0.59688-0.61407 0.20312 0.012 0.7988 0.13694 2.4246 0.21094 3.4484 0.075 1.0234-0.53906 1.5062-0.53906 1.5062-2.303-1.1371-8.7894-2.6773-11.184-2.925-1.751-0.3367-2.1921-2.0179-0.32812-2.5984 0-0.0027 0.0181-0.0062 0.0281-0.0094 1.951-0.5863 3.2643-1.2114 4.2453-1.8578 0.741-0.5688 0.65937-1.3828 0.65937-2.0328 0.082-5.4422 0.0814-13.809-0.16563-18.358-0.082-1.7875-0.57618-2.4367-1.8922-2.7625l0.12031 0.04064c-0.987-0.2425-1.8108-0.40625-3.0438-0.56875-0.412-0.4055-0.411-2.7602 0-3.2484 0.823 0 5.0179 0.24375 8.4719 0.24375 4.77 0 7.2394-0.24375 8.4734-0.24375 0.493 0.5695 0.65713 2.7617 0.32813 3.2484-1.399 0.0812-2.3864 0.2437-3.3734 0.4875-1.316 0.325-1.644 0.975-1.725 2.4375-0.165 3.8176-0.16562 11.941-0.16562 17.466 0 1.5434 0.41068 2.2734 0.90468 2.6797 1.644 1.4625 4.3593 2.4359 6.7453 2.4359 2.302 0 3.8652-0.73079 5.0172-1.7047 1.563-1.3 2.1381-3.1671 2.3031-4.5484 0.329-3.0875 0.24531-9.2605 0.24531-14.622 0-2.9246-0.24506-3.6566-1.3141-3.9812-0.494-0.2442-1.8104-0.4875-3.3734-0.65-0.493-0.4867-0.329-2.7602 0-3.2484 2.139 0 4.607 0.24375 8.225 0.24375 4.525 0 7.4027-0.24375 8.5547-0.24375 0.493 0.5695 0.65769 2.6808 0.32968 3.2484-1.809 0.2437-3.127 0.48795-4.689 1.2188-0.247 0.1625-0.57657 0.8938-0.57657 1.1375-0.165 2.5184-0.16406 9.8297-0.16406 14.622 0 3.8996-0.65813 7.3102-2.3031 9.7484-1.974 2.7614-4.7691 4.3859-8.3891 4.3859zm-120.14-0.114c-2.4503-1.1304-8.6965-2.6184-11.078-2.8641-0.898-0.173-1.3301-0.68987-1.3516-1.0969-0.0203-0.4235 0.3613-0.78516 1.05-0.98906 1.7996-0.5398 3.2218-1.1625 4.3625-1.9141 0.7785-0.5976 0.7691-1.4446 0.7625-2.0641l-0.0016-0.17031c0.0875-5.7778 0.07298-13.992-0.16562-18.373-0.0856-1.8598-0.6332-2.6456-2.0875-3.0062-0.8719-0.2332-1.6067-0.39875-3.1578-0.64375-0.111-0.1285-0.2274-0.50431-0.25-1.0953-0.0305-0.7773 0.11446-1.4234 0.25156-1.6422 0.8344 0.004 1.6703 0.04536 2.6344 0.09062 1.4375 0.06792 3.2277 0.15313 5.7984 0.15313 2.1848 0 4.1008-0.08522 5.6422-0.15313 1.009-0.04424 1.8887-0.08593 2.6031-0.09062 0.2852 0.5465 0.38671 2.3024 0.22031 2.75-0.4632 0.0832-0.9129 0.15786-1.325 0.22656-0.716 0.118-1.3343 0.22071-1.6906 0.32031-1.6347 0.3801-1.936 1.4124-2.0141 2.2781-0.1274 2.8175-0.10935 9.3257-0.09375 14.556 0.0051 1.5832 0.0094 3.0601 0.0094 4.3 0 0.6652 0.29265 1.3871 0.68125 1.6734 2.3184 1.736 5.1535 2.8141 7.4 2.8141 3.8313 0 6.2176-2.1195 7.0891-6.3047 0.5121-2.6082 0.3254-13.022 0.0875-16.638-0.0891-1.5484-0.54653-2.2254-1.7656-2.5969-0.716-0.1761-1.4609-0.30704-2.325-0.46094-0.312-0.057-0.641-0.115-0.987-0.179-0.13-0.1496-0.25781-0.63484-0.25781-1.3234 0-0.7411 0.14225-1.2566 0.24374-1.4172 0.7016 0.0032 1.9371 0.0372 3.2406 0.07184 1.6082 0.04296 3.432 0.09062 4.5484 0.09062 3.6832 0 6.2354-0.07424 8.7234-0.15938 0.063 0.06328 0.18193 0.25744 0.28593 0.69844 0.186 0.7981 0.17407 1.7312 0.039 2.0438-0.991 0.1586-1.6592 0.3191-2.3062 0.475-0.333 0.07928-0.66537 0.15856-1.0844 0.25156-0.772 0.3055-1.7313 0.68511-1.7313 2.2703-0.05472 2.3253-0.03744 5.4028-0.01872 8.6625 0.0086 1.6055 0.01872 3.2231 0.01872 4.7469 0 2.6742-0.000336 4.4406-0.32343 5.9562l-0.0048 0.05469c0 0.2109 0.09845 0.53168 0.26875 0.69688 2.7433 2.0778 5.6206 2.8172 7.4016 2.8172 4.801 0 6.9968-3.4048 7.4188-6.3141 0.458-2.8075 0.20019-14.63 0.16719-15.975-0.083-1.8891-0.49319-2.5355-1.9172-3.0047-0.782-0.2312-1.4261-0.39536-2.7281-0.63906-0.205-0.375-0.14613-2.1735 0.0218-2.7313 2.233 0.1441 4.5713 0.23126 9.0453 0.23126 2.231 0 4.1473-0.09686 5.5453-0.16875 0.769-0.03856 1.3863-0.06992 1.8313-0.07344 0.274 0.3848 0.56043 2.2656 0.42343 2.7484l-0.0687 0.01096c-1.796 0.3098-3.2191 0.55391-4.2031 1.0328-0.799 0.2195-1.3281 1.3168-1.3281 1.7125 0 1.6313 0.0181 3.9883 0.039 6.5031 0.021 2.8668 0.0453 5.9382 0.0453 8.3609 0 8.4308-4.0222 13.466-10.756 13.466-2.845 0-7.1006-1.9418-11.395-5.1953-0.0988-0.1473-0.26722-0.23906-0.44531-0.23906-0.1871 0-0.35509 0.09609-0.47969 0.27969-2.1254 3.4676-4.8742 5.1547-8.4078 5.1547-2.1504 0-6.3281-1.3043-10.998-4.9594-0.1195-0.118-0.266-0.18125-0.425-0.18125-0.3125 0-0.60625 0.25789-0.60625 0.52969 0 0.9227 0.07687 1.8477 0.14688 2.6641 0.0222 0.2777 0.04576 0.54692 0.06406 0.80312 0.0442 0.609-0.18469 0.99109-0.32969 1.1672zm158.82-0.022c-3.299 0-8.3913-1.925-10.42-3.5266-2.961-2.1211-4.6609-5.448-4.6609-9.1281 0-5.7003 2.5409-9.4425 7.5859-11.136 0.147-0.07256 0.246-0.21363 0.275-0.38594 0.028-0.1703-0.0201-0.34025-0.13907-0.45625-0.75199-0.6438-2.1098-1.4461-3.3078-2.1531-0.812-0.4785-1.5792-0.93158-2.0562-1.2719-0.616-0.4418-0.52457-0.87262-0.42657-1.3281 0.015-0.07072 0.0294-0.13829 0.0344-0.17969 0.31-1.1609 1.3379-3.2992 4.7469-4.6031 0.15-0.032 0.25937-0.16946 0.25937-0.33906 0-0.1519-0.0886-0.2773-0.21563-0.325-4.136-2.8414-5.926-4.4832-6.7-5.3609-1.312-1.4902-1.4547-3.05-1.4547-3.6531 0-2.0989 1.1893-5.1363 3.8453-7.1844 2.731-2.0988 5.9281-3.0344 10.364-3.0344 3.406 0 6.5574 0.70977 9.6594 2.1688 6.395 3.082 10.212 8.1257 10.212 13.491 0 3.5922-2.0761 6.579-5.4141 7.7938-2.427 0.8223-7.5835 1.1801-11.713 1.4672-0.71 0.04848-1.3894 0.09606-2.0234 0.14375-3.127 0.2359-3.7828 1.5531-3.7828 2.6172 0 1.2785 1.4451 1.9656 2.0031 2.1234l0.0718 0.0094c0.073 0 0.56594 0.04528 0.96094 0.08125 0.613 0.05392 0.91625 0.07968 0.98125 0.07968h0.003c3.208 0.3383 6.0541 1.4426 8.4891 3.2781 2.552 1.9278 4.9125 4.5348 4.9125 10.513 0 0.5379-0.2928 2.4581-0.4578 3.1156-0.007 0.0308-0.0269 0.07736-0.0469 0.12656-0.082 0.2051-0.14688 0.36836-0.0469 0.51406l0.31719 0.11094c0.006-0.0031 0.61381-0.19185 1.9078-0.31875 0.119-0.0125 0.24275-0.01875 0.36875-0.01875 1.257 0 2.5891 0.57698 3.1641 1.3719 0.722 0.9973 0.9795 2.3945 0.9125 3.3375-0.064 0.9246-0.20875 1.3266-0.26875 1.4531-1.053-1.0214-2.2791-1.9109-5.0891-1.9109-1.904 0-3.2651 0.21478-4.7031 0.74688-2.648 0.9796-4.5612 1.6898-7.9562 1.7703zm-86.008-0.0016c-3.665 0-7.7223-1.1996-11.12-3.2859-4.781-3.2071-7.2031-7.8363-7.2031-13.755 0-8.4722 4.4029-17.527 16.761-17.527 3.439 0 7.5823 1.5805 9.9703 3.0437 4.979 3.2528 7.6109 8.4575 7.6109 15.052 0 9.6988-6.5878 16.472-16.019 16.472zm127.97 0c-3.664 0-7.7218-1.1999-11.119-3.2859-4.781-3.207-7.2062-7.8348-7.2062-13.755 0-8.4723 4.4035-17.527 16.763-17.527 3.44 0 7.5823 1.5809 9.9703 3.0453 4.979 3.2508 7.6109 8.4543 7.6109 15.05 0 9.6969-6.5868 16.472-16.019 16.472zm-44.234-3.1297c4.948 0 7.9031-3.6206 7.9031-9.6859 0-2.7753-0.90462-5.4032-2.2906-6.675-0.92-1.0133-2.7776-1.4687-3.8016-1.4687-5.965 0-8.0812 5.4801-8.0812 10.173 0 4.6504 2.4613 7.6562 6.2703 7.6562zm-86.617-0.325c6.949 0 11.617-6.3078 11.617-15.697 0-4.898-1.1136-8.3949-3.2156-10.108-1.367-1.1926-3.0117-1.7719-5.0297-1.7719-6.839 0-11.617 6.6539-11.617 16.184 0 5.0891 1.4534 8.5539 4.3094 10.289 1.04 0.7117 2.4389 1.1031 3.9359 1.1031zm127.97 0c6.948 0 11.616-6.3074 11.616-15.697 0-4.8976-1.1146-8.3957-3.2156-10.108-1.367-1.1934-3.0117-1.7719-5.0297-1.7719-6.841 0-11.617 6.6539-11.617 16.184 0 5.0902 1.4544 8.5539 4.3094 10.289 1.039 0.7117 2.4385 1.1031 3.9375 1.1031zm-41.84-31.76c4.457 0 8.0966-0.44024 10.277-1.2359 2.828-1.0371 4.2031-2.8715 4.2031-5.6078 0-3.932-3.3109-7.9-10.697-7.9-3.756 0-6.6111 0.87226-8.7281 2.6641-1.748 1.4789-2.5625 3.1422-2.5625 5.2359 0 2.2199 1.3975 4.1473 4.4125 6.0781 0.622 0.3488 1.6643 0.76562 3.0953 0.76562z" fill="#414044"/></g></svg>
