<?xml version="1.0" encoding="UTF-8" standalone="no"?>
<svg xmlns:rdf="http://www.w3.org/1999/02/22-rdf-syntax-ns#" xmlns="http://www.w3.org/2000/svg" height="201.3pt" width="387.58pt" version="1.1" xmlns:cc="http://creativecommons.org/ns#" xmlns:dc="http://purl.org/dc/elements/1.1/" viewBox="0 0 387.57588 201.30261">
	<path fill="#00618a" d="m251.49 0.0018253c-3.4462-0.057564-6.4535 1.2382-8.0173 5.0524-2.633 6.42 3.9339 12.686 6.2829 15.938 1.649 2.2822 3.7601 4.84 4.9381 7.4064 0.77499 1.6866 0.91027 3.3786 1.5733 5.1637 1.632 4.3965 3.0498 9.1792 5.1608 13.243 1.067 2.0557 2.2429 4.2214 3.5919 6.0602 0.827 1.128 2.2443 1.6256 2.4683 3.3678-1.386 1.9395-1.4652 4.9493-2.2442 7.4064-3.508 11.062-2.185 24.811 2.918 32.998 1.566 2.513 5.2549 7.9031 10.326 5.8361 4.436-1.807 3.445-7.406 4.714-12.346 0.28701-1.1202 0.11038-1.9439 0.67239-2.6939v0.22413c1.347 2.6934 2.6946 5.3874 4.0416 8.0803 2.99 4.816 8.2973 9.8494 12.794 13.245 2.332 1.761 4.1673 4.8061 7.1823 5.8361v-0.22559h-0.22559c-0.58401-0.911-1.4967-1.2881-2.2427-2.0201-1.757-1.722-3.7107-3.8631-5.1637-5.8361-4.09-5.553-7.7053-11.631-10.998-17.958-1.573-3.0205-2.9397-6.3537-4.2657-9.428-0.511-1.1855-0.50535-2.9777-1.5704-3.5919-1.452 2.2529-3.591 4.074-4.714 6.734-1.796 4.252-2.0274 9.4383-2.6924 14.816-0.394 0.141-0.21872 0.0441-0.44972 0.22413-3.126-0.754-4.2254-3.9719-5.3864-6.7326-2.939-6.9824-3.4854-18.227-0.89943-26.264 0.669-2.0791 3.6938-8.629 2.4698-10.55-0.584-1.917-2.5129-3.0251-3.5919-4.4899-1.335-1.8106-2.6679-4.195-3.5919-6.2858-2.405-5.4443-3.5282-11.556-6.0602-17.059-1.21-2.6309-3.2571-5.2932-4.9381-7.632-1.861-2.589-3.9444-4.4966-5.3864-7.6306-0.513-1.113-1.2107-2.8961-0.44972-4.0401 0.242-0.773 0.58369-1.0957 1.3477-1.3477 1.302-1.0039 4.9283 0.33447 6.2843 0.89797 3.6 1.4951 6.6031 2.9185 9.6521 4.9381 1.464 0.9707 2.945 2.8482 4.714 3.3678h2.0201c3.16 0.7265 6.7001 0.2257 9.6521 1.1221 5.218 1.586 9.8935 4.0525 14.14 6.734 12.938 8.169 23.516 19.798 30.752 33.67 1.164 2.2334 1.6674 4.365 2.6924 6.7341 2.069 4.7774 4.676 9.693 6.7341 14.365 2.054 4.6612 4.0552 9.3667 6.9582 13.245 1.527 2.039 7.4228 3.1325 10.102 4.2643 1.878 0.794 4.9536 1.6205 6.7326 2.6925 3.398 2.05 6.6907 4.4905 9.8777 6.7355 1.593 1.122 6.4886 3.5825 6.7326 5.6105l0.003 0.005c-7.894-0.214-13.925 0.51991-19.08 2.6939-1.465 0.618-3.8011 0.63378-4.0401 2.4698 0.805 0.844 0.93035 2.1042 1.5704 3.1422 1.231 1.992 3.3097 4.6602 5.1637 6.0602 2.026 1.529 4.1138 3.1659 6.2858 4.4899 3.863 2.356 8.1763 3.7002 11.896 6.0602 2.192 1.391 4.3694 3.144 6.5084 4.714 1.057 0.776 1.7682 1.9823 3.1422 2.4683v-0.22413c-0.722-0.91899-0.90735-2.1822-1.5704-3.1422l-2.918-2.918c-2.853-3.787-6.4759-7.1132-10.326-9.8762-3.07-2.204-9.9414-5.1811-11.222-8.7541-0.075-0.075-0.14959-0.15059-0.22559-0.22559 2.177-0.245 4.7265-1.0324 6.7355-1.5704 3.375-0.905 6.3912-0.67035 9.8762-1.5704 1.571-0.44901 3.142-0.89969 4.714-1.3477v-0.89797c-1.762-1.808-3.0186-4.2001-4.9396-5.8361-5.026-4.28-10.512-8.5559-16.161-12.122-3.133-1.9776-7.0059-3.2623-10.326-4.9381-1.117-0.5635-3.078-0.85654-3.816-1.7959-1.744-2.2237-2.6937-5.0421-4.0387-7.632-2.82-5.429-5.5872-11.355-8.0832-17.063-1.703-3.893-2.8151-7.7319-4.9381-11.224-10.192-16.757-21.164-26.87-38.159-36.812-3.616-2.114-7.9691-2.9491-12.57-4.0401-2.468-0.149-4.9389-0.29825-7.4079-0.44825-1.49-0.636-3.06-2.4807-4.47-3.3737-3.52-2.2229-10.48-6.0785-16.23-6.1745zm24.32 24.358c-1.646-0.0303-2.8106 0.17965-4.0416 0.44825v0.22413h0.22559c0.785 1.6132 2.1712 2.6519 3.1422 4.0416 0.748 1.5713 1.4967 3.1422 2.2457 4.7125 0.074-0.0743 0.14866-0.14983 0.22266-0.22413 1.39-0.9795 2.0271-2.5465 2.0201-4.9381-0.557-0.586-0.6391-1.3208-1.1221-2.0201-0.642-0.9316-1.8834-1.461-2.6924-2.2442zm-263.04 98.56c-2.0413 0.0785-4.2865 0.48511-6.7253 1.2466-4.0754 1.234-6.0514 3.6218-6.0514 8.5608v50.628h12.842v-50.711l19.881 44.209c2.3457 5.351 5.5565 7.2438 11.854 7.2438 6.2978 0 9.3845-1.8928 11.731-7.2438l19.88-44.209v50.711h12.844v-50.628c0-4.939-1.9772-7.3268-6.0514-8.5608-9.755-3.046-16.299-0.41154-19.263 6.1745l-19.512 43.63-18.892-43.63c-2.13-4.9395-6.4125-7.6566-12.536-7.4211zm135.22 19.02v33.266c-0.225 0-24.336 0.056-27.925 0-7.035-0.111-7.6422-3.6735-7.5222-5.1915v-27.94h-12.838c0.28099 0.279-0.0015 28.228 0.0075 28.819 0.1 6.376 8.1873 11.918 20.886 12.035h27.295v3.3678c0.00075 1.383 0.97722 5.4919-7.2878 6.3649-0.102 0.01-40.55 0.001-40.621 0.001v8.6384h40.549c6.431-0.188 20.383-2.617 20.312-13.805-0.00075-0.19299 0.0707-45.558 0.0117-45.558z"/>
	<path fill="#e48e00" d="m192.24 124.08c-5.186 0-7.9038 0.32936-10.373 1.0694-7.656 2.388-10.99 6.1746-10.99 12.761v7.4914c0 5.763 6.5456 10.702 17.535 11.854 1.236 0.082 2.4692 0.16407 3.7032 0.16407h13.336c0.495 0 0.98941 0.00049 1.3594 0.0835 4.075 0.33001 5.8028 1.0698 7.0387 2.5518 0.74001 0.74 0.98733 1.4813 0.98733 2.3043v7.4914c0 0.906-0.61761 2.0585-1.8516 3.0455-1.112 0.98801-2.9647 1.6471-5.4347 1.8121-0.494 0-0.86394 0.082-1.3579 0.082h-35.438v8.5622h36.919c4.322 0 8.5213-0.90625 11.855-2.4712 5.556-2.551 8.2736-6.0079 8.2736-10.537v-9.384c0-3.705-3.0869-7.1621-9.1379-9.466-3.211-1.236-7.163-1.8941-10.991-1.8941h-15.558c-5.185 0-7.6552-1.5646-8.2722-5.0216-0.124-0.412-0.12305-0.74186-0.12305-1.1529v-5.8434c0-0.33-0.00075-0.65983 0.12305-1.0708 0.617-2.634 1.9756-3.3772 6.5436-3.7882 0.371 0 0.86535-0.082 1.2364-0.082h36.673v-8.5608zm115.67 0v44.371c0 8.808 6.5438 13.749 19.757 14.737 1.234 0.082 2.4707 0.16406 3.7047 0.16406h33.464v-8.5622h-33.711c-7.532 0-10.371-1.8936-10.371-6.4206v-44.289zm-52.245 0.10986c-1.113 0-2.3519 0.0836-3.4659 0.24756-10.764 1.485-16.209 6.1873-16.209 13.941v30.522c0 7.095 3.9603 11.386 12.126 13.613 2.723 0.742 5.1975 1.0723 7.5485 1.0723h13.735l10.302-0.65333 10.234 9.239h14.911l-12.63-11.42c5.329-2.194 7.6408-5.5613 7.6408-11.852v-30.522c0-7.754-5.4439-12.456-16.209-13.941-1.237-0.16399-2.352-0.24756-3.589-0.24756zm3.589 8.5798h19.427c4.949 0 8.2894 1.8969 9.0324 5.1959 0.12299 0.41299 0.12304 0.82725 0.12304 1.1572v29.284c0 0.412-0.00005 0.82436-0.12304 1.2364-0.39601 1.803-1.5286 3.2071-3.2506 4.1251l-9.3474-8.4377h-14.911l10.717 9.6755h-11.668c-5.073 0-8.4135-1.98-9.1555-5.527-0.124-0.49501-0.24757-0.90686-0.24757-1.3199v-29.037c0-3.877 3.7121-6.3532 9.4031-6.3532z"/>
</svg>
