<?xml version="1.0" encoding="UTF-8" standalone="no"?>
<svg xmlns:rdf="http://www.w3.org/1999/02/22-rdf-syntax-ns#" xmlns="http://www.w3.org/2000/svg" height="201.3pt" width="389.8pt" version="1.1" xmlns:cc="http://creativecommons.org/ns#" xmlns:dc="http://purl.org/dc/elements/1.1/" viewBox="0 0 389.79871 201.3049">
	<g fill="#00618a" transform="translate(0 121.12)">
		<path d="m0 62.235h12.842v-50.711s19.881 44.208 19.881 44.208c2.3457 5.351 5.5567 7.244 11.854 7.244 6.2978 0 9.3847-1.893 11.731-7.244 0 0 19.88-44.208 19.88-44.208v50.711h12.843v-50.628c0-4.939-1.9766-7.327-6.0508-8.561-9.755-3.046-16.3-0.412-19.264 6.174l-19.51 43.63s-18.892-43.63-18.892-43.63c-2.84-6.586-9.508-9.22-19.263-6.174-4.0754 1.234-6.051 3.622-6.051 8.561v50.628z"/>
	</g>
	<g fill="#00618a" transform="translate(99.706 141.94)">
		<path d="m0.002 0.136h12.838v27.938c-0.12 1.518 0.487 5.08 7.522 5.191 3.589 0.056 27.7 0 27.925 0v-33.265h12.868c0.059 0-0.013 45.364-0.012 45.557 0.071 11.188-13.882 13.618-20.313 13.806h-40.549v-8.639c0.071 0 40.519 0.008 40.621-0.002 8.265-0.873 7.289-4.981 7.288-6.364v-3.368h-27.295c-12.699-0.117-20.786-5.659-20.886-12.035-0.009-0.591 0.274-28.54-0.007-28.819z"/>
	</g>
	<g fill="#e48e00">
		<g transform="translate(170.76 124.08)">
			<path d="m0 59.271h36.92c4.322 0 8.521-0.905 11.855-2.47 5.556-2.551 8.273-6.008 8.273-10.537v-9.384c0-3.705-3.087-7.163-9.138-9.467-3.211-1.236-7.162-1.894-10.99-1.894h-15.559c-5.185 0-7.655-1.564-8.272-5.021-0.124-0.412-0.124-0.742-0.124-1.153v-5.844c0-0.33 0-0.66 0.124-1.071 0.617-2.634 1.976-3.376 6.544-3.787 0.371 0 0.864-0.083 1.235-0.083h36.674v-8.56h-36.057c-5.186 0-7.903 0.329-10.372 1.069-7.656 2.388-10.99 6.175-10.99 12.761v7.491c0 5.763 6.545 10.702 17.534 11.854 1.236 0.082 2.47 0.164 3.704 0.164h13.336c0.495 0 0.989 0 1.359 0.083 4.075 0.33 5.803 1.07 7.039 2.552 0.74 0.74 0.987 1.482 0.987 2.305v7.491c0 0.906-0.617 2.059-1.851 3.046-1.112 0.988-2.964 1.647-5.434 1.812-0.494 0-0.864 0.082-1.358 0.082h-35.439v8.561z"/>
		</g>
		<g transform="translate(307.92 124.08)">
			<path d="m0 44.371c0 8.808 6.544 13.748 19.757 14.736 1.234 0.082 2.47 0.164 3.704 0.164h33.464v-8.561h-33.711c-7.532 0-10.372-1.894-10.372-6.421v-44.289h-12.842v44.371z"/>
		</g>
		<g transform="translate(236 124.19)">
			<path d="m0 44.711v-30.522c0-7.754 5.445-12.457 16.209-13.942 1.114-0.164 2.352-0.247 3.465-0.247h24.376c1.237 0 2.352 0.083 3.589 0.247 10.765 1.485 16.209 6.188 16.209 13.942v30.522c0 6.291-2.312 9.658-7.641 11.852l12.65 11.418h-14.911l-10.234-9.238-10.303 0.653h-13.735c-2.351 0-4.825-0.331-7.548-1.073-8.166-2.227-12.126-6.517-12.126-13.612zm13.861-0.742c0 0.413 0.123 0.825 0.247 1.32 0.742 3.547 4.083 5.527 9.156 5.527h11.667l-10.717-9.675h14.911l9.347 8.438c1.722-0.918 2.856-2.322 3.252-4.125 0.123-0.412 0.123-0.825 0.123-1.237v-29.285c0-0.33 0-0.743-0.123-1.156-0.743-3.299-4.084-5.196-9.033-5.196h-19.427c-5.691 0-9.403 2.475-9.403 6.352v29.037z"/>
		</g>
	</g>
	<g fill="#00618a" transform="translate(240.85 -5.1167)">
		<path d="m135.29 115c-7.894-0.214-13.924 0.52-19.079 2.694-1.465 0.618-3.801 0.634-4.04 2.47 0.805 0.844 0.93 2.104 1.57 3.142 1.231 1.992 3.309 4.661 5.163 6.061 2.026 1.529 4.114 3.165 6.286 4.489 3.863 2.356 8.176 3.701 11.896 6.061 2.192 1.391 4.37 3.143 6.509 4.713 1.057 0.776 1.768 1.983 3.142 2.469v-0.224c-0.722-0.919-0.908-2.183-1.571-3.143l-2.918-2.918c-2.853-3.787-6.475-7.113-10.325-9.876-3.07-2.204-9.942-5.181-11.223-8.754-0.075-0.075-0.149-0.15-0.225-0.225 2.177-0.245 4.726-1.033 6.735-1.571 3.375-0.905 6.391-0.671 9.876-1.571 1.571-0.449 3.142-0.899 4.714-1.347v-0.898c-1.762-1.808-3.018-4.2-4.939-5.836-5.026-4.28-10.512-8.556-16.161-12.122-3.133-1.9776-7.005-3.2627-10.325-4.9385-1.117-0.5635-3.079-0.8565-3.817-1.7959-1.744-2.2237-2.694-5.042-4.039-7.6319-2.82-5.429-5.587-11.354-8.083-17.062-1.703-3.893-2.815-7.732-4.938-11.224-10.192-16.757-21.163-26.871-38.158-36.813-3.616-2.114-7.97-2.949-12.571-4.04-2.468-0.149-4.938-0.299-7.407-0.449-1.507-0.63-3.075-2.474-4.489-3.367-5.63-3.5567-20.071-11.293-24.241-1.122-2.633 6.42 3.935 12.685 6.284 15.937 1.649 2.2822 3.76 4.8408 4.938 7.4072 0.775 1.6866 0.909 3.378 1.572 5.1631 1.632 4.3965 3.051 9.1797 5.162 13.243 1.067 2.0557 2.243 4.2217 3.592 6.0605 0.827 1.128 2.244 1.625 2.468 3.3672-1.386 1.9395-1.465 4.9502-2.244 7.4073-3.508 11.062-2.185 24.81 2.918 32.997 1.566 2.513 5.254 7.903 10.325 5.836 4.436-1.807 3.445-7.406 4.714-12.346 0.287-1.1202 0.111-1.9434 0.673-2.6934v0.2246c1.347 2.6934 2.694 5.3867 4.041 8.0796 2.99 4.816 8.297 9.849 12.794 13.245 2.332 1.761 4.168 4.806 7.183 5.836v-0.225h-0.225c-0.584-0.911-1.498-1.288-2.244-2.02-1.757-1.722-3.71-3.863-5.163-5.836-4.09-5.553-7.705-11.631-10.998-17.958-1.573-3.0205-2.94-6.3535-4.266-9.4278-0.511-1.1855-0.505-2.9775-1.57-3.5917-1.452 2.2529-3.591 4.0742-4.714 6.7343-1.796 4.252-2.028 9.4375-2.693 14.815-0.394 0.141-0.219 0.044-0.45 0.224-3.126-0.754-4.225-3.9723-5.386-6.733-2.939-6.9824-3.485-18.226-0.899-26.263 0.669-2.0791 3.693-8.6289 2.469-10.55-0.584-1.917-2.512-3.0254-3.591-4.4902-1.335-1.8106-2.668-4.1944-3.592-6.2852-2.405-5.4443-3.528-11.556-6.06-17.059-1.21-2.6309-3.257-5.293-4.938-7.6318-1.861-2.589-3.945-4.497-5.387-7.631-0.513-1.113-1.21-2.896-0.449-4.04 0.242-0.773 0.583-1.095 1.347-1.347 1.302-1.0039 4.928 0.334 6.284 0.8975 3.6 1.4951 6.604 2.9189 9.653 4.9385 1.464 0.9707 2.944 2.8476 4.713 3.3672h2.02c3.16 0.7265 6.7 0.2256 9.652 1.122 5.218 1.586 9.894 4.0528 14.141 6.7344 12.938 8.169 23.516 19.798 30.752 33.67 1.164 2.2334 1.668 4.3653 2.693 6.7344 2.069 4.7774 4.675 9.6934 6.733 14.365 2.054 4.6612 4.056 9.3653 6.959 13.244 1.527 2.039 7.422 3.1328 10.101 4.2646 1.878 0.794 4.955 1.621 6.734 2.693 3.398 2.05 6.69 4.49 9.877 6.735 1.593 1.122 6.489 3.583 6.733 5.611z"/>
	</g>
	<g fill-rule="evenodd" fill="#00618a" transform="translate(271.77 24.329)">
		<path d="m4.041 0.0303c-1.646-0.0303-2.81 0.1797-4.041 0.4483v0.2246h0.225c0.785 1.6132 2.171 2.6513 3.142 4.041 0.748 1.5713 1.496 3.1426 2.245 4.7129 0.074-0.0743 0.15-0.1494 0.224-0.2237 1.39-0.9795 2.027-2.5468 2.02-4.9384-0.557-0.586-0.639-1.3213-1.122-2.0206-0.642-0.9316-1.884-1.4609-2.693-2.2441z"/>
	</g>
	<g fill-rule="evenodd" fill="#e48e00" transform="translate(370.87 165.09)">
		<path d="m0 9.463c0 5.654 4.467 9.464 9.464 9.464s9.464-3.81 9.464-9.464c0-5.653-4.467-9.463-9.464-9.463s-9.464 3.81-9.464 9.463zm16.808 0c0 4.29-3.28 7.496-7.344 7.496-4.113 0-7.344-3.206-7.344-7.496s3.231-7.496 7.344-7.496c4.064 0 7.344 3.206 7.344 7.496zm-4.794 5.401h2.119s-3.103-4.744-3.103-4.744c1.665-0.177 2.926-0.985 2.926-2.953 0-2.196-1.387-3.104-4.062-3.104h-4.215v10.801h1.817v-4.669h1.691s2.827 4.669 2.827 4.669zm-4.518-6.183v-3.104h2.094c1.086 0 2.398 0.202 2.398 1.464 0 1.513-1.186 1.64-2.549 1.64h-1.943z"/>
	</g>
</svg>
