<?xml version="1.0" encoding="UTF-8" standalone="no"?>
<svg xmlns:rdf="http://www.w3.org/1999/02/22-rdf-syntax-ns#" xmlns="http://www.w3.org/2000/svg" fill-rule="evenodd" height="116.36" width="206.1" version="1.1" xmlns:cc="http://creativecommons.org/ns#" xmlns:dc="http://purl.org/dc/elements/1.1/" viewBox="0 0 164.88001 93.087954">
	<path d="m98.002 0c-9.336 0-17.744 4.1836-23.469 10.781 0.889 0.07 1.739 0.204 2.5 0.438 0.009 0.003 0.022-0.003 0.031 0 5.29-5.5674 12.716-9.0628 20.938-9.0628h0.094c15.934 0 28.964 13.043 28.964 29.063s-13.03 29.062-28.964 29.062h-0.094c-15.93 0-28.969-13.042-28.969-29.062 0-2.282 0.281-4.493 0.781-6.625-0.29-1.92-0.643-3.34-1.062-4.032-1.214 3.327-1.875 6.92-1.875 10.657 0 17.19 14.025 31.156 31.125 31.156h0.094c17.104 0 31.154-13.966 31.154-31.156s-14.05-31.219-31.154-31.219h-0.094zm-72.713 80.99v28.53h2.701v-13.68h14.85v13.68h2.699v-28.53h-2.699v12.6h-14.85v-12.6h-2.701zm25.74 0v28.53h2.701v-28.53h-2.701zm7.92 0v28.53h7.381 0.539c2.61-0.09 4.502-0.63 5.762-1.62 1.35-0.99 2.249-2.16 2.699-3.42 0.18-0.54 0.269-1.08 0.359-1.62 0.09-0.45 0.09-0.99 0.09-1.44 0-1.8-0.539-3.33-1.709-4.5-1.17-1.26-2.52-1.98-4.05-2.25v-0.09c1.62-0.54 2.699-1.26 3.419-2.16s1.172-1.891 1.442-2.881v-0.719c0.09-0.18 0.09-0.45 0.09-0.72v-0.27c0-0.18 0-0.269-0.09-0.359-0.09-1.62-0.721-3.15-1.981-4.5-1.17-1.26-3.151-1.981-6.031-1.981h-0.269-7.651zm20.791 0v28.53h14.67v-2.34h-11.971v-11.25h10.622v-2.34h-10.622v-10.35h11.161v-2.25h-13.86zm19.17 0v28.53h2.7v-13.231h3.6c0.63 0 1.26 0.092 1.62 0.182 0.45 0.09 0.72 0.179 0.99 0.359 0.45 0.36 0.81 0.899 1.17 1.619 0 0.09 0.09 0.182 0.09 0.272 0.09 0 0.09 0.089 0.18 0.179l4.68 10.62h2.97l-4.95-11.161c-0.09-0.09-0.18-0.269-0.27-0.449 0-0.18-0.09-0.361-0.27-0.541-0.18-0.54-0.45-0.9-0.9-1.26-0.36-0.45-0.9-0.628-1.71-0.808 1.62-0.18 3.06-0.901 4.32-2.071s1.89-2.699 1.89-4.589c0-0.27-0.09-0.812-0.09-1.532-0.09-0.63-0.36-1.44-0.72-2.25-0.45-0.99-1.35-1.889-2.52-2.699-1.08-0.72-2.7-1.17-4.86-1.17h-0.54-7.38zm21.78 0v28.53h2.52v-22.411l-0.18-3.33h0.18l1.53 3.061 13.68 22.68h3.33v-28.53h-2.61v22.32l0.09 3.33h-0.09l-1.26-2.61-13.86-23.04h-3.33zm35.91 0l-11.34 28.53h2.88l3.24-7.92h7.11 7.02l3.42 7.92h3.24l-11.97-28.53h-1.71-1.89zm11.7 0v2.25h8.55v26.28h2.7v-26.28h8.55v-2.25h-19.8zm22.59 0v28.53h14.58v-2.34h-11.88v-11.25h10.62v-2.34h-10.62v-10.35h11.16v-2.25h-13.86zm-129.24 2.25h4.68c0.18 0 0.359 0 0.539 0.09 1.53 0 2.702 0.45 3.602 1.17 1.08 0.81 1.619 2.069 1.619 3.689s-0.539 2.971-1.619 3.961c-0.99 0.81-2.162 1.35-3.602 1.44h-0.629-4.59v-10.35zm39.96 0h4.86 0.36c1.53 0.09 2.61 0.45 3.33 1.08 0.81 0.72 1.35 1.44 1.62 2.25 0.18 0.36 0.27 0.72 0.27 1.08s0.09 0.721 0.09 0.991c0 1.62-0.72 2.879-1.98 3.869-0.99 0.72-2.07 1.169-3.33 1.349-0.36 0.09-0.81 0.09-1.26 0.09h-3.96v-10.709zm56.7 0.36h0.09l0.09 0.269 0.9 2.432 5.4 12.959h-6.3-6.3l5.13-13.051 0.99-2.609zm-96.66 12.33h4.59 0.629c0.18 0 0.361 0 0.541 0.09 0.63 0 1.35 0.181 2.16 0.541 0.81 0.27 1.62 0.899 2.25 1.619 0.72 0.81 1.08 1.89 1.08 3.33 0 1.71-0.449 2.97-1.259 3.69-0.72 0.81-1.622 1.35-2.612 1.62-0.54 0.09-1.079 0.27-1.619 0.27h-0.541c-0.36 0.09-0.628 0.09-0.898 0.09h-4.321v-11.25z" transform="scale(.8)" fill="#87802a"/>
	<path d="m99.258 5.2773c-2.869 0.09-5.748 0.5632-7.998 1.2832-3.6 1.17-3.78 1.1685-7.11 3.1485-1.26 0.72-3.6 0.0917-4.5 1.262-0.9 1.17 0.99 2.878 1.08 4.318 0 0.63 2.25-3.688 2.25-3.148 0 1.35-1.53 4.229-1.8 6.209-0.54 3.78 0.811 14.851 1.711 18.451 0.18 0.54 1.889-0.092 2.339-0.272 0.72-0.09 1.35-2.428 2.43-3.148 4.68-3.33 7.2-7.651 11.07-8.371 3.51-0.63 7.74 1.44 9.27 4.32 0.81 1.53 1.44 3.24 1.44 4.32 0 0.81-0.27 1.259-0.45 0.809-1.08-3.06-2.16-5.399-3.15-6.209-2.34-1.89-3.42-2.431-6.84-1.711-3.51 0.81-10.08 7.2-12.15 10.08-1.26 1.71-1.711 4.681-0.811 6.031 2.79 4.05 5.04 5.131 9.99 5.491 0.18 0 1.621 0.99 0.991 0.99-6.3 0-9.45-1.711-13.68-8.371-0.45-0.72-1.439-3.421-1.709-4.231-1.71-4.59-1.26-12.239-2.16-18.359-0.27-1.8-0.632-3.871-1.532-5.131-1.44-2.16-10.169-1.709-11.429 0.541-0.72 0.54-0.989 0.99-0.449 1.35 4.77 3.6 4.769 7.559 4.949 11.429 0.18 5.04 0.18 8.731 1.98 13.411 3.6 9.81 11.699 16.29 20.789 17.55 11.071 1.62 19.081-2.789 25.111-10.439 5.4-6.84 6.3-17.461 3.42-25.561-2.34-6.66-8.01-12.421-15.12-15.031-2.21-0.8099-5.06-1.1017-7.932-1.0117zm-99.258 69.592v2.25h16.65v-2.25h-16.65zm19.08 0v1.08 1.17 26.191l0.09 3.33h-0.09l-1.26-2.61-13.951-23.04h-3.3299l-0.00004 28.53h2.6113v-22.411l-0.1797-3.33h0.0898l1.5293 3.061 13.68 22.68h3.33v-32.401h184.5v-2.25h-187.02zm-19.08 39.331v2.16h206.1v-2.16h-206.1z" transform="scale(.8)" fill="#903a36"/>
	<path d="m91.967 11.545c-0.768 0.061-1.528 0.482-2.147 1.045-0.54 0.54-0.72 2.251-0.81 2.971 0.36-1.44 1.349-2.432 2.429-2.702 0.27-0.09 0.631-0.089 0.901-0.089 0.45 0.09-0.001 1.53 0.359 1.98 0.45 0.54 1.711 0.27 1.891 0.9 0.27 1.8-1.35 2.521-2.61 3.151 1.53-0.18 3.6-1.081 3.78-2.881 0.09-1.89-0.72-3.061-2.43-4.051-0.439-0.27-0.902-0.361-1.363-0.324zm-1.067 9.506c-1.26 1.35-1.17 2.068-2.07 3.238-0.63 0.9-1.531 1.802-1.891 2.342 1.44-0.72 1.89-1.441 2.34-1.891 0.99-1.08 0.541-1.889 1.621-3.689z" transform="scale(.8)" fill="#fff"/>
</svg>
