<?xml version="1.0" encoding="UTF-8" standalone="no"?>
<svg xmlns:rdf="http://www.w3.org/1999/02/22-rdf-syntax-ns#" xmlns="http://www.w3.org/2000/svg" xml:space="preserve" height="562.5" viewBox="0 0 1287.575 562.5" width="1287.6" version="1.1" xmlns:cc="http://creativecommons.org/ns#" xmlns:dc="http://purl.org/dc/elements/1.1/"><g transform="matrix(1.25 0 0 -1.25 .0000018454 562.5)"><g fill="#5586a4" transform="scale(.1)"><path d="m1475.1 1979.8c25.13-91.65 64.58-174.12 118.42-247.41 53.79-73.32 122.84-132.22 207.18-176.77 84.27-44.52 184.7-66.72 301.35-66.72 116.59 0 217.02 22.2 301.36 66.72 84.27 44.55 153.32 103.45 207.17 176.77 53.78 73.29 93.23 155.76 118.36 247.41 25.11 91.66 37.68 184.61 37.68 278.86s-12.57 187.13-37.68 278.79c-25.13 91.66-64.58 174.12-118.36 247.47-53.85 73.27-122.9 132.17-207.17 176.71-84.34 44.53-184.77 66.8-301.36 66.8-116.65 0-217.08-22.27-301.35-66.8-84.34-44.54-153.39-103.44-207.18-176.71-53.84-73.35-93.29-155.81-118.42-247.47-25.12-91.66-37.62-184.54-37.62-278.79s12.5-187.2 37.62-278.86zm-234.38 647.03c38.51 117.69 96.33 221.92 173.34 312.59s172.9 163.09 287.53 217.11c114.64 54.04 248.14 81.12 400.46 81.12 152.25 0 285.76-27.08 400.4-81.12 114.63-54.02 210.52-126.44 287.53-217.11s134.83-194.9 173.33-312.59c38.51-117.69 57.82-240.19 57.82-367.5 0-127.3-19.31-249.86-57.82-367.53-38.5-117.69-96.32-221.93-173.33-312.61-77.01-90.67-172.9-162.64-287.53-215.81-114.64-53.12-248.15-79.76-400.4-79.76-152.32 0-285.82 26.64-400.46 79.76-114.63 53.17-210.52 125.14-287.53 215.81-77.01 90.68-134.83 194.92-173.34 312.61-38.5 117.67-57.76 240.23-57.76 367.53 0 127.31 19.26 249.81 57.76 367.5"/><path d="m4116.7 2091.9c-14.9 52.92-37.55 100.1-68.11 141.56-30.56 41.44-69.75 74.44-117.54 98.98-47.85 24.55-103.83 36.83-168.03 36.83-67.42 0-124.61-13.08-171.57-39.16-47.04-26.1-85.4-60.21-115.2-102.39-29.8-42.19-51.33-90.18-64.64-143.91-13.32-53.71-19.95-108.18-19.95-163.38 0-58.35 7-114.74 21.15-169.19 14.07-54.54 36.41-102.45 66.98-143.91 30.54-41.44 70.06-74.81 118.66-100.11 48.61-25.33 107.38-37.98 176.31-37.98s126.5 13.01 172.7 39.1c46.21 26.09 83.46 60.63 111.67 103.62 28.16 42.93 48.54 92.03 61.1 147.29 12.5 55.27 18.81 112.02 18.81 170.36 0 55.22-7.44 109.3-22.34 162.29zm-716.96 423.36v-161.35h4.03c32.96 66.06 84.78 114.11 155.48 144.09 70.7 29.97 148.4 44.96 233.25 44.96 94.18 0 176.24-16.89 246.18-50.7 69.88-33.8 127.95-79.45 174.28-136.99 46.34-57.6 81.24-123.98 104.85-199.18 23.55-75.23 35.35-155.05 35.35-239.49s-11.42-164.26-34.15-239.51c-22.79-75.23-57.31-140.87-103.65-196.87-46.33-56.01-104.47-100.17-174.34-132.37-69.95-32.2-151.19-48.35-243.85-48.35-29.86 0-63.25 3.07-100.12 9.19-36.92 6.21-73.41 16.14-109.52 29.96-36.1 13.82-70.32 32.71-102.51 56.51-32.19 23.81-59.27 53.35-81.25 88.76h-4.03v-614.93h-202v1646h202.01"/><path d="m5334.5 2164.7c-18.02 41.33-42.34 76.98-72.89 106.83-30.62 29.85-66.72 53.6-108.26 71.24-41.6 17.64-87.49 26.46-137.68 26.46-51.76 0-98.47-8.82-140.01-26.46-41.59-17.64-77.26-41.76-107.05-72.35-29.8-30.65-53.34-66.31-70.58-106.89-17.29-40.59-27.46-83.88-30.61-129.84h698.92c-3.17 45.96-13.77 89.63-31.84 131.01zm48.95-764.03c-91.29-67.48-206.11-101.21-344.61-101.21-97.59 0-182.24 15.34-253.82 46-71.65 30.71-131.86 73.71-180.66 128.98-48.79 55.27-85.4 121.25-109.77 198.04-24.37 76.75-38.13 160.45-41.29 250.99 0 90.54 14.14 173.43 42.55 248.7 28.34 75.24 68.11 140.5 119.3 195.76 51.19 55.27 111.85 98.2 181.93 128.92 70.06 30.71 146.89 46.07 230.4 46.07 108.7 0 198.84-21.95 270.54-65.75 71.72-43.85 129.22-99.61 172.52-167.28 43.31-67.72 73.29-141.55 89.83-221.48 16.54-80 23.23-156.12 20.08-228.41h-913.03c-1.58-52.12 4.67-101.53 18.81-148.28s36.87-88.14 68.3-124.17c31.44-36.01 71.46-64.69 120.19-86.15 48.66-21.48 105.98-32.2 171.95-32.2 84.77 0 154.28 19.17 208.44 57.61 54.16 38.42 89.88 96.82 107.18 175.29h198.21c-26.77-133.48-85.78-233.95-177.05-301.43"/><path d="m5904.2 2515.2v-189.05h3.79c83.69 144.46 216.44 216.75 398.18 216.75 80.55 0 147.7-10.79 201.49-32.31 53.71-21.54 97.15-51.51 130.35-89.94 33.2-38.42 56.5-84.13 69.94-137.17 13.38-53.05 20.14-111.84 20.14-176.41v-783.95h-202v806.46c0 73.71-22.11 132.06-66.23 175.11-44.18 43-104.84 64.52-182.05 64.52-61.46 0-114.68-9.25-159.63-27.69-44.94-18.45-82.38-44.53-112.3-78.34-29.9-33.8-52.38-73.34-67.34-118.61-15.02-45.33-22.48-94.86-22.48-148.65v-672.8h-202v1192.1h190.14"/><path d="m8124.4 1336.1c-91.21-37.56-183.32-56.38-276.23-56.38-146.7 0-278.57 25-395.72 74.83-117.17 49.89-215.94 118.6-296.43 206.19-80.48 87.52-142.16 190.4-185.09 308.59-42.91 118.17-64.38 245.6-64.38 382.16 0 140.01 21.41 270.04 64.2 390 42.81 119.92 104.34 224.52 184.63 313.83 80.31 89.32 178.97 159.32 296.05 210.15 117.09 50.76 248.97 76.17 395.67 76.17 98.34 0 193.53-14.49 285.62-43.43 92.11-28.98 175.26-71.53 249.5-127.67 74.21-56.13 135.45-125.33 183.73-207.55 48.3-82.28 77.85-176.65 88.57-283.23h-402.34c-25.06 104.79-73.36 183.43-144.89 235.86-71.58 52.43-158.3 78.64-260.19 78.64-94.81 0-175.29-17.94-241.45-53.84-66.15-35.9-119.82-84.08-160.97-144.46-41.16-60.45-71.08-129.15-89.81-206.19-18.83-77.05-28.16-156.67-28.16-238.96 0-78.83 9.39-155.43 28.2-229.82 18.83-74.38 48.81-141.36 89.96-200.89 41.15-59.51 94.89-107.19 161.15-143.09 66.24-35.9 146.82-53.85 241.78-53.85 139.63 0 247.44 34.41 323.56 103.26 76.13 68.82 120.45 168.63 133 299.38h-423.8v307.91h803.57v-1012.1h-267.38l-42.82 212.3c-75.11-94.36-158.32-160.36-249.53-197.92"/><path d="m9367.1 3194.3v-1523.8h933.51v-347.4h-1354.1v1871.1h420.16"/><path d="m7380.1 1090.6c-642.9-382.1-1605.7-599.56-2680-599.56-1935.5 0-3504.5 787.5-3504.5 1759 0 971.46 1569 1759 3504.5 1759 1078.2 0 2045-221.49 2687.8-605.93-701.7 644.1-1959.8 1096.7-3398.3 1096.9-2203.2 0.4-3989.4-1006.8-3989.6-2249.4-0.1875-1242.6 1785.7-2250.3 3988.9-2250.6 1432.8-0.23828 2687.7 450.92 3391.2 1090.6"/></g></g></svg>
