<?xml version="1.0" encoding="UTF-8" standalone="no"?>
<svg xmlns:rdf="http://www.w3.org/1999/02/22-rdf-syntax-ns#" xmlns="http://www.w3.org/2000/svg" height="79.976" viewBox="0 0 615.21137 79.976379" width="615.21" version="1.0" xmlns:cc="http://creativecommons.org/ns#" xmlns:dc="http://purl.org/dc/elements/1.1/">
	<g transform="translate(-715.06 -719.67)">
		<path fill="#ea1b22" d="m980.65 771.7h40.652l-21.495-34.583-39.451 62.527h-17.955l47.986-75.108c2.0864-3.0347 5.5635-4.8681 9.4203-4.8681 3.7299 0 7.2071 1.7702 9.2303 4.7417l48.176 75.235h-17.955l-8.4719-13.972h-41.158zm186.51 13.972v-65.246h-15.237v71.631c0 1.9599 0.7588 3.8566 2.2128 5.3106 1.4539 1.4542 3.4139 2.276 5.5635 2.276h69.482l8.9775-13.972zm-252.11-11.69c14.794 0 26.807-11.949 26.807-26.743s-12.012-26.806-26.807-26.806h-66.656v79.218h15.231v-65.246h50.414c7.0812 0 12.771 5.7532 12.771 12.834 0 7.0809-5.6899 12.834-12.771 12.834l-42.953-0.0633 45.482 39.64h22.128l-30.6-25.668zm-160.41 25.668c-21.869 0-39.616-17.702-39.616-39.577s17.747-39.64 39.616-39.64h46.045c21.875 0 39.609 17.765 39.609 39.64s-17.734 39.577-39.609 39.577zm45.02-13.972c14.168 0 25.643-11.443 25.643-25.605s-11.475-25.668-25.643-25.668h-44.003c-14.162 0-25.643 11.506-25.643 25.668s11.481 25.605 25.643 25.605zm289.32 13.972c-21.875 0-39.64-17.702-39.64-39.577s17.765-39.64 39.64-39.64h54.687l-8.9143 13.972h-44.762c-14.162 0-25.668 11.506-25.668 25.668s11.506 25.605 25.668 25.605h54.94l-8.9774 13.972zm186.32-13.972c-11.696 0-21.622-7.8396-24.657-18.651h65.119l8.9775-13.972h-74.097c3.0348-10.748 12.961-18.651 24.657-18.651h44.698l9.0407-13.972h-54.751c-21.875 0-39.64 17.765-39.64 39.64s17.765 39.577 39.64 39.577h46.974l8.9774-13.972h-54.94"/>
	</g>
</svg>
