<?xml version="1.0" encoding="UTF-8" standalone="no"?>
<svg xmlns:rdf="http://www.w3.org/1999/02/22-rdf-syntax-ns#" xmlns="http://www.w3.org/2000/svg" viewBox="0 0 111.16136 112.389" height="84.292pt" width="83.371pt" version="1.0" xmlns:cc="http://creativecommons.org/ns#" xmlns:xlink="http://www.w3.org/1999/xlink" xmlns:dc="http://purl.org/dc/elements/1.1/">
	<defs>
		<linearGradient id="b" y2="137.27" gradientUnits="userSpaceOnUse" x2="112.03" gradientTransform="matrix(.56254 0 0 .56797 -9.3997 -5.3053)" y1="192.35" x1="150.96">
			<stop stop-color="#ffd43b" offset="0"/>
			<stop stop-color="#ffe873" offset="1"/>
		</linearGradient>
		<linearGradient id="a" y2="114.4" gradientUnits="userSpaceOnUse" x2="135.67" gradientTransform="matrix(.56254 0 0 .56797 -9.3997 -5.3053)" y1="20.604" x1="26.649">
			<stop stop-color="#5a9fd4" offset="0"/>
			<stop stop-color="#306998" offset="1"/>
		</linearGradient>
	</defs>
	<g transform="translate(-5.5914 -6.3971)">
		<path fill="url(#a)" d="m60.51 6.398c-4.5837 0.021298-8.9609 0.41222-12.812 1.0938-11.347 2.0044-13.407 6.2002-13.407 13.937v10.219h26.812v3.4062h-36.874c-7.7925 0-14.616 4.6837-16.75 13.594-2.4618 10.213-2.571 16.586 0 27.25 1.9059 7.9379 6.4575 13.594 14.25 13.594h9.2188v-12.25c0-8.8499 7.6571-16.656 16.75-16.656h26.781c7.455 0 13.406-6.1382 13.406-13.625v-25.531c0-7.2663-6.13-12.725-13.406-13.938-4.606-0.76673-9.3851-1.115-13.969-1.0938zm-14.5 8.2188c2.7695 0 5.0312 2.2986 5.0312 5.125-0.000002 2.8163-2.2617 5.0938-5.0312 5.0938-2.7795-0.000001-5.0312-2.2774-5.0312-5.0938-0.000001-2.8264 2.2518-5.125 5.0312-5.125z"/>
		<path fill="url(#b)" d="m91.229 35.054v11.906c0 9.2308-7.8259 17-16.75 17h-26.781c-7.3358 0-13.406 6.2785-13.406 13.625v25.531c0 7.2663 6.3186 11.54 13.406 13.625 8.4873 2.4956 16.626 2.9466 26.781 0 6.7502-1.9544 13.406-5.8876 13.406-13.625v-10.222h-26.781v-3.4062h40.187c7.7925 0 10.696-5.4354 13.406-13.594 2.7993-8.3989 2.6802-16.476 0-27.25-1.9258-7.7574-5.6039-13.594-13.406-13.594zm-15.062 64.656c2.7795 0.000003 5.0312 2.2774 5.0312 5.0937-0.000002 2.8264-2.2518 5.125-5.0312 5.125-2.7696 0-5.0312-2.2986-5.0312-5.125 0.000002-2.8163 2.2617-5.0937 5.0312-5.0937z"/>
	</g>
</svg>
