<?xml version="1.0" encoding="UTF-8"?>
<svg xmlns="http://www.w3.org/2000/svg" height="100.95" width="100.95" version="1.1" xmlns:xlink="http://www.w3.org/1999/xlink" viewBox="0 0 26.709169 26.709172">
	<defs>
		<circle id="b" stroke-width=".52917" cy="283.98" stroke="#303F9F" cx="13.016" r="13.09"/>
		<clipPath id="c" clipPathUnits="userSpaceOnUse">
			<use xlink:href="#b"/>
		</clipPath>
	</defs>
	<g transform="translate(.33859 -270.63)">
		<use xlink:href="#b" fill="#fff"/>
		<g stroke-width=".26458" stroke="#502d16" stroke-linecap="round" fill="#784421">
			<rect clip-path="url(#c)" height="7.4083" width="8.4667" y="289.59" x="13.229"/>
			<rect y="289.06" width="8.9958" height=".52917" x="12.965"/>
		</g>
		<path d="m21.696 274.25c-3.8213 6.9399-5.7952 6.9898-6.0854 7.1438-0.29026 0.15398-0.75816 0.80109-0.68692 1.3316 0.07123 0.53055 0.08026 0.91312 0.15776 1.3142" stroke="#d38d5f" stroke-linecap="round" stroke-width=".26458px" fill="none"/>
		<g stroke="#000">
			<path stroke-width=".26458px" d="m12.663 283.45 1.1773-0.65883 1.7697-1.4066" fill="none"/>
			<path stroke-width=".26458" stroke-linecap="round" d="m15.862 281.31c0.01252 0.1216-0.45954 0.10542-0.32056 0.45508 0.03825 0.0962-0.30928 0.0136-0.34594-0.0997-0.03668-0.11341 0.12811-0.23783 0.34252-0.30718 0.21441-0.0693 0.31146-0.16978 0.32399-0.0481z"/>
			<g stroke-linecap="round" fill="none">
				<g stroke-linejoin="round">
					<path stroke-width=".26458" d="m10.319 285.09-6.8792-0.52917v-2.1167h-0.5294"/>
					<path stroke-width=".26458px" d="m5.9655 284.75-1.9967-0.71-1.8521-1.33-0.2646 0.53"/>
					<path stroke-width=".26458px" d="m10.583 284.83-0.26458 0.26459 1.0583 1.8521 1.3229 1.0583 0.5751 0.18792"/>
				</g>
				<ellipse rx="1.194" ry="1.504" transform="rotate(-24.007)" cy="264.32" cx="-104.92" stroke-width=".26458"/>
			</g>
			<g stroke-width=".13229" fill="#fff">
				<path d="m13.758 288.53 2.117-0.26v0.71107h-2.1167z"/>
				<rect transform="rotate(-6.5249)" height=".26458" width=".26458" y="287.93" x="-17.533"/>
				<rect transform="rotate(-6.5249)" height=".26458" width=".26458" y="287.93" x="-17.798"/>
				<rect transform="rotate(-6.5249)" height=".26458" width=".26458" y="287.93" x="-18.062"/>
				<rect transform="rotate(-6.5249)" height=".26458" width=".26458" y="287.93" x="-18.327"/>
				<rect transform="rotate(-6.5249)" height=".26458" width=".26458" y="287.93" x="-18.592"/>
				<rect transform="rotate(-6.5249)" height=".26458" width=".26458" y="287.93" x="-18.856"/>
			</g>
			<g fill="#fff">
				<path stroke-width=".13229" d="m18.611 288.66 2.3464-0.17689v0.40622h-2.346z"/>
				<path stroke-width=".14279" d="m20.206 288.48 0.63391-0.0432 0.4256-3.3261-0.45328-0.0417z"/>
				<path stroke-width=".13915" d="m20.097 285.36 0.62063 0.0723-0.0083-0.37254-0.62323-0.0206z"/>
				<rect transform="matrix(.99979 .020276 -.043661 .99905 0 0)" height="6.3278" width=".71505" y="281.1" x="31.741" stroke-width=".17983"/>
			</g>
		</g>
		<g stroke="#0cf" stroke-width=".13229" fill="#0cf">
			<path d="m18.074 286.54 0.96468-0.0419-1.1401 0.27566z"/>
			<path d="m17.951 287.6 1.0649-0.19227-1.2236 0.39255z"/>
			<path d="m17.946 285.48 1.1401 0.15852-1.1067 0.0418z"/>
			<path d="m17.896 284.82 1.2486 0.0165-1.2988 0.21716z"/>
			<path d="m17.946 284.14 1.2236-0.0336-1.1818 0.26728z"/>
			<path d="m17.932 283.29 1.2069 0.10844-1.1985 0.0919z"/>
			<path d="m18.112 282.3 1.0398 0.2838-1.2904-0.10858z"/>
			<path d="m18.079 281.14 1.1234 0.62624-0.96468-0.34244z"/>
		</g>
		<use xlink:href="#b" fill="none"/>
	</g>
	<g aria-label="/.*/g" fill="#f06" transform="rotate(-15.537)">
		<path d="m5.7025 5.7321-3.1446 6.4089h-0.5639l3.1445-6.4089z"/>
		<path d="m5.9778 11.129v-1.0117h1.0117v1.0117z"/>
		<path d="m9.4147 7.2702 1.0463-0.4751 0.208 0.6426-1.121 0.2324v-0.047852q0-0.18115-0.1333-0.35205zm0.0991 0.499 0.7722 0.8477-0.5466 0.3965-0.5674-0.9947q0.2153-0.0615 0.3418-0.2495zm-0.4478 0.2495-0.5639 0.9947-0.5469-0.3965 0.7725-0.8477q0.1264 0.188 0.3383 0.2495zm-0.3725-0.3486-1.1211-0.2324 0.2085-0.6426 1.0425 0.4751q-0.1299 0.1709-0.1299 0.3555zm0.2153-0.4614-0.1264-1.1382h0.6767l-0.1265 1.1382q-0.11963-0.044434-0.21191-0.044434-0.092285 0-0.21191 0.044434z"/>
		<path d="m13.614 5.7321-3.145 6.4089h-0.5637l3.1445-6.4087z"/>
		<path d="m13.011 12.37 0.07178-0.56738q0.60498 0.25635 1.1245 0.25635 1.0801 0 1.0801-1.0288l0.03076-0.66992q-0.42383 0.76904-1.227 0.76904-0.63574 0-1.0117-0.48193-0.37256-0.48535-0.37256-1.3057 0-0.89209 0.43408-1.4492 0.43408-0.56055 1.1279-0.56055 0.54346 0 1.0698 0.50928v-0.4247h0.63232v2.9702q0 0.72119-0.0957 1.0835-0.0957 0.36572-0.35889 0.646-0.42041 0.44775-1.3159 0.44775-0.52637 0-1.1895-0.19482zm2.286-2.5568v-1.4595q-0.45459-0.5127-0.93994-0.5127-0.44092 0-0.68701 0.38281t-0.24609 1.0732q0 0.58447 0.21533 0.91602 0.21533 0.32812 0.60156 0.32812 0.59814 0 1.0562-0.72803z"/>
	</g>
</svg>
