<?xml version="1.0" encoding="UTF-8"?>
<svg xmlns="http://www.w3.org/2000/svg" viewBox="0 0 70 70">
	<defs>
		<linearGradient id="a" gradientUnits="userSpaceOnUse" x1="22.945" y1="75.787" x2="74.787" y2="20.642">
			<stop offset=".016" stop-color="#B35BA3"/>
			<stop offset=".404" stop-color="#C41E57"/>
			<stop offset=".468" stop-color="#C41E57"/>
			<stop offset=".65" stop-color="#EB8523"/>
			<stop offset=".952" stop-color="#FEBD11"/>
		</linearGradient>
		<linearGradient id="b" gradientUnits="userSpaceOnUse" x1="17.719" y1="73.292" x2="69.556" y2="18.152">
			<stop offset=".016" stop-color="#B35BA3"/>
			<stop offset=".404" stop-color="#C41E57"/>
			<stop offset=".468" stop-color="#C41E57"/>
			<stop offset=".704" stop-color="#EB8523"/>
		</linearGradient>
		<linearGradient id="c" gradientUnits="userSpaceOnUse" x1="1.828" y1="53.428" x2="48.825" y2="9.226">
			<stop offset=".016" stop-color="#B35BA3"/>
			<stop offset=".661" stop-color="#C41E57"/>
		</linearGradient>
		<linearGradient id="d" gradientUnits="userSpaceOnUse" x1="49.894" y1="-11.557" x2="48.859" y2="24.035">
			<stop offset=".5" stop-color="#C41E57"/>
			<stop offset=".667" stop-color="#D13F48"/>
			<stop offset=".795" stop-color="#D94F39"/>
			<stop offset=".866" stop-color="#DD5433"/>
		</linearGradient>
	</defs>
	<path fill="url(#a)" d="M49.8 15.2L36 36.7 58.4 70 70 23.1"/>
	<path fill="url(#b)" d="M51.1 15.7L49 0 18.8 33.6l8.8 8.7L20.8 70h37.6"/>
	<path fill="url(#c)" d="M49 0H11.6L0 47.1h55.6"/>
	<path fill="url(#d)" d="M55.3 47.1l-4.2-31.4L49 0l-7.3 23"/>
	<g>
		<path fill="#000" d="M56.594 56.616l-43.2.11-.11-43.2 43.2-.11z"/>
		<path fill="#FFF" d="M17.597 48.62l16.2-.04.007 2.7-16.2.04zM17.4 19.1h8.2c2.3 0 4 .6 5.2 1.8 1 1 1.5 2.4 1.5 4.1v.1c0 1.5-.3 2.6-1.1 3.5-.7.9-1.6 1.6-2.8 2l4.4 6.4h-4.6l-3.7-5.5h-3.3V37h-3.9l.1-17.9zm7.9 8.7c1 0 1.7-.2 2.2-.7.5-.5.8-1.1.8-1.8v-.1c0-.9-.3-1.5-.8-1.9-.5-.4-1.3-.6-2.3-.6h-3.9v5.1h4zM36 33.2h-1.9v-3.3h2.5l.6-3.8h-2.3v-3.3h2.8l.6-3.7h3.4l-.6 3.7h3.7l.6-3.7h3.4l-.6 3.7h1.9v3.3h-2.5l-.6 3.8h2.3v3.3h-2.8l-.7 3.8h-3.4l.7-3.8h-3.7l-.7 3.8h-3.4l.7-3.8zm7.7-3.3l.6-3.8h-3.7l-.6 3.8h3.7z"/>
	</g>
</svg>