<?xml version="1.0" encoding="UTF-8"?>
<svg xmlns="http://www.w3.org/2000/svg" version="1.1" viewBox="0 0 349 356">
  <circle fill="#FFFFFF" cx="174" cy="177.8" r="165.2"></circle>
  <path fill="#1C4F83" stroke="#fff" d="M316.2,177.8c0-78.6-63.7-142.2-142.2-142.2S31.7,99.2,31.7,177.8c0,69.7,50.1,127.7,116.3,139.9v-55.8 l-32.6-16.7c-2.6,3-6.1,4.9-10.4,4.9c-7.7,0-14-6.3-14-14s6.3-14,14-14s14,6.2,14,14c0,0.2,0,0.3,0,0.4l38.7,19.6l0.3,0.2v62.9 c4.6,0.5,9.3,0.8,14,0.9v-91.8l-60-29.1l0-1.1v-19.9l-20.7-10.9c-2.3,1.8-5.1,2.8-8.3,2.8c-7.7,0-14-6.3-14-14s6.3-14,14-14 s14,6.2,14,13.9c0,1.2-0.2,2.2-0.4,3.3l25,12.8l0.5,0.3v21.4l50,24.3v-30.6l-32.8-17.1L139,169v-40.4l-15.5-11.2 c-1.9,1-4.2,1.5-6.5,1.5c-7.7,0-14-6.3-14-14s6.3-14,14-14s14,6.3,14,14c0,2-0.4,3.9-1.2,5.7l18.3,13.2L148,124h0v40.4l24,12.5V95.2 c-5-1.9-9.1-7.1-9.1-13.2c0-7.7,6.5-14,14.2-14s14.1,6.3,14.1,14c0,6.1-4.2,11.3-9.2,13.2v49.6l32-16.7v-10.9 c-5-1.9-9.1-7.1-9.1-13.2c0-7.7,6.5-14,14.2-14s14.1,6.3,14.1,14c0,6.1-4.2,11.3-9.2,13.2V133l0,0.3l-42,21.9v87.3l18-9.3v-41.9 l0.4-0.3l49.6-27.8v-9c-5-1.9-9.1-7.1-9.1-13.2c0-7.7,6.5-14,14.2-14s14.1,6.3,14.1,14c0,6.1-4.2,11.3-9.2,13.2V167l0,1.3L210,196 v42v0.5L182,253v23.5l57-29.7v-11.5c-5-1.9-9.1-7.1-9.1-13.2c0-7.7,6.5-14,14.2-14s14.1,6.3,14.1,14c0,6.1-4.2,11.3-9.2,13.2V252 l-2,1l-65,33.9v32.9C256.8,315.6,316.2,253.6,316.2,177.8z"></path>
</svg>