<?xml version="1.0" encoding="UTF-8" standalone="no"?>
<svg xmlns:rdf="http://www.w3.org/1999/02/22-rdf-syntax-ns#" xmlns="http://www.w3.org/2000/svg" height="330.4" width="330.4" version="1.1" xmlns:cc="http://creativecommons.org/ns#" xmlns:dc="http://purl.org/dc/elements/1.1/" viewBox="0 0 330.39999 330.39999">
	<circle cy="165.2" cx="165.2" r="165.2" fill="#fff"/>
	<path fill="#1c4f83" d="m307.4 165.2c0-78.6-63.7-142.2-142.2-142.2s-142.3 63.6-142.3 142.2c0 69.7 50.1 127.7 116.3 139.9v-55.8l-32.6-16.7c-2.6 3-6.1 4.9-10.4 4.9-7.7 0-14-6.3-14-14s6.3-14 14-14 14 6.2 14 14v0.4l38.7 19.6 0.3 0.2v62.9c4.6 0.5 9.3 0.8 14 0.9v-91.8l-60-29.1v-21l-20.7-10.9c-2.3 1.8-5.1 2.8-8.3 2.8-7.7 0-14-6.3-14-14s6.3-14 14-14 14 6.2 14 13.9c0 1.2-0.2 2.2-0.4 3.3l25 12.8 0.5 0.3v21.4l50 24.3v-30.6l-32.8-17.1-0.3-1.4v-40.4l-15.5-11.2c-1.9 1-4.2 1.5-6.5 1.5-7.7 0-14-6.3-14-14s6.3-14 14-14 14 6.3 14 14c0 2-0.4 3.9-1.2 5.7l18.3 13.2-0.1 0.2v40.4l24 12.5v-81.7c-5-1.9-9.1-7.1-9.1-13.2 0-7.7 6.5-14 14.2-14s14.1 6.3 14.1 14c0 6.1-4.2 11.3-9.2 13.2v49.6l32-16.7v-10.9c-5-1.9-9.1-7.1-9.1-13.2 0-7.7 6.5-14 14.2-14s14.1 6.3 14.1 14c0 6.1-4.2 11.3-9.2 13.2v16.1l-42 21.9v87.3l18-9.3v-41.9l0.4-0.3 49.6-27.8v-9c-5-1.9-9.1-7.1-9.1-13.2 0-7.7 6.5-14 14.2-14s14.1 6.3 14.1 14c0 6.1-4.2 11.3-9.2 13.2v14.1l-50 27.7v42.5l-28 14.5v23.5l57-29.7v-11.5c-5-1.9-9.1-7.1-9.1-13.2 0-7.7 6.5-14 14.2-14s14.1 6.3 14.1 14c0 6.1-4.2 11.3-9.2 13.2v16.7l-2 1-65 33.9v32.9c74.8-4.2 134.2-66.2 134.2-142z" stroke="#fff"/>
</svg>
