<?xml version="1.0" encoding="UTF-8" standalone="no"?>
<svg xmlns:rdf="http://www.w3.org/1999/02/22-rdf-syntax-ns#" xmlns="http://www.w3.org/2000/svg" height="376.1" viewBox="0 0 343.63968 376.10211" width="343.64" version="1.1" xmlns:cc="http://creativecommons.org/ns#" xmlns:xlink="http://www.w3.org/1999/xlink" xmlns:dc="http://purl.org/dc/elements/1.1/">
	<defs>
		<linearGradient id="b" y2="-258.96" gradientUnits="userSpaceOnUse" y1="-29.89" gradientTransform="matrix(.66978 0 0 .66978 488.26 811.46)" x2="-23.847" x1="-411.53">
			<stop stop-color="#909ca9" offset="0"/>
			<stop stop-color="#ededee" offset="1"/>
		</linearGradient>
		<linearGradient id="c" y2="-889.06" gradientUnits="userSpaceOnUse" y1="-889.06" gradientTransform="matrix(.66978 0 0 .66978 488.26 811.46)" x2="-135.86" x1="-447.8">
			<stop stop-color="#939fab" offset="0"/>
			<stop stop-color="#dcdee1" offset="1"/>
		</linearGradient>
		<radialGradient id="a" gradientUnits="userSpaceOnUse" cx="-1259.1" cy="-245.43" r="414.16" gradientTransform="matrix(-.64353 -.097314 .19436 -1.2853 -377.15 -44.777)">
			<stop stop-color="#ee352c" offset="0"/>
			<stop stop-color="#a91d22" offset="1"/>
		</radialGradient>
	</defs>
	<g transform="translate(-241.65 -218.68)">
		<g transform="matrix(.87206 0 0 .87206 -814.02 35.445)">
			<g transform="matrix(.65282 0 0 .65282 1153.1 109.93)">
				<path fill="url(#b)" d="m469.04 461.9-132.34 43.159-115.06 50.819-32.233 8.5188c-8.1718 7.7676-16.844 15.657-26.08 23.693-10.152 8.834-19.699 16.84-26.959 22.626-8.0837 6.4432-20.103 18.369-26.247 26.017-9.1401 11.377-16.288 23.51-19.361 32.84-5.5289 16.787-2.8351 33.789 7.828 49.48 13.621 20.044 40.737 40.409 72.273 54.273 16.086 7.0717 43.232 16.188 63.587 21.328 33.922 8.5661 99.482 17.873 135.59 19.256 7.3227 0.28037 17.071 0.25405 17.519-0.0419 0.79242-0.52337 6.4133-11.167 12.935-24.489 22.19-45.33 38.245-87.825 46.885-124.12 5.2312-21.976 9.3095-51.28 11.951-86.025 0.73997-9.7328 1.0082-42.194 0.43951-53.227-0.92537-17.953-2.5068-32.587-5.0442-46.947-0.37226-2.1048-0.50923-3.9557-0.31399-4.1233 0.36798-0.31586 1.618-0.71689 17.875-5.442l-3.2442-7.5978zm-30.245 17.749c1.2027 0 4.401 30.671 5.2326 50.129 0.17669 4.1346 0.14099 6.7815-0.10462 6.7815-0.78993 0-16.949-9.4886-28.403-16.682-10.003-6.2817-28.985-18.896-32.003-21.265-0.95222-0.74772-0.85162-0.78423 7.3258-3.6001 13.913-4.791 46.901-15.363 47.952-15.363zm-67.417 22.124c0.8551-0.002 3.1835 1.2831 8.6862 4.7303 20.642 12.931 48.595 28.489 60.573 33.719 3.714 1.6217 4.1381 0.99331-4.4163 6.8024-18.234 12.382-40.904 24.557-68.736 36.922-4.8509 2.1549-8.9601 3.914-9.1257 3.914-0.1657 0 0.37575-2.4606 1.193-5.4838 6.7424-24.941 10.547-50.116 10.654-70.306 0.0528-9.9852 0.0555-10.038 1.0047-10.277 0.0445-0.0112 0.11045-0.0208 0.16745-0.0209zm-13.877 5.2954c0.59745 0.60014 0.16483 22.976-0.56509 29.073-1.7512 14.627-4.613 28.155-9.1886 43.536-1.0933 3.6753-2.1182 6.8435-2.2814 7.0327-0.39745 0.46078-14.08-12.871-18.628-18.147-7.7713-9.0148-13.919-17.97-18.398-26.791-2.2763-4.4835-5.9062-13.338-5.5675-13.584 1.5371-1.1162 54.253-21.496 54.629-21.119zm-65.366 25.766c0.12304 0.0123 0.21861 0.0457 0.27206 0.10465 0.19732 0.2174 0.89409 1.8426 1.5489 3.621 3.187 8.6564 10.354 21.516 16.577 29.742 6.7945 8.9813 15.653 18.551 23.066 24.907 2.3801 2.041 4.6006 3.946 4.9187 4.228 0.63469 0.56261 0.84808 0.46722-15.468 6.6559-18.909 7.1724-39.503 14.355-63.148 21.998-9.0105 2.9127-16.637 5.3739-16.933 5.4838-0.90065 0.33395-0.62443-0.22068 2.0093-4.3326 11.748-18.342 29.546-54.222 39.496-79.599 1.7259-4.4015 3.3683-8.8098 3.6629-9.7955 0.43275-1.448 0.85919-1.9405 2.2186-2.5535 0.75197-0.33911 1.4099-0.49735 1.7791-0.46048zm-20.031 8.2676c0.26617 0.23414-4.8059 10.946-9.7955 20.679-9.678 18.88-20.348 37.459-34.515 60.134-2.4443 3.9124-4.6968 7.4892-5.0024 7.9327-0.50313 0.73036-0.70936 0.48967-2.2605-2.5954-3.3914-6.7452-6.2327-15.256-7.7025-23.17-1.4546-7.8331-1.2071-21.394 0.5442-29.805 1.3011-6.2489 1.2437-6.1108 4.1861-7.6187 12.722-6.5199 54.131-25.921 54.545-25.556zm172.53 7.0118v4.2489c-0.0214 22.316-2.4035 52.869-5.8606 75.162-0.60662 3.912-1.1319 7.1395-1.1721 7.1792-0.0399 0.0395-2.8598-0.78685-6.2582-1.8419-15.017-4.6618-31.297-11.626-45.985-19.675-9.7266-5.33-23.795-13.964-23.4-14.358 0.10717-0.10722 4.2506-2.3029 9.2095-4.8768 19.64-10.195 38.402-21.185 54.713-32.087 6.1197-4.09 15.276-10.71 17.31-12.496zm-248.07 29.575c0.40776-0.0196 0.30422 0.75423-0.33489 4.4373-0.44433 2.5615-0.9466 7.4-1.1302 10.737-0.80454 14.628 1.5677 25.42 8.8326 40.187 2.0199 4.1055 3.5999 7.5279 3.5163 7.5978-0.72738 0.60887-66.88 19.967-87.678 25.661-6.165 1.6878-11.553 3.1747-11.993 3.307-0.72168 0.21724-0.78598 0.0601-0.5233-1.6326 2.278-14.676 13.473-33.938 29.114-50.108 10.399-10.75 18.725-17.118 32.882-25.2 10.16-5.8005 25.94-14.506 27.105-14.944 0.0783-0.0295 0.15104-0.039 0.20924-0.0419zm156.04 27.942c0.0628-0.0752 2.5137 1.2368 5.442 2.9303 21.367 12.357 51.185 23.948 76.606 29.763l2.3024 0.52327-3.1605 1.7582c-13.28 7.3688-57.013 25.565-101.68 42.322-6.5206 2.4461-12.883 4.8445-14.128 5.3373-1.2448 0.49277-2.2605 0.83065-2.2605 0.73257 0-0.0981 1.8424-3.644 4.1024-7.8699 12.54-23.446 25.057-51.939 31.48-71.708 0.65484-2.0155 1.2347-3.7132 1.2977-3.7884zm-15.907 5.2117c0.0686 0.0686-0.71258 2.1689-1.7373 4.6466-8.7174 21.08-20.139 44.076-34.703 69.908-3.7063 6.574-6.8305 11.941-6.949 11.93-0.11862-0.0108-3.133-1.7944-6.6978-3.9768-21.213-12.987-39.982-28.973-52.306-44.519l-1.7582-2.1977 9.1466-2.5117c32.626-8.9377 60.293-18.496 87.804-30.349 3.8955-1.6785 7.1316-2.9988 7.2001-2.9303zm98.813 34.494c0.0469 0.01 0.0628 0.0426 0.0628 0.0837 0 2.2237-5.0466 22.802-9.2513 37.696-3.5271 12.493-6.488 22.265-11.972 39.58-2.4222 7.647-4.5017 13.888-4.6257 13.856-0.12398-0.0323-0.70488-0.1439-1.2976-0.25117-29.719-5.3784-56.338-12.879-81.274-22.898-6.9761-2.8032-17.05-7.2654-17.582-7.7862-0.18017-0.17646 5.8439-3.0144 13.375-6.3001 45.542-19.87 92.728-42.498 108.86-52.201 1.9404-1.167 3.3768-1.8467 3.7047-1.7791zm-228.1 7.8071c0.2442 0.23133-12.495 18.467-30.287 43.368-6.1839 8.6548-13.448 18.856-16.138 22.668-2.6894 3.812-6.7575 9.8457-9.0629 13.417l-4.207 6.4885-4.4792-3.7675c-5.2557-4.4128-14.455-13.782-18.628-18.984-8.5875-10.705-14.406-21.97-16.703-32.317-1.0601-4.7766-1.0913-7.2107-0.0837-7.5141 1.4563-0.43858 28.172-6.728 53.227-12.537 13.917-3.227 30.007-7.0044 35.77-8.3932 5.7637-1.3888 10.535-2.4813 10.591-2.428zm12.81 4.8978 3.2232 3.6001c14.411 16.053 29.066 28.032 46.947 38.366 3.1571 1.8244 5.5633 3.4106 5.3582 3.5373-0.74426 0.46-61.833 22.18-90.085 32.024-15.933 5.5514-29.021 10.078-29.094 10.068-0.0723-0.0106-0.97479-0.60081-1.9884-1.3186l-1.8419-1.3186 2.8884-4.1652c9.3738-13.578 21.151-28.51 46.926-59.527zm79.829 57.057c0.0707-0.0882 4.5371 1.4953 9.9421 3.5163 13.028 4.8715 23.254 8.0488 37.089 11.512 16.993 4.2534 41.551 8.5067 56.094 9.7327 2.2326 0.18819 3.3722 0.44297 3.014 0.66978-0.67513 0.42754-15.4 5.3458-26.226 8.749-17.185 5.402-69.702 20.916-112.52 33.238-7.9435 2.2856-14.735 4.2168-15.091 4.2908-0.95912 0.19948-4.3117-0.68047-4.3117-1.1303 0-0.21379 2.4011-3.2525 5.3164-6.7396 14.393-17.216 28.691-36.445 40.626-54.629 3.2643-4.9735 5.9992-9.1213 6.0698-9.2095zm-17.686 0.50233c0.12879 0.12882-6.9662 11.489-19.444 31.145-5.2688 8.2991-11.243 17.746-13.291 20.993-2.0476 3.2472-5.048 8.1819-6.6559 10.989l-2.9303 5.1071-1.486-0.39768c-3.5858-0.9708-28.879-9.9062-35.561-12.558-8.2812-3.287-16.911-7.2564-23.275-10.696-7.9521-4.2976-18.038-10.675-17.247-10.926 0.22766-0.0722 13.912-3.8174 30.391-8.3094 43.84-11.95 68.089-18.815 83.994-23.777 2.9719-0.92717 5.4478-1.6267 5.5048-1.5698zm124.52 29.198c0.0944-0.0205 0.13817-0.0209 0.14655 0 0.41466 1.0369-15.815 45.988-21.747 60.238-1.3286 3.1918-1.8202 3.9651-2.5117 3.935-1.6791-0.0733-25.212-3.3635-39.454-5.5257-24.933-3.785-66.695-11.078-77.234-13.479l-2.4489-0.5442 14.945-3.3698c32.032-7.2171 47.416-11.088 63.022-15.865 19.682-6.0254 39.172-13.538 58.857-22.689 3.1121-1.4467 5.7648-2.5564 6.4257-2.7z"/>
				<path fill="url(#c)" d="m332.65 153.48c-2.2133-0.2584-37.732 12.538-60.552 21.81-30.921 12.563-54.93 24.599-69.741 34.996-5.5129 3.8698-12.445 10.83-13.458 13.5-0.37916 0.99939-0.55705 2.1674-0.56512 3.3698l13.437 12.684 31.877 10.172 75.936 13.563 86.799 14.924 0.87908-7.4513c-0.2626-0.0414-0.51109-0.0842-0.77443-0.12558l-11.428-1.8-2.3233-4.0815c-11.797-20.816-24.834-46.575-32.401-64.006-5.8603-13.499-11.488-29.05-14.61-40.312-1.8541-6.6887-2.0471-7.1218-3.0768-7.242zm-1.6744 5.1489c0.0883-0.0159 0.13275-0.0165 0.14651 0 0.0701 0.0839 0.47344 2.8758 0.87909 6.1955 1.7084 13.981 4.8368 27.539 9.7327 42.133 3.6893 10.997 3.7422 10.351-0.64885 9.1257-10.207-2.8485-55.937-10.698-89.018-15.279-5.3303-0.73814-9.7668-1.3945-9.8374-1.4652-0.42002-0.42002 23.857-13.14 34.619-18.147 13.803-6.422 51.39-22.071 54.127-22.563zm-96.385 44.771 3.8722 1.3186c21.239 7.2295 74.474 17.399 103.9 19.842 3.3196 0.27568 6.1108 0.57143 6.1955 0.64885 0.0846 0.0774-2.7354 1.5842-6.2582 3.3489-14.195 7.1107-29.819 15.778-40.626 22.542-3.1739 1.9865-6.0847 3.5888-6.4676 3.5582-0.38286-0.0305-2.4759-0.36679-4.6675-0.73257l-3.9977-0.64884-10.047-9.7537c-17.637-17.07-31.407-30.276-36.733-35.268zm-3.935 3.1396 14.065 17.561c7.7429 9.6589 15.503 19.245 17.226 21.307 1.7229 2.0628 3.0558 3.8109 2.9721 3.8722-0.39911 0.29195-20.385-3.5993-30.977-6.028-10.874-2.4933-15.371-3.6868-22.103-5.8396l-5.4838-1.7582 0.0209-1.3605c0.0697-6.7457 8.5722-16.696 23.003-26.875l1.2768-0.87909zm119.79 23.924c0.42188 0.0326 0.8674 0.89008 2.114 3.621 3.4115 7.4736 14.031 27.729 16.598 31.647 0.84547 1.2904 2.1858 1.3767-11.91-0.90001-33.875-5.4716-44.834-7.3032-44.833-7.5141 0.00024-0.12853 1.0159-0.79393 2.2605-1.4861 10.49-5.8337 21.075-13.176 30.496-21.119 2.2526-1.8991 4.4172-3.7084 4.814-4.0396 0.16319-0.13622 0.31985-0.22016 0.46048-0.20931z"/>
				<path d="m189.5 222.43s-2.198 3.4849-0.12559 8.6653c1.2824 3.2056 5.1331 7.0562 9.3769 11.135 0 0 44.452 43.362 49.899 49.647 24.629 28.426 35.327 56.411 36.315 95.046 0.63401 24.793-4.1478 46.588-15.761 71.918-20.815 45.4-64.672 95.467-132.41 151.14l9.9421-3.2861c6.3905-4.7874 15.069-9.9006 35.54-21.098 47.145-25.788 100.09-49.508 165.12-73.948 93.568-35.163 247.48-76.42 335.06-89.834l9.1257-1.4024-1.4024-2.1977c-8.0077-12.447-13.474-20.122-20.052-28.256-19.209-23.754-42.463-43.136-70.955-59.087-39.153-21.919-89.936-38.955-154.13-51.719-12.136-2.4131-38.715-6.9693-60.343-10.34-45.814-7.1396-75.363-11.961-108-17.645-11.702-2.0304-29.174-4.9645-40.773-7.4722-6.0437-1.3067-17.529-4.0226-26.456-7.0955-7.3698-2.9017-17.748-5.7067-19.968-14.17zm25.766 25.012c0.0623-0.0563 1.732 0.4602 3.7675 1.1512 3.7514 1.2734 8.7016 2.7642 14.463 4.3745 4.0361 1.128 8.4738 2.3116 13.186 3.5163 6.0146 1.5377 10.988 2.8588 11.051 2.9303 0.66583 0.74868 10.767 32.987 14.212 45.357 1.3148 4.7212 2.3128 8.6548 2.2186 8.749s-1.2148-1.6441-2.4698-3.8512c-11.686-20.551-30.193-41.45-51.594-58.271-2.6675-2.0966-4.8349-3.8766-4.8349-3.9559zm49.25 13.605c0.51479-0.0355 2.7338 0.33597 5.3792 0.92095 17.042 3.7687 47.472 9.6435 67.041 12.935 3.2604 0.54842 5.9443 1.139 5.9443 1.3187 0 0.17957-1.2181 0.94995-2.7 1.6954-3.2834 1.6516-16.569 9.6042-21.014 12.579-11.097 7.4271-21.074 15.377-28.34 22.605-2.92 2.9047-5.3634 5.2745-5.442 5.2745-0.0785 0-0.58901-1.6927-1.1302-3.7675-3.6326-13.924-11.143-34.486-17.875-48.957-1.0832-2.3286-1.9675-4.3823-1.9675-4.5629 0-0.0228 0.0308-0.0368 0.10462-0.0415zm86.632 16.472c0.57031 0.19008 1.6482 3.5539 3.5582 11.114 3.6573 14.477 5.3601 30.735 4.7931 45.775-0.1578 4.1856-0.4225 8.0726-0.58606 8.6443l-0.31392 1.0465-5.1699-1.6744c-10.657-3.4066-28.07-8.5335-42.991-12.663-8.4769-2.346-15.426-4.4404-15.426-4.6466 0-0.61968 12.369-12.986 17.686-17.686 10.156-8.9787 37.481-30.233 38.45-29.91zm6.8861 0.9837c0.30843-0.287 41.398 6.8281 60.071 10.403 13.918 2.6643 34.055 6.8814 35.268 7.3885 0.58585 0.24481-1.498 1.3804-8.1839 4.3954-26.446 11.926-46.037 22.57-65.513 35.603-5.1299 3.433-9.3929 6.2373-9.4815 6.2373-0.0887 0-0.16477-2.8654-0.16744-6.3629-0.0134-18.992-3.8051-38.161-10.758-54.357-0.74835-1.7429-1.3099-3.2372-1.2349-3.307zm106.24 21.014c0.31814 0.31822-1.0296 8.4209-2.1977 13.207-3.6357 14.897-13.27 37.007-25.159 57.789-2.095 3.6622-3.9688 6.7155-4.1861 6.7815-0.21741 0.0663-2.9246-1.3575-6.0071-3.1605-11.625-6.7997-24.789-13.232-39.245-19.193-4.031-1.6622-7.4642-3.1423-7.6397-3.307-0.65926-0.61854 31.465-21.887 48.496-32.108 13.622-8.1746 35.556-20.392 35.938-20.01zm7.5978 1.1931c0.92509 0 19.148 4.9682 28.57 7.7862 23.47 7.0194 50.544 16.91 68.108 24.886l7.3048 3.307-5.1489 1.1931c-42.975 9.8727-79.809 21.265-115.29 35.666-2.9479 1.1966-5.5132 2.1768-5.6931 2.1768-0.18003 0 0.76081-2.279 2.0721-5.0652 10.664-22.658 17.552-46.434 19.34-66.622 0.16276-1.8376 0.4945-3.3279 0.73261-3.3279zm-181.13 41.631c0.29102-0.28747 14.161 2.9622 21.726 5.0862 11.371 3.1924 35.567 11.289 35.582 11.909 0 0.12076-2.6666 2.4452-5.9234 5.1699-13.081 10.944-25.7 22.387-40.815 36.984-4.481 4.3274-8.2886 7.849-8.4769 7.849-0.18821 0-0.27186-0.63173-0.16744-1.4024 2.2763-16.803 1.7873-38.38-1.3814-60.343-0.40167-2.7841-0.64507-5.154-0.5442-5.2536zm292.07 0.27213c0.20802 0.20803-6.435 10.591-10.57 16.514-6.0334 8.6428-14.779 19.989-34.703 45.043-10.466 13.16-22.27 28.053-26.247 33.091-3.9765 5.0388-7.3136 9.1676-7.4094 9.1676s-1.3784-1.8044-2.8466-3.9978c-11.232-16.779-24.559-31.518-40.459-44.75-2.9671-2.4692-6.3145-5.1771-7.4304-6.007-1.1158-0.82992-2.0256-1.5978-2.0302-1.7163-0.0107-0.27354 16.97-7.5563 29.931-12.83 22.563-9.1818 53.402-20.176 76.48-27.252 12.17-3.731 25.099-7.4477 25.284-7.2629zm7.6606 2.0093c0.36443-0.0743 2.7865 1.0978 5.6931 2.7628 24.306 13.923 48.123 31.803 66.852 50.192 5.3275 5.2306 18.361 18.789 18.168 18.9-0.0496 0.0288-4.5511 0.38526-10.005 0.79537-42.119 3.1676-95.968 12.128-147.81 24.593-3.5211 0.8466-6.5649 1.5489-6.7606 1.5489-0.19569 0 3.6583-3.8686 8.5606-8.5816 30.446-29.27 44.336-47.752 60.678-80.771 2.4339-4.9177 4.4977-9.1603 4.5838-9.4188 0.005-0.0161 0.0176-0.0161 0.0419-0.0208zm-222.62 22.814c1.3907 0.31211 14.375 6.3539 24.175 11.261 8.9617 4.4872 22.535 11.714 23.212 12.349 0.085 0.0798-4.6964 2.5766-10.633 5.5466-18.794 9.4026-34.891 18.282-51.699 28.549-4.7928 2.9279-8.81 5.3373-8.9374 5.3373-0.41928 0-0.25405-0.36249 2.428-5.2745 8.9503-16.392 16.17-35.964 20.324-55.089 0.37072-1.7071 0.8168-2.7494 1.1302-2.6791zm-13.082 2.3442c0.27106 0.27106-3.0983 12.647-5.2326 19.256-4.0936 12.676-11.015 28.611-17.665 40.605-1.5619 2.8168-3.9583 6.94-5.3164 9.1676l-2.4698 4.0396-5.6094-5.421c-6.5182-6.3191-11.828-10.243-18.607-13.73-2.6647-1.3706-4.8316-2.6392-4.835-2.8257-0.0127-0.82436 17.053-16.344 30.224-27.482 9.4278-7.9725 29.271-23.851 29.512-23.61zm79.494 32.694 4.8769 3.1605c11.188 7.2638 24.435 17.035 34.535 25.452 5.6602 4.7165 16.661 14.567 18.921 16.954l1.214 1.2768-8.1002 2.2605c-45.813 12.711-81.208 24.027-122.51 39.203-4.5833 1.6843-8.5408 3.0768-8.8118 3.0768-0.56972 0-1.136 0.5237 9.1676-8.9583 26.415-24.309 49.75-51.092 67.187-77.15zm-20.889 5.2326c0.23931 0.23931-13.538 19.536-21.726 30.433-9.7953 13.037-27.241 34.831-39.245 49.019-5.0152 5.9279-9.3117 10.847-9.5444 10.926-0.25525 0.0867-0.41392-1.3655-0.41861-3.6629-0.0234-12.106-3.0861-25.045-8.4978-36.001-2.2858-4.6274-2.6687-5.7474-2.1977-6.1745 1.8834-1.7075 31.025-18.324 49.396-28.173 12.619-6.765 31.993-16.608 32.233-16.368zm-126.34 30.956c0.2503 0 2.588 1.1745 5.1908 2.6164 6.378 3.5332 12.108 7.4208 17.163 11.637 0.19504 0.16269-2.4226 2.301-5.8187 4.7512-9.4794 6.8393-23.914 17.734-32.275 24.384-8.8208 7.0165-9.1134 7.2317-8.1211 5.714 6.6058-10.103 9.9271-15.823 13.396-23.128 3.0833-6.4942 6.1562-14.203 8.3513-20.91 0.91191-2.7861 1.8637-5.0652 2.114-5.0652zm33.656 26.414c0.45539-0.0563 1.1035 0.79175 3.8094 4.835 5.7028 8.5211 10.07 19.885 11.198 29.135l0.23021 1.9884-13.668 5.2955c-24.534 9.5208-47.118 18.905-62.373 25.891-4.2681 1.9544-11.803 5.5546-16.724 8.0164-4.9201 2.4618-8.9373 4.3967-8.9373 4.2907 0-0.10589 3.0898-2.429 6.8652-5.1698 29.941-21.736 55.755-45.533 75.204-69.322 2.08-2.5443 3.9692-4.7508 4.2071-4.8978 0.063-0.0389 0.12331-0.0549 0.18834-0.063zm-15.53 3.8512c0.39604 0.39604-11.047 13.337-18.754 21.203-19.289 19.687-38.411 35.121-62.101 50.15-2.964 1.8803-5.6724 3.5804-6.028 3.7884-0.65029 0.38037 0.21024-0.59758 10.612-11.93 6.5547-7.1416 11.572-13.07 17.268-20.47 3.7512-4.8732 4.4676-5.5569 9.963-9.5234 14.803-10.685 48.647-33.611 49.04-33.217z" fill="url(#a)"/>
			</g>
		</g>
	</g>
</svg>
