<?xml version="1.0" encoding="UTF-8" standalone="no"?>
<svg xmlns:rdf="http://www.w3.org/1999/02/22-rdf-syntax-ns#" xmlns="http://www.w3.org/2000/svg" xml:space="preserve" height="160.59" viewBox="0 0 361.84375 160.59375" width="361.84" version="1.1" xmlns:cc="http://creativecommons.org/ns#" xmlns:xlink="http://www.w3.org/1999/xlink" xmlns:dc="http://purl.org/dc/elements/1.1/"><title>SQLite</title><defs><linearGradient id="a" y2="-9.1083" gradientUnits="userSpaceOnUse" x2="-6.741" gradientTransform="matrix(-5.025e-7 11.486 -11.486 -5.025e-7 -40.84 192.19)" y1="-9.1083" x1="-15.615"><stop stop-color="#97d9f6" offset="0"/><stop stop-color="#0f80cc" offset=".92024"/><stop stop-color="#0f80cc" offset="1"/></linearGradient></defs><g><path d="m111.63 7.0362h-99.504c-6.6695 0-12.126 5.4578-12.126 12.126v109.74c0 6.6684 5.4565 12.125 12.126 12.125h65.537c-0.744-32.61 10.391-95.89 33.967-133.98z" fill="#0f80cc"/><path d="m108.02 10.574h-95.891c-4.7354 0-8.5889 3.8525-8.5889 8.5888v101.73c21.717-8.335 54.312-15.527 76.85-15.2 4.5289-23.681 17.839-70.09 27.63-95.119z" fill="url(#a)"/><path d="m126.65 0.0039062c-4.8-0.13333-9.93 2.516-15.02 7.0332-1.21 1.0738-2.41 2.2646-3.61 3.5369-13.936 14.779-26.866 42.153-30.883 63.059 1.565 3.174 2.787 7.224 3.592 10.318 0.206 0.794 0.392 1.538 0.541 2.172 0.353 1.5 0.544 2.473 0.544 2.473s-0.126-0.473-0.638-1.959c-0.098-0.285-0.205-0.595-0.334-0.961-0.055-0.151-0.131-0.335-0.215-0.531-0.909-2.113-3.423-6.573-4.529-8.514-0.947 2.791-1.783 5.403-2.483 7.765 3.194 5.844 5.141 15.854 5.141 15.854s-0.17-0.645-0.973-2.91c-0.712-2.004-4.261-8.22-5.101-9.674-1.438 5.309-2.01 8.891-1.494 9.764 1 1.691 1.954 4.61 2.791 7.84 1.89 7.26 3.203 16.11 3.203 16.11s0.042 0.59 0.113 1.49c-0.263 6.11-0.105 12.43 0.367 18.15 0.626 7.58 1.806 14.08 3.309 17.56l1.019-0.55c-2.206-6.86-3.103-15.85-2.711-26.22 0.594-15.84 4.241-34.95 10.979-54.867 11.382-30.065 27.172-54.189 41.632-65.709-13.18 11.898-31.01 50.409-36.345 64.67-5.976 15.97-10.211 30.956-12.764 45.316 4.404-13.46 18.639-19.25 18.639-19.25s6.99-8.61 15.15-20.915c-4.89 1.115-12.92 3.024-15.61 4.154-3.961 1.664-5.03 2.23-5.03 2.23s12.85-7.822 23.87-11.365c15.16-23.875 31.67-57.792 15.04-72.629-2.55-2.2788-5.31-3.3611-8.19-3.4411zm10.88 79.215c-4.82 0-8.74 1.427-11.75 4.281-3 2.856-4.53 6.6-4.53 11.188 0 2.377 0.38 4.544 1.13 6.532 0.74 1.99 1.9 3.83 3.46 5.5s4.69 3.93 9.35 6.81c5.71 3.49 9.45 6.32 11.25 8.53 1.79 2.21 2.68 4.53 2.68 6.94 0 3.23-1.06 5.81-3.24 7.75-2.2 1.94-5.12 2.91-8.76 2.91-3.82 0-7.16-1.35-10.03-4.04-2.86-2.68-4.31-6.23-4.34-10.68h-1.78v16.15h1.78c0.54-1.53 1.3-2.31 2.28-2.31 0.47 0 1.59 0.33 3.31 0.94 4.21 1.5 7.66 2.22 10.38 2.22 4.68 0 8.67-1.64 12-4.97 3.32-3.33 5-7.35 5-12.03 0-3.64-1.11-6.87-3.28-9.69-2.18-2.82-6.4-6.11-12.72-9.87-5.44-3.27-8.97-5.931-10.6-8.005-1.63-2.071-2.46-4.361-2.46-6.875 0-2.719 1-4.902 2.96-6.531 1.98-1.63 4.56-2.438 7.79-2.438 3.63 0 6.66 1.079 9.06 3.25 2.39 2.175 3.78 5.189 4.19 9.063h1.78v-14h-1.66c-0.2 0.714-0.39 1.17-0.56 1.375-0.17 0.203-0.49 0.312-0.97 0.312-0.58 0-1.6-0.242-3.06-0.719-3.13-1.052-6.01-1.593-8.66-1.593zm58.22 0c-5.88 0-11.21 1.385-16.03 4.156-4.83 2.766-8.65 6.607-11.47 11.5-2.82 4.892-4.22 10.085-4.22 15.625 0 7.44 2.44 14.07 7.35 19.88 4.91 5.8 10.79 9.42 17.62 10.81 1.56 0.81 3.8 2.91 6.72 6.31 3.29 3.84 6.08 6.6 8.37 8.25s4.77 2.86 7.38 3.66c2.61 0.79 5.44 1.18 8.5 1.18 3.7 0 7.02-0.64 9.94-1.97l-0.66-1.62c-1.69 0.61-3.5 0.91-5.41 0.91-2.58 0-5.19-0.86-7.81-2.57-2.61-1.71-5.88-4.98-9.78-9.81-1.83-2.31-3.1-3.77-3.81-4.34 7.47-1.46 13.61-5.08 18.4-10.88 4.79-5.79 7.19-12.4 7.19-19.81 0-8.8-3.13-16.191-9.34-22.219-6.22-6.028-13.87-9.062-22.94-9.062zm36.34 0l0.1 1.906c3.91 0 6.1 1.153 6.59 3.469 0.18 0.828 0.27 2.359 0.28 4.562l-0.03 42.154c-0.03 3.15-0.48 5.16-1.34 6.03-0.87 0.87-2.33 1.41-4.44 1.63l-0.09 1.91h39l1-9.57h-1.78c-0.51 2.61-1.68 4.47-3.54 5.53-1.86 1.07-5.15 1.6-9.9 1.6h-3.69c-4.28 0-6.75-1.55-7.41-4.66-0.13-0.61-0.18-1.27-0.18-2l0.15-42.624c0-3.143 0.4-5.25 1.22-6.281 0.83-1.027 2.33-1.603 4.5-1.75l-0.09-1.906h-20.35zm-35.71 2.312c6.62 0 12.03 2.611 16.21 7.875 4.18 5.267 6.25 12.484 6.25 21.624 0 8.66-2.1 15.6-6.31 20.81-4.21 5.22-9.81 7.82-16.78 7.82-6.69 0-12.12-2.68-16.28-8.07-4.16-5.38-6.22-12.37-6.22-20.97 0-8.83 2.08-15.898 6.28-21.182 4.2-5.28 9.81-7.907 16.85-7.907zm89.68 9.063c-0.95 0-1.67 0.321-2.22 0.968-0.55 0.645-0.72 1.427-0.53 2.376 0.19 0.92 0.71 1.726 1.53 2.406 0.82 0.678 1.71 1.031 2.66 1.031 0.92 0 1.62-0.353 2.12-1.031 0.51-0.68 0.66-1.486 0.47-2.406-0.19-0.949-0.69-1.731-1.47-2.376-0.78-0.647-1.64-0.968-2.56-0.968zm25.72 6.468c-1.62 6.218-5.12 9.578-10.5 10.128l0.06 1.78h6.28l-0.12 21.06c0.01 3.6 0.12 6 0.38 7.22 0.61 2.92 2.52 4.41 5.71 4.41 4.62 0 9.47-2.82 14.53-8.44l-1.53-1.31c-3.65 3.7-6.89 5.56-9.71 5.56-1.74 0-2.82-1-3.22-2.97-0.12-0.48-0.16-1.04-0.16-1.69l0.06-23.84h9.6l-0.1-2.85h-9.47v-9.058h-1.81zm37.1 7.938c-5.37 0-9.74 2.6-13.13 7.78-3.38 5.19-4.42 10.93-3.09 17.25 0.78 3.7 2.33 6.57 4.72 8.59 2.37 2.03 5.39 3.04 9 3.04 3.35 0 8.03-0.85 10-2.57 1.97-1.71 3.78-4.48 5.46-8.28l-1.34-1.4c-2.68 4.92-8.08 7.4-12.16 7.4-5.6 0-9.03-3.07-10.31-9.19-0.17-0.78-0.29-1.61-0.37-2.5 6.66-1.05 11.71-2.92 15.12-5.62s6.83-5.57 6.19-8.59c-0.38-1.8-1.31-3.22-2.75-4.29-1.46-1.06-5.23-1.62-7.34-1.62zm-58.66 0.22l-11.56 2.66v2.06l4-0.5c1.93 0 3.07 0.87 3.43 2.62 0.13 0.59 0.2 1.41 0.22 2.44l-0.12 18.91c-0.03 2.61-0.33 4.13-0.91 4.59-0.59 0.46-2.14 0.69-4.66 0.69l-0.06 1.78h18.35l-0.03-1.78c-2.55 0-4.21-0.2-4.94-0.6-0.73-0.39-1.22-1.1-1.44-2.18-0.17-0.79-0.24-2.14-0.25-4l0.06-26.69h-2.09zm55.72 3.5c1.11 0 2.19 0.43 3.28 1.28 1.07 0.85 1.72 1.79 1.94 2.81 1.04 5.03-3.41 8.5-13.44 10.44-0.29-3.67 0.35-6.99 1.97-10 1.61-3 3.7-4.53 6.25-4.53z" fill="#003b57"/></g></svg>
