<?xml version="1.0" encoding="UTF-8" standalone="no"?>
<svg xmlns:rdf="http://www.w3.org/1999/02/22-rdf-syntax-ns#" xmlns="http://www.w3.org/2000/svg" height="44.31" width="79.941" version="1.0" xmlns:cc="http://creativecommons.org/ns#" xmlns:dc="http://purl.org/dc/elements/1.1/" viewBox="0 0 79.941792 44.310267">
	<g stroke="#000" stroke-width="1px" fill-rule="evenodd">
		<path d="m11.404 25.688c-5.3746-3.188-9.8746-6.875-9.8746-6.875-3.25-3.5625 2.25-1.375 2.25-1.375l9.4375 3.3125-0.125 0.875-2.75 1.1875z" fill="#fff"/>
		<path d="m19.279 10c3.0625-3.125 7.1875-5 13.438-5.6875 5.9375 0.0625 8.6875-0.25 15.5 3.6875 1.8125 1.375 5.875 3 4.6875 5.8125-1.875 3.6875-1.9375 3.4375-2.875 6.8125s-0.1875 3.0625-1.3125 4.625c-2 2.125-0.5625 2-3.125 3.125-3.9375-1.625-3.1875-1.3125-5.375-1.625-3.75-0.3125-3.75-0.4375-8.4375 1.8125-3.125 0.5-0.6875 0.75-3.875 0.375-7.625-3.75-5.625-4.9375-9.5-5.875s-4.625-0.125-5-1.875c0.125-3.5 3.25-8.4375 5.875-11.188z" fill="#809cc8"/>
		<path d="m12.529 26.188c5.2976 0.18894 6.6389 3.8264 9.1875 5 3.0741 0.76155 5.0284 2.375 8.5625 2.5 3.8978-1.875 9.6787-1.6875 15.062-0.1875 2.8542 0.0625 4.1956-1.97 6.75-7.5 1.3654-4.2116 1.5951-8.0713 3.6875-10.125 1.2185-0.99202 2.0956-2.3125-0.375-3.3125-2.7517-0.5625-3.9176 2.5852-5.375 7.3125-0.86615 4.1698-2.5505 9.244-5.5 7.5-5.1933-1.7471-3.0858-1.1875-5.5625-1.3125-4.6368 0.3125-8.3958 3.8907-14.438 0.625-4.4744-3.2776-5.9711-4.1082-11.312-5.4375-1.1835-0.31448-6.3173 0.27213-0.6875 4.9375z" fill="#fff"/>
		<path d="m11.998 26.125c-0.36848 0.36848-2.5365 2.3231-3.7188 4.5-1.2004 2.2134-1.4635 4.5104-0.0625 7.5625 1.0989 2.8854 4.2409 3.2165 7.9375 4.3125 1.5718-0.26331 2.7201 0.71743 4.125-0.875 1.1447-1.2697 1.9864-0.88856 0.9375-3.25-2.1964-3.5089-2.6875-5.7819-0.6875-7.75-0.5625-1.4405-1.2263-2.1638-4.25-3.9375-1.0835-0.39599-2.4579-0.80709-4.2812-0.5625" fill="#fff"/>
		<path d="m24.279 32.313c-0.97049 1.283-0.875 1.4499-0.625 3.1875 0.6875 1.6293 0.44092 2.2821 3.25 2.625 3.2464-0.98526 3.2819-2.9375 3.3125-4.375-3.6036-0.125-5.3154-1.7381-5.9375-1.4375z" fill="#424242"/>
		<path d="m29.404 39.25c0.22531 2.3387 3.3101 3.5825 8.125 4.375 3.6344-0.24688 6.7513 1.4324 9.125-2.125 0.42848-2.6514-0.18058-6.5625-2.1875-8.1875-2.1369-1.875-9.2441-2.0148-12.375-0.8125-2.7137 1.4855-3.1048 4.6434-2.6875 6.75z" fill="#fff"/>
	</g>
	<g stroke="#000" stroke-width="1px" fill="none">
		<path d="m19.467 34.813c-4.3544-0.625-7.4803-0.91117-9 5.6875 5.0033 2.2335 8.3185 2.4799 9.5625 1.5625 3.4476-2.4294-0.10614-5.0307-0.5625-7.25z"/>
		<path d="m45.717 35.563c-3.9375 0.21092-7.5452 1.5904-9.8125 7.3125 0.62799 0.74402 0.84807 0.73654 1.9375 0.8125 2.5572-0.12765 5.2523 0.40451 7.125-0.4375 3.1937-2.0984 1.2359-7.4798 0.6875-7.5625"/>
		<path d="m14.779 34.75c0.98355 1.5756 2.1699 2.9102 1.3125 7.4375"/>
		<path d="m17.279 34.563c1.1165 2.0795 2.1875 4.0987 1.5625 7.8125"/>
		<path d="m38.904 37.875c1.3782 0.45373 3.2215 2.2611 3.6875 5.9375"/>
		<path d="m41.717 36.125c1.5829 1.5189 3.3372 2.6612 3.4375 6.8125"/>
	</g>
	<g stroke="#000" stroke-width="1px">
		<path d="m48.029 32.813c-0.3865 3.1415 0.97303 7.8601 4.625 7.875 5.565 0.57333 6.9464-1.4194 8.25-3.375 1.0227-3.7385-2.8751-7.6875-5.625-10.188-1.0957-0.97799-1.2595-0.9375-2.625-1-2.0851 0.75-2.5473 6.1098-4.6875 6.6875" fill-rule="evenodd" fill="#fff"/>
		<path d="m52.154 40.438c4.2259 1.3509 5.138 0.11203 8-1.9375 1.9056-1.9056 0.68427-6.1282-2-8.375-2.5737 0.67634-8.6488 5.2887-6 10.312z" fill-rule="evenodd" fill="#fff"/>
		<path d="m52.904 34c-0.02083-0.02083 3.0921 1.556 3.9375 6.1875" fill="none"/>
		<path d="m55.279 32.125c1.0929 0.98234 3.5037 2.5404 4.375 6.5625" fill="none"/>
		<path d="m63.217 10.688c0.92683-5.5412 0.93441-5.6071 2.6875-7.3125 4.0951-2.6182-0.83491 12.553 7.625 7.1875 0.41485 0.69896 2.9762 0.38837 3.8125 1.375 2.113 1.8816 2.4375 2.7209 1.875 3.5625-2.125 3.5848-2.9666 1.9666-5.8125 2.9375-0.59465 1.7196-2.023 2.1151-6.875 2.1875-3.1478 0.27133-3.6133 2.3252-5 3.625-1.5265 1.1941-3.1424 3.5871-9.3125 1.5625 1.4496-4.1228 0.66942-8.0021 4.0625-10.375 5.1331 0.75951 5.6755-2.2261 6.9375-4.75z" fill-rule="evenodd" fill="#fff"/>
		<path d="m67.654 14.625c1.1815 2.0982 2.7563 3.4375 6.25 3.5625" fill="none"/>
		<ellipse fill-rule="evenodd" fill-opacity=".94118" rx="3.375" ry="5.375" cy="5.875" cx="74.779" fill="#b5c8dd"/>
		<ellipse fill-rule="evenodd" rx="3.375" ry="5.375" cy="6.5625" cx="70.842" fill="#b5c8dd"/>
	</g>
	<ellipse rx="1.4375" ry="2.2187" cy="7.2813" cx="72.029" stroke-width="1.8945"/>
	<ellipse rx="1.3125" ry="2.125" cy="6.3438" cx="76.154" stroke-width="1.7716"/>
</svg>
