<?xml version="1.0" encoding="UTF-8" standalone="no"?>
<svg xmlns:rdf="http://www.w3.org/1999/02/22-rdf-syntax-ns#" xmlns="http://www.w3.org/2000/svg" enable-background="new 0 0 469.834 139" xml:space="preserve" height="126.98" viewBox="0 0 114.538 126.97608" width="114.54" version="1.1" y="0px" x="0px" xmlns:cc="http://creativecommons.org/ns#" xmlns:dc="http://purl.org/dc/elements/1.1/">
<g transform="translate(-14.259 -5.114)">
	<path d="m33.608 108.03 37.918 21.893 27.94-16.131m22.874-24.263 0.01-47.622-30.782-18.376m-34.957-3.061-35.9 21.436-0.003 29.841" stroke="#f54a42" stroke-linecap="round" stroke-miterlimit="10" stroke-width="3.75" fill="none"/><path d="m56.611 20.468 8.387-5.008m-31.39 92.572-6.284-3.723m95.016-14.783l0.002 3.433m-46.241-81.397a4.574 4.574 0 0 1 -4.574 4.574 4.574 4.574 0 0 1 -4.574 -4.574 4.574 4.574 0 0 1 4.574 -4.574 4.574 4.574 0 0 1 4.574 4.574zm-50.817 89.017a4.574 4.574 0 0 1 -4.574 4.574 4.574 4.574 0 0 1 -4.574 -4.574 4.574 4.574 0 0 1 4.574 -4.574 4.574 4.574 0 0 1 4.574 4.574zm92.491 0c0-2.525 2.045-4.575 4.574-4.575 2.53 0 4.575 2.05 4.575 4.575 0 2.524-2.045 4.574-4.575 4.574-2.529 0-4.574-2.05-4.574-4.574z" stroke="#f54a42" stroke-linecap="square" stroke-miterlimit="10" stroke-width="3.75" fill="none"/><path fill="#f54a42" d="m97.5 51.996h-25.054v45.45h7.979v-33.595h17.075zm-51.946 0v11.855h16.798v33.598h7.974v-45.453z"/>
</g>
</svg>
