<?xml version="1.0" encoding="UTF-8" standalone="no"?>
<svg xmlns:rdf="http://www.w3.org/1999/02/22-rdf-syntax-ns#" xmlns="http://www.w3.org/2000/svg" viewBox="0 0 66.574799 52.099999" height="52.1" width="66.575" version="1.1" xmlns:cc="http://creativecommons.org/ns#" xmlns:dc="http://purl.org/dc/elements/1.1/">
	<g fill="#007acc" transform="translate(0,-1.39)">
		<path d="m34.98 7.56h-14.55v45.07h-5.91v-45.07h-14.52v-5.35h34.98z"/>
		<path d="m38.615 50.59v-6.96c0.73 0.7 1.6 1.34 2.62 1.9s2.09 1.04 3.22 1.42 2.26 0.69 3.39 0.9c1.14 0.21 2.19 0.32 3.15 0.32 3.32 0 5.81-0.67 7.45-2.02s2.46-3.29 2.46-5.82c0-1.36-0.27-2.54-0.82-3.55s-1.3-1.93-2.27-2.76-2.11-1.63-3.43-2.39-2.74-1.56-4.26-2.41c-1.61-0.89-3.11-1.79-4.5-2.71-1.39-0.91-2.61-1.92-3.63-3.02-1.03-1.1-1.84-2.35-2.43-3.74s-0.88-3.03-0.88-4.9c0-2.3 0.46-4.29 1.38-5.99s2.13-3.1 3.64-4.2c1.5-1.1 3.21-1.92 5.13-2.46s3.88-0.81 5.87-0.81c4.55 0 7.86 0.6 9.94 1.79v6.64c-2.72-2.06-6.22-3.09-10.49-3.09-1.18 0-2.36 0.14-3.54 0.4-1.18 0.27-2.23 0.71-3.15 1.32s-1.67 1.39-2.25 2.36c-0.58 0.96-0.87 2.13-0.87 3.52 0 1.29 0.22 2.4 0.66 3.34s1.09 1.79 1.95 2.57c0.86 0.77 1.9 1.52 3.14 2.25 1.23 0.73 2.65 1.52 4.26 2.39 1.65 0.89 3.22 1.83 4.7 2.81s2.78 2.07 3.89 3.27 2 2.52 2.65 3.97 0.98 3.12 0.98 4.99c0 2.48-0.45 4.59-1.33 6.31-0.89 1.72-2.09 3.12-3.6 4.2s-3.25 1.86-5.23 2.34c-1.97 0.48-4.05 0.72-6.24 0.72-0.73 0-1.63-0.06-2.7-0.19s-2.17-0.32-3.28-0.56c-1.12-0.25-2.17-0.55-3.17-0.91-1.01-0.39-1.8-0.8-2.41-1.24z"/>
	</g>
</svg>
