<?xml version="1.0" encoding="UTF-8" standalone="no"?>
<svg xmlns:rdf="http://www.w3.org/1999/02/22-rdf-syntax-ns#" xmlns="http://www.w3.org/2000/svg" enable-background="new 0 0 1824.73 1032.413" xml:space="preserve" height="551.3" width="1232.4" version="1.0" y="0px" x="0px" xmlns:cc="http://creativecommons.org/ns#" xmlns:dc="http://purl.org/dc/elements/1.1/" viewBox="0 0 1232.3881 551.30104">
<g transform="translate(-343.28 -239.43)">
	<g fill="#900">
			<path d="m1315.3 626.96c-10.911 4.599-21.929 6.902-33.043 6.902-17.549 0-33.323-3.059-47.338-9.16-14.015-6.108-25.832-14.52-35.46-25.242-9.627-10.715-17.005-23.311-22.14-37.778s-7.702-30.068-7.702-46.786c0-17.141 2.56-33.059 7.68-47.746 5.12-14.679 12.482-27.485 22.087-38.42 9.604-10.934 21.407-19.504 35.414-25.726 14.008-6.215 29.781-9.325 47.33-9.325 11.765 0 23.151 1.773 34.169 5.315 11.017 3.549 20.962 8.759 29.842 15.631 8.88 6.871 16.204 15.344 21.98 25.409 5.776 10.073 9.311 21.626 10.595 34.674h-48.131c-2.998-12.828-8.774-22.456-17.33-28.875-8.562-6.418-18.938-9.627-31.125-9.627-11.342 0-20.969 2.197-28.883 6.592-7.913 4.395-14.332 10.292-19.255 17.685-4.924 7.399-8.503 15.812-10.745 25.243-2.25 9.432-3.368 19.18-3.368 29.253 0 9.649 1.125 19.028 3.376 28.136 2.25 9.105 5.837 17.307 10.76 24.593 4.924 7.287 11.35 13.124 19.277 17.519 7.922 4.395 17.564 6.592 28.921 6.592 16.703 0 29.601-4.213 38.707-12.641 9.106-8.426 14.407-20.645 15.91-36.652h-50.698v-37.695h96.125v123.89h-31.986l-5.119-25.99c-8.987 11.55-18.939 19.629-29.85 24.228z"/>
			<path d="m1464 399.48v186.54h111.67v42.53h-162v-229.07z"/>
		<path stroke-linejoin="round" d="m1226.3 657.03c-76.9 46.771-192.08 73.392-320.58 73.392-231.53 0-419.22-96.407-419.22-215.34s187.69-215.34 419.22-215.34c128.98 0 244.62 27.115 321.52 74.18-83.9-78.85-234.4-134.26-406.48-134.29-263.55-0.04-477.22 123.25-477.24 275.38-0.022 152.12 213.61 275.49 477.16 275.53 171.4 0.03 321.51-55.202 405.66-133.51z" stroke="#fff" stroke-linecap="round" stroke-width="0.4"/>
	</g>
</g>
<g transform="translate(-343.28 -239.43)">
	<g stroke="#900" fill="#900">
		<path d="m629.2 628.49h-34.97l-64.13-243.78h36.002l45.957 198.28h0.686l55.205-198.28h36.346l55.329 198.28h0.686l45.822-198.28h38.39l-66.4 243.78h-35.1l-56.23-202.02h-0.686z" stroke-width="5.5"/>
		<path d="m971.74 578.07c-0.935 7.712-8.413 30.543-28.977 44.118-7.478 4.936-17.938 11.106-44.11 11.106-45.803 0-72.419-34.246-72.419-80.833 0-49.98 23.678-89.78 77.582-89.78 47.048 0 70.105 37.023 70.105 94.1h-118.4c0 33.629 15.399 53.066 46.869 53.066 25.861 0 40.995-19.746 41.93-31.777zm-26.173-42.885c-1.558-24.99-11.794-48.13-45.491-48.13-25.238 0-44.554 23.141-44.554 48.13z" stroke-width="5"/>
		<path d="m998.96 407.26h27.419v80.525h0.624c11.84-16.969 28.042-24.683 47.048-24.99 43.31 0 68.416 35.171 68.416 80.523 0 38.565-16.693 90.089-72.155 90.089-27.731 0-39.259-15.734-44.868-24.683h-0.624v20.055l-25.86 0.0005zm70.106 79.909c-39.571 0-43.933 42.268-43.933 68.491 0 42.885 27.107 54.3 44.556 54.3 29.912 0 43.933-26.842 43.933-62.321-0.001-20.671-2.181-60.47-44.556-60.47z" stroke-width="5"/>
	</g>
</g>
</svg>
