<?xml version="1.0" encoding="UTF-8"?>
<svg xmlns="http://www.w3.org/2000/svg" width="60" height="60" viewBox="0 0 14 14">
	<defs>
		<linearGradient id="ro" gradientTransform="rotate(50.19442891)">
			<stop offset="0%" stop-color="#C82A08"/>
			<stop offset="100%" stop-color="#731617"/>
		</linearGradient>

		<linearGradient id="ri" gradientTransform="rotate(56.30993247)">
			<stop offset="0%" stop-color="#F3B4AF"/>
			<stop offset="100%" stop-color="#CF3933"/>
		</linearGradient>

		<linearGradient id="bo" gradientTransform="rotate(38.65980825)">
			<stop offset="0%" stop-color="#7AAFE0"/>
			<stop offset="100%" stop-color="#3562B7"/>
		</linearGradient>

		<linearGradient id="bi" gradientTransform="rotate(33.69006753)">
			<stop offset="0%" stop-color="#A2C2FF"/>
			<stop offset="100%" stop-color="#5D92FC"/>
		</linearGradient>

		<linearGradient id="yo" gradientTransform="rotate(45)">
			<stop offset="0%" stop-color="#D5A41A"/>
			<stop offset="100%" stop-color="#8D6A07"/>
		</linearGradient>

		<linearGradient id="yi" gradientTransform="rotate(45)">
			<stop offset="0%" stop-color="#FEECB9"/>
			<stop offset="100%" stop-color="#FBC010"/>
		</linearGradient>

	</defs>
	<path stroke="#C0C0C0" stroke-linecap="square" fill="none" d="m0.5 0.5 l13 0 l0 13 l-13 0 l0-13 m5 0 l0 13 m-2 0 l0 -3 m-3 0 l5 0 m0 -6 l-5 0 m5 4 l8 0 m-2 0 l0 5"/>
	<rect x="1" y="5" width="4" height="5" fill="url(#ro)"/>
	<rect x="6" y="9" width="5" height="4" fill="url(#bo)"/>
	<rect x="6" y="1" width="7" height="7" fill="url(#yo)"/>

	<rect x="2" y="6" width="2" height="3" fill="url(#ri)"/>
	<rect x="7" y="10" width="3" height="2" fill="url(#bi)"/>
	<rect x="7" y="2" width="5" height="5" fill="url(#yi)"/>
</svg>