<?xml version="1.0" encoding="UTF-8"?>
<svg xmlns="http://www.w3.org/2000/svg" version="1.1" width="543.69" height="213.7" viewBox="0 0 543.69183 213.69872">
	<path fill="#f4793b" d="m0 0s24.763 19.684 36.068 29.344c11.597 9.911 25.371 22.984 28.108 25.745 0.2765 0.35191 0.59133 0.66896 0.93636 0.95367 0.04106 0.0338 0.07918 0.071 0.12135 0.10404 1.0542 0.82538 2.3895 1.3178 3.8322 1.3178 3.4294 0 6.2077-2.7782 6.2077-6.2077 0-2.0582-1.0069-3.8814-2.549-5.0112 0 0-0.27511-0.17723-0.29475-0.19077-0.846-0.584-15.591-10.946-28.728-19.41-14.245-9.177-43.701-26.645-43.701-26.645zm127.95 96.514c-6.6019 0-11.947 5.3627-11.947 11.965 0 2.5384 0.80091 4.8789 2.1502 6.8146h-0.0172s20.577 30.742 30.241 46.506c8.8524 14.44 13.693 29.861 25.403 44.009 2.9233 3.532 7.4199 5.7817 11.843 6.988 7.0092 1.9116 21.796 0 21.796 0s-12.25-31.518-31.108-61.158c-12.572-19.76-33.73-44.496-38.824-50.373-0.0573-0.066-0.0339-0.0427-0.0867-0.10404-0.31018-0.40029-0.63084-0.78687-0.98841-1.1444-0.0172-0.0172-0.0344-0.0349-0.0522-0.0522-2.1589-2.1326-5.1354-3.4506-8.4098-3.4506zm-11.385-10.86a9.9338 9.9338 0 0 1 -9.9338 9.9338 9.9338 9.9338 0 0 1 -9.9338 -9.9338 9.9338 9.9338 0 0 1 9.9338 -9.9338 9.9338 9.9338 0 0 1 9.9338 9.9338zm-21.391-18.762a8.0799 8.0799 0 0 1 -8.0799 8.0799 8.0799 8.0799 0 0 1 -8.0799 -8.0799 8.0799 8.0799 0 0 1 8.0799 -8.0799 8.0799 8.0799 0 0 1 8.0799 8.0799z"/>
	<path fill="#8c9da7" d="m215.63 59.385h-37.91l-115.37 152.52h39.593zm253.36-1.8499c-43.124 0-78.082 34.958-78.082 78.082s34.958 78.082 78.082 78.082c17.564 0 33.773-5.8006 46.818-15.589 1.4407 2.8586 3.7074 6.1386 7.3348 9.2595 9.0761 7.8088 20.548 4.5258 20.548 4.5258v-152.51h-29.2v12.78c-12.81-9.203-28.52-14.635-45.5-14.635zm0.64157 28.992c27.23 0 49.297 22.068 49.297 49.297 0 27.23-22.068 49.297-49.297 49.297-27.23 0-49.315-22.068-49.315-49.297 0-27.23 22.085-49.297 49.315-49.297zm-161.5-31.107c-22.739 0-36.607 9.3162-44.858 18.831h-0.6936v-14.878h-29.114v152.54h32.599v-90.55c0.20196-8.0263 3.1554-37.212 35.495-37.212 31.8 0 39.032 22.184 39.032 39.5v59.545c0 7.9114 2.093 15.612 8.5486 22.143 8.0064 8.1004 24.068 6.5545 24.068 6.5545v-87.653c0-29.934-18.608-68.822-65.077-68.822z"/>
</svg>