<?xml version="1.0" encoding="UTF-8"?><!DOCTYPE svg PUBLIC "-//W3C//DTD SVG 1.1//EN" "http://www.w3.org/Graphics/SVG/1.1/DTD/svg11.dtd"><svg xmlns="http://www.w3.org/2000/svg" xmlns:xlink="http://www.w3.org/1999/xlink" version="1.1" width="24" height="24" viewBox="0 0 24 24"><path d="m4 14h1.5v6.5h11v-6.5h1.5v8h-14v-8"/><path d="m18.36 9.17-1.01-8.21 1.65-0.2 1 8.21zm-1.73 1.17-4.86-6.7 1.34-0.97 4.86 6.7-1.34 0.97m-1.13 1.76-7.17-4.14 0.83-1.43 7.17 4.13-0.83 1.44m-0.46 2.31-8-2.15 0.43-1.59 8 2.14-0.43 1.6m-0.12 2.23-8.26-0.58 0.12-1.65 8.25 0.59-0.11 1.64m0.11 2.6h-8.27v-1.65h8.27v1.65"/></svg>
